<?xml version="1.0" encoding="UTF-8" standalone="no"?>
<!-- Created with Inkscape (http://www.inkscape.org/) -->

<svg
   xmlns:dc="http://purl.org/dc/elements/1.1/"
   xmlns:cc="http://creativecommons.org/ns#"
   xmlns:rdf="http://www.w3.org/1999/02/22-rdf-syntax-ns#"
   xmlns:svg="http://www.w3.org/2000/svg"
   xmlns="http://www.w3.org/2000/svg"
   xmlns:sodipodi="http://sodipodi.sourceforge.net/DTD/sodipodi-0.dtd"
   xmlns:inkscape="http://www.inkscape.org/namespaces/inkscape"
   version="1.1"
   width="20"
   height="30"
   id="svg2"
   inkscape:version="0.48.2 r9819"
   sodipodi:docname="Daedric_A.svg">
  <sodipodi:namedview
     pagecolor="#ffffff"
     bordercolor="#666666"
     borderopacity="1"
     objecttolerance="10"
     gridtolerance="10"
     guidetolerance="10"
     inkscape:pageopacity="0"
     inkscape:pageshadow="2"
     inkscape:window-width="1280"
     inkscape:window-height="972"
     id="namedview2991"
     showgrid="false"
     inkscape:zoom="26.1"
     inkscape:cx="10"
     inkscape:cy="12.808157"
     inkscape:window-x="-8"
     inkscape:window-y="-8"
     inkscape:window-maximized="1"
     inkscape:current-layer="svg2" />
  <defs
     id="defs2992" />
  <metadata
     id="metadata7">
    <rdf:RDF>
      <cc:Work
         rdf:about="">
        <dc:format>image/svg+xml</dc:format>
        <dc:type
           rdf:resource="http://purl.org/dc/dcmitype/StillImage" />
        <dc:title />
      </cc:Work>
    </rdf:RDF>
  </metadata>
  <g
     transform="translate(-262.5,-531.07648)"
     id="layer1">
    <g
       style="font-size:32px;font-style:normal;font-variant:normal;font-weight:normal;font-stretch:normal;text-align:center;line-height:0%;letter-spacing:0px;word-spacing:0px;text-anchor:middle;fill:#d1d1d1;font-family:Daedric"
       id="text2985">
      <path
         d="m 266.94983,535.09711 c 0.20833,0.0417 0.4375,0.0625 0.6875,0.0625 l 0.25,0 0.5,-0.0625 c 0.0833,2e-5 0.17708,2e-5 0.28125,0 0.0833,2e-5 0.1875,2e-5 0.3125,0 l 0.34375,0.125 0.1875,-0.125 0.1875,0 c 0.18749,0.0417 0.40624,0.0625 0.65625,0.0625 0.12499,2e-5 0.24999,2e-5 0.375,0 l 0.25,-0.0625 c 0.0833,0.0417 0.18749,0.0625 0.3125,0.0625 0.12499,2e-5 0.24999,-0.0208 0.375,-0.0625 0.12499,0.0833 0.28124,0.12502 0.46875,0.125 l 0.25,-0.125 0.34375,0.125 0.3125,-0.125 0.34375,0.125 c 0.27082,-0.0833 0.59374,-0.12498 0.96875,-0.125 l 0.375,0.125 0.34375,-0.125 0.40625,0.125 c 0.20832,-0.0625 0.41665,-0.0937 0.625,-0.0937 0.20832,2e-5 0.42707,0.0313 0.65625,0.0937 0.10415,-0.0417 0.21874,-0.0625 0.34375,-0.0625 0.12499,2e-5 0.2604,0.0208 0.40625,0.0625 l 0.1875,-0.125 0.25,0 c 0.0833,0.0417 0.16665,0.0625 0.25,0.0625 0.0625,2e-5 0.12499,-0.0208 0.1875,-0.0625 0.29165,2e-5 0.58332,0.12502 0.875,0.375 -0.0417,0.27085 -0.15626,0.5521 -0.34375,0.84375 -0.16668,0.10418 -0.32293,0.26043 -0.46875,0.46875 l -0.375,0.3125 -0.125,0.0625 -0.125,0.125 c -1e-5,0.0417 -0.0313,0.0833 -0.0937,0.125 l -0.0625,0.1875 c -0.0417,2e-5 -0.0833,0.0313 -0.125,0.0937 -0.50001,0.37502 -0.9271,0.89585 -1.28125,1.5625 l -0.1875,0.125 c -0.0833,0.20835 -0.12501,0.44793 -0.125,0.71875 l 0,0.0937 c -0.20834,0.25001 -0.33334,0.56251 -0.375,0.9375 -0.12501,0.14585 -0.22918,0.34376 -0.3125,0.59375 l -0.125,0.125 c 0.0417,0.22918 0.13541,0.4896 0.28125,0.78125 l -0.0625,0.125 0.0625,0.4375 c -0.14584,0.0208 -0.32293,0.0729 -0.53125,0.15625 -0.12501,-0.12499 -0.31251,-0.26041 -0.5625,-0.40625 l 0,-0.46875 c -0.37501,-0.62499 -0.56251,-1.24999 -0.5625,-1.875 -1e-5,-0.83332 0.34374,-1.67707 1.03125,-2.53125 l -0.125,-0.40625 c 0.0833,-0.12498 0.12499,-0.24998 0.125,-0.375 -1e-5,-0.0833 -0.0208,-0.16665 -0.0625,-0.25 0.0417,-0.12498 0.0833,-0.28123 0.125,-0.46875 -0.37501,-0.12498 -0.81251,-0.18748 -1.3125,-0.1875 -0.29168,2e-5 -0.60418,0.0208 -0.9375,0.0625 -0.45834,0.43752 -0.76042,0.9896 -0.90625,1.65625 l -0.1875,0.3125 -0.53125,0.625 c -1e-5,0.35418 -0.0625,0.78126 -0.1875,1.28125 l 0,0.28125 -0.1875,0.375 c 0.0417,0.0833 0.0625,0.16668 0.0625,0.25 -1e-5,0.0833 -0.0208,0.1771 -0.0625,0.28125 0.0208,0.12501 0.0521,0.25001 0.0937,0.375 -0.0417,0.22918 -0.0625,0.46876 -0.0625,0.71875 -1e-5,0.27084 0.0208,0.55209 0.0625,0.84375 l -0.125,0.1875 0,0.1875 0.1875,0.25 c -0.0833,0.12501 -0.14584,0.29168 -0.1875,0.5 l 0.1875,0.375 c -0.0625,0.18751 -0.0938,0.40626 -0.0937,0.65625 -1e-5,0.22918 0.0312,0.48959 0.0937,0.78125 l -0.0625,0.34375 0.0625,0.3125 -0.0625,0.375 0,0.8125 0.25,0.375 c 0.0833,0.54167 0.33333,1.05209 0.75,1.53125 -1e-5,0.625 0.22916,1.19792 0.6875,1.71875 0.0417,0.20834 0.0625,0.46875 0.0625,0.78125 l 0,0.1875 c 0.0833,0.16667 0.21874,0.3125 0.40625,0.4375 0.0625,0.20833 0.19791,0.41667 0.40625,0.625 0.0417,0.1875 0.14582,0.38542 0.3125,0.59375 l 0.375,-0.0625 c 0.27082,-0.25 0.52082,-0.58333 0.75,-1 0.0417,0 0.0833,-0.0417 0.125,-0.125 l 0.1875,-0.125 0.1875,-0.1875 c 0.0417,-0.125 0.12499,-0.27083 0.25,-0.4375 -1e-5,-0.16666 0.0625,-0.33333 0.1875,-0.5 l 0.40625,0.25 c -0.0208,0.16667 -0.0313,0.39584 -0.0312,0.6875 -0.0417,0.1875 -0.0833,0.42708 -0.125,0.71875 -0.16668,0.25 -0.25001,0.54167 -0.25,0.875 l 0,0.1875 c -0.16668,0.20833 -0.29168,0.46875 -0.375,0.78125 l -0.125,0.0625 0,0.0625 c -1e-5,0.33333 -0.0833,0.6875 -0.25,1.0625 0.0208,0.10416 0.0312,0.21875 0.0312,0.34375 -1e-5,0.25 -0.0625,0.5 -0.1875,0.75 l -0.3125,0 c -0.0833,-0.125 -0.20834,-0.25 -0.375,-0.375 -0.0417,-0.16667 -0.13543,-0.33334 -0.28125,-0.5 l -0.0625,-0.125 -0.40625,-0.40625 -0.125,-0.125 c -0.12501,-0.20834 -0.31251,-0.45833 -0.5625,-0.75 l -0.125,-0.1875 -0.125,-0.0625 c -0.0417,-0.125 -0.13542,-0.26042 -0.28125,-0.40625 -0.0417,-0.16667 -0.13542,-0.33333 -0.28125,-0.5 l -0.1875,-0.1875 -0.0625,-0.3125 -0.125,-0.1875 c -0.10417,-0.125 -0.19792,-0.29167 -0.28125,-0.5 -0.12501,-0.1875 -0.31251,-0.36458 -0.5625,-0.53125 l 0,-0.0312 c -1e-5,-0.60416 -0.25001,-1.07291 -0.75,-1.40625 -0.12501,-0.60416 -0.41667,-1.15625 -0.875,-1.65625 -0.0417,-0.37499 -0.19792,-0.72916 -0.46875,-1.0625 l 0,-0.1875 c 0,-0.41666 -0.1875,-0.82291 -0.5625,-1.21875 -0.0833,-0.54166 -0.33334,-1.06249 -0.75,-1.5625 0.0417,-0.24999 0.0625,-0.49999 0.0625,-0.75 0,-0.24999 -0.0208,-0.49999 -0.0625,-0.75 l 0.125,-0.1875 c -0.0208,-0.12499 -0.0521,-0.26041 -0.0937,-0.40625 0.125,-0.16666 0.1875,-0.36457 0.1875,-0.59375 l 0,-0.125 -0.0625,-0.25 c 0.41666,-0.37499 0.70833,-0.87499 0.875,-1.5 0.58333,-0.81249 0.875,-1.78123 0.875,-2.90625 0,-0.12498 0,-0.24998 0,-0.375 -0.125,-0.22915 -0.21875,-0.5104 -0.28125,-0.84375 -0.125,-0.0417 -0.28125,-0.0833 -0.46875,-0.125 -0.20834,-0.14582 -0.45834,-0.2604 -0.75,-0.34375 -0.0833,2e-5 -0.16667,2e-5 -0.25,0 -0.47917,2e-5 -0.71875,-0.12498 -0.71875,-0.375 0,-0.16665 0.14583,-0.41665 0.4375,-0.75 l 0,0 0,0 0,-0.0312 z"
         style=""
         id="path2994" />
    </g>
  </g>
</svg>
