<?xml version="1.0" encoding="UTF-8" standalone="no"?>
<!-- Created with Inkscape (http://www.inkscape.org/) -->

<svg
   xmlns:dc="http://purl.org/dc/elements/1.1/"
   xmlns:cc="http://creativecommons.org/ns#"
   xmlns:rdf="http://www.w3.org/1999/02/22-rdf-syntax-ns#"
   xmlns:svg="http://www.w3.org/2000/svg"
   xmlns="http://www.w3.org/2000/svg"
   xmlns:sodipodi="http://sodipodi.sourceforge.net/DTD/sodipodi-0.dtd"
   xmlns:inkscape="http://www.inkscape.org/namespaces/inkscape"
   version="1.1"
   width="20"
   height="30"
   id="svg2"
   inkscape:version="0.48.2 r9819"
   sodipodi:docname="Daedric_B.svg">
  <sodipodi:namedview
     pagecolor="#ffffff"
     bordercolor="#666666"
     borderopacity="1"
     objecttolerance="10"
     gridtolerance="10"
     guidetolerance="10"
     inkscape:pageopacity="0"
     inkscape:pageshadow="2"
     inkscape:window-width="1280"
     inkscape:window-height="972"
     id="namedview3002"
     showgrid="false"
     inkscape:zoom="7.8666667"
     inkscape:cx="10"
     inkscape:cy="15"
     inkscape:window-x="-8"
     inkscape:window-y="-8"
     inkscape:window-maximized="1"
     inkscape:current-layer="svg2" />
  <defs
     id="defs2992" />
  <metadata
     id="metadata7">
    <rdf:RDF>
      <cc:Work
         rdf:about="">
        <dc:format>image/svg+xml</dc:format>
        <dc:type
           rdf:resource="http://purl.org/dc/dcmitype/StillImage" />
        <dc:title />
      </cc:Work>
    </rdf:RDF>
  </metadata>
  <g
     transform="translate(-262.5,-531.07648)"
     id="layer1">
    <g
       style="font-size:32px;font-style:normal;font-variant:normal;font-weight:normal;font-stretch:normal;text-align:center;line-height:0%;letter-spacing:0px;word-spacing:0px;text-anchor:middle;fill:#d1d1d1;font-family:Daedric"
       id="text2985">
      <path
         d="m 271.73108,535.06586 c 0.29166,0.10419 0.68749,0.15627 1.1875,0.15625 0.12499,2e-5 0.28124,0.0208 0.46875,0.0625 l 0.1875,0 0.125,-0.0625 1,-0.0625 c 0.33332,0.0833 0.72915,0.12502 1.1875,0.125 0.16665,2e-5 0.35415,2e-5 0.5625,0 l 0.8125,0.0625 0.125,-0.0625 0.4375,0 c 0.14582,0.0417 0.30207,0.0625 0.46875,0.0625 0.16665,2e-5 0.34373,-0.0208 0.53125,-0.0625 l 0.1875,0 0.1875,0.125 c 0.10415,-0.0417 0.22915,-0.0625 0.375,-0.0625 l 0.125,0 c 0.12498,0.12502 0.29165,0.22919 0.5,0.3125 0.0833,0.29169 0.12498,0.63543 0.125,1.03125 l 0,1.125 c -2e-5,0.0833 -2e-5,0.1771 0,0.28125 -2e-5,0.35418 -0.0833,0.72918 -0.25,1.125 0.0208,0.12502 0.0312,0.25001 0.0312,0.375 -2e-5,0.54168 -0.14585,1.08335 -0.4375,1.625 -0.50002,0.18751 -0.97918,0.50001 -1.4375,0.9375 -0.33335,0.0833 -0.70835,0.25001 -1.125,0.5 l -0.1875,0 c -0.16668,-0.12499 -0.27085,-0.30207 -0.3125,-0.53125 0.20832,-0.24999 0.52082,-0.5104 0.9375,-0.78125 l 0.1875,-0.34375 c 0.16665,-0.12499 0.31248,-0.33332 0.4375,-0.625 l 0.125,-0.125 c -0.0417,-0.20832 -0.10418,-0.45832 -0.1875,-0.75 l -0.0625,-0.125 0,-0.5 -0.125,-0.1875 c -0.16668,-0.83332 -0.66668,-1.54165 -1.5,-2.125 -0.20835,0.0417 -0.41668,0.0625 -0.625,0.0625 -0.29168,2e-5 -0.60418,-0.0417 -0.9375,-0.125 l -0.375,0.1875 c -0.18751,-0.0417 -0.37501,-0.0625 -0.5625,-0.0625 -0.25001,2e-5 -0.51043,0.0417 -0.78125,0.125 l -0.53125,-0.125 -0.5,0 -0.3125,0.0625 -0.3125,-0.0625 -0.40625,0.0625 -0.3125,0.0625 c -0.0208,0.25002 -0.13542,0.47918 -0.34375,0.6875 l 0,0.65625 c 0.58332,0.33335 1.01041,0.89585 1.28125,1.6875 0.37499,0.33335 0.64582,0.78126 0.8125,1.34375 0.18749,0.20835 0.44791,0.4271 0.78125,0.65625 0.0833,0.41668 0.29166,0.85418 0.625,1.3125 0.0417,0.37501 0.18749,0.72918 0.4375,1.0625 l 0.0625,0.25 0,0.25 0.125,0.25 0.46875,0.46875 c 0.12499,0.33334 0.18749,0.65626 0.1875,0.96875 -1e-5,0.25001 -0.0417,0.48959 -0.125,0.71875 l 0.1875,0.40625 -0.375,0.53125 0.0625,0.40625 c -0.16668,0.25001 -0.27085,0.56251 -0.3125,0.9375 l -0.25,0.125 c -0.0833,0.3125 -0.25001,0.66667 -0.5,1.0625 l -0.0625,0.125 -0.53125,0.5 c -0.0208,0.20834 -0.0938,0.4375 -0.21875,0.6875 -0.22918,0.14584 -0.46876,0.36459 -0.71875,0.65625 l -0.125,0.125 -0.1875,0 c -0.12501,0.25 -0.32293,0.53125 -0.59375,0.84375 l -0.1875,0.125 c -0.12501,0.125 -0.26043,0.29167 -0.40625,0.5 l -0.0312,0 c -0.45834,0 -0.70834,0.25 -0.75,0.75 -0.25001,0.25 -0.58334,0.375 -1,0.375 l -0.125,0 c -0.16667,0.33333 -0.45834,0.6875 -0.875,1.0625 l -0.0625,0.1875 -0.1875,0.125 -0.125,0.0625 c -0.375,0.375 -0.83334,0.66666 -1.375,0.875 -0.16667,-0.41667 -0.25,-0.85417 -0.25,-1.3125 0,-0.20833 0.0208,-0.4375 0.0625,-0.6875 l -0.125,-0.5 0.125,-0.125 c -0.0208,-0.16667 -0.0521,-0.35417 -0.0937,-0.5625 0.0417,-0.1875 0.0625,-0.38542 0.0625,-0.59375 0,-0.20833 -0.0208,-0.41667 -0.0625,-0.625 0.0417,-0.0833 0.0625,-0.1875 0.0625,-0.3125 0,-0.10416 -0.0208,-0.21875 -0.0625,-0.34375 0.0208,-0.0833 0.0312,-0.17708 0.0312,-0.28125 0,-0.125 -0.0104,-0.25 -0.0312,-0.375 l 0,-0.875 c 0,-0.0833 0,-0.16666 0,-0.25 0,-0.25 0.0417,-0.5 0.125,-0.75 -0.0625,-0.25 -0.0937,-0.70833 -0.0937,-1.375 0.0417,-0.0833 0.0625,-0.16666 0.0625,-0.25 0,-0.0833 -0.0208,-0.16666 -0.0625,-0.25 0.0833,-0.24999 0.125,-0.53124 0.125,-0.84375 0,-0.0833 0,-0.16666 0,-0.25 -0.0417,-0.0833 -0.0625,-0.16666 -0.0625,-0.25 0,-0.0833 0.0208,-0.16666 0.0625,-0.25 l 0,-0.875 c -0.0208,-0.12499 -0.0312,-0.27082 -0.0312,-0.4375 0,-0.16666 0.0104,-0.35416 0.0312,-0.5625 l 0,-0.125 c 0,-0.27082 -0.0417,-0.46874 -0.125,-0.59375 l 0.0625,-0.1875 0.25,-0.40625 c 0.35416,0.12501 0.55208,0.38543 0.59375,0.78125 l 0,1.75 c 0.125,0.25001 0.22916,0.60417 0.3125,1.0625 l 0.0625,0.125 -0.125,0.53125 c 0.1875,0.25001 0.32291,0.58334 0.40625,1 l 0.125,0.0625 0.0625,0.1875 0.0625,0.1875 0.0625,0.125 0.28125,0.6875 0.125,0.1875 0.1875,0.3125 c -0.0417,0.0833 -0.0625,0.1875 -0.0625,0.3125 l 0,0.125 c 0.0833,0.22917 0.22916,0.44792 0.4375,0.65625 0.18749,0.83334 0.46874,1.25 0.84375,1.25 0.35416,0 0.78124,-0.375 1.28125,-1.125 l 0.0625,-0.53125 c 0.27082,-0.22916 0.55207,-0.54166 0.84375,-0.9375 -0.0625,-0.16666 -0.0938,-0.34375 -0.0937,-0.53125 -1e-5,-0.22916 0.0521,-0.46874 0.15625,-0.71875 0.0625,-0.14583 0.0937,-0.29166 0.0937,-0.4375 -1e-5,-0.24999 -0.0938,-0.51041 -0.28125,-0.78125 -1e-5,-0.0625 -1e-5,-0.12499 0,-0.1875 -1e-5,-0.20833 -0.0417,-0.43749 -0.125,-0.6875 -0.41668,-0.16666 -0.81251,-0.47916 -1.1875,-0.9375 l -0.5,0.0625 c -0.16667,-0.27082 -0.40626,-0.48957 -0.71875,-0.65625 -0.0208,-0.16666 -0.0729,-0.33332 -0.15625,-0.5 0.0417,-0.16666 0.0625,-0.35416 0.0625,-0.5625 -1e-5,-0.20832 -0.0208,-0.43749 -0.0625,-0.6875 -1e-5,-0.16666 0.0417,-0.36457 0.125,-0.59375 -0.0833,-0.16665 -0.12501,-0.45832 -0.125,-0.875 l 0.125,-0.8125 c -0.0417,-0.16665 -0.0625,-0.36457 -0.0625,-0.59375 l -0.0625,-0.3125 0.125,-0.25 c -0.0833,-0.20832 -0.12501,-0.45832 -0.125,-0.75 l 0,-0.0937 c -0.16667,-0.27082 -0.25001,-0.59373 -0.25,-0.96875 -1e-5,-0.0833 -1e-5,-0.16665 0,-0.25 -0.14584,-0.24998 -0.28126,-0.56248 -0.40625,-0.9375 -0.33334,-0.49998 -0.79167,-0.85415 -1.375,-1.0625 l -0.0625,-0.25 c 0.125,-0.10415 0.29166,-0.17706 0.5,-0.21875 l 1.875,0 0.25,0.0625 0.25,0 0.1875,-0.0625 0.25,0 0.25,-0.0625 0.3125,0.0625 c 0.20832,-0.0833 0.43749,-0.12498 0.6875,-0.125 l 0.25,0 0.1875,-0.125 0,0 0,-0.0312 z"
         style=""
         id="path3005" />
    </g>
  </g>
</svg>
