<?xml version="1.0" encoding="UTF-8" standalone="no"?>
<!-- Created with Inkscape (http://www.inkscape.org/) -->

<svg
   xmlns:dc="http://purl.org/dc/elements/1.1/"
   xmlns:cc="http://creativecommons.org/ns#"
   xmlns:rdf="http://www.w3.org/1999/02/22-rdf-syntax-ns#"
   xmlns:svg="http://www.w3.org/2000/svg"
   xmlns="http://www.w3.org/2000/svg"
   xmlns:sodipodi="http://sodipodi.sourceforge.net/DTD/sodipodi-0.dtd"
   xmlns:inkscape="http://www.inkscape.org/namespaces/inkscape"
   version="1.1"
   width="20"
   height="30"
   id="svg2"
   inkscape:version="0.48.2 r9819"
   sodipodi:docname="Daedric_C.svg">
  <sodipodi:namedview
     pagecolor="#ffffff"
     bordercolor="#666666"
     borderopacity="1"
     objecttolerance="10"
     gridtolerance="10"
     guidetolerance="10"
     inkscape:pageopacity="0"
     inkscape:pageshadow="2"
     inkscape:window-width="1280"
     inkscape:window-height="972"
     id="namedview2991"
     showgrid="false"
     inkscape:zoom="26.1"
     inkscape:cx="10"
     inkscape:cy="18.938425"
     inkscape:window-x="-8"
     inkscape:window-y="-8"
     inkscape:window-maximized="1"
     inkscape:current-layer="svg2" />
  <defs
     id="defs2992" />
  <metadata
     id="metadata7">
    <rdf:RDF>
      <cc:Work
         rdf:about="">
        <dc:format>image/svg+xml</dc:format>
        <dc:type
           rdf:resource="http://purl.org/dc/dcmitype/StillImage" />
        <dc:title />
      </cc:Work>
    </rdf:RDF>
  </metadata>
  <g
     transform="translate(-262.5,-531.07648)"
     id="layer1">
    <g
       style="font-size:32px;font-style:normal;font-variant:normal;font-weight:normal;font-stretch:normal;text-align:center;line-height:0%;letter-spacing:0px;word-spacing:0px;text-anchor:middle;fill:#d1d1d1;font-family:Daedric"
       id="text2985">
      <path
         d="m 266.73108,535.06586 c 0.1875,0.0417 0.41666,0.0625 0.6875,0.0625 0.12499,2e-5 0.24999,2e-5 0.375,0 l 0.1875,0.0625 c 0.16666,-0.0625 0.34374,-0.0937 0.53125,-0.0937 0.16666,2e-5 0.35416,0.0313 0.5625,0.0937 0.29166,-0.0833 0.62499,-0.12498 1,-0.125 l 0.25,0 0.25,0.125 c 0.22916,-0.0417 0.48957,-0.0625 0.78125,-0.0625 0.29166,2e-5 0.61457,0.0208 0.96875,0.0625 0.0625,2e-5 0.13541,2e-5 0.21875,0 0.0833,2e-5 0.16666,2e-5 0.25,0 0.0833,-0.0208 0.17707,-0.0625 0.28125,-0.125 l 0.375,0.0625 c 0.0833,2e-5 0.16666,2e-5 0.25,0 0.16666,2e-5 0.34374,0.0208 0.53125,0.0625 0.24999,-0.0833 0.56249,-0.12498 0.9375,-0.125 l 0.1875,0.0625 c 0.24999,0.0417 0.56249,0.0625 0.9375,0.0625 l 0.375,0 c 0.10415,0.0417 0.1979,0.0625 0.28125,0.0625 0.0417,2e-5 0.0833,2e-5 0.125,0 0.0833,-0.0833 0.21874,-0.1354 0.40625,-0.15625 0.0833,0.0833 0.16665,0.12502 0.25,0.125 0.0625,2e-5 0.11457,-0.0208 0.15625,-0.0625 0.12498,0.0208 0.27082,0.0313 0.4375,0.0312 0.16665,2e-5 0.35415,-0.0104 0.5625,-0.0312 l 0.125,0.0625 0.1875,0.0625 0.4375,0 c -2e-5,0.0417 0.0417,0.0833 0.125,0.125 0.0208,0.22919 0.0729,0.50002 0.15625,0.8125 -0.0417,0.12502 -0.0625,0.2396 -0.0625,0.34375 -2e-5,0.20835 0.0625,0.41668 0.1875,0.625 -0.0208,0.20835 -0.0833,0.47918 -0.1875,0.8125 l -0.0625,0.1875 0.1875,0.25 c -0.0417,0.12502 -0.0625,0.25002 -0.0625,0.375 -2e-5,0.20835 0.0417,0.43752 0.125,0.6875 l -0.1875,0.6875 0.125,0.34375 0.0625,0.125 -0.125,0.25 0,0.28125 c 0.0417,0.12501 0.10415,0.22918 0.1875,0.3125 -0.14585,0.22918 -0.21877,0.4896 -0.21875,0.78125 -2e-5,0.12501 0.0208,0.25001 0.0625,0.375 l -0.125,0.375 c 0.0417,0.16668 0.12498,0.34376 0.25,0.53125 l 0.0625,0.125 0,0.1875 -0.25,1.15625 0,0.1875 c 0.0417,0.20834 0.14582,0.41668 0.3125,0.625 l -0.0625,0.1875 c -0.0625,0.16667 -0.0938,0.34376 -0.0937,0.53125 -2e-5,0.14584 0.0208,0.30209 0.0625,0.46875 l 0,0.0937 c -2e-5,0.16667 -0.0417,0.35417 -0.125,0.5625 l 0.1875,0.28125 c -0.0833,0.16667 -0.12502,0.33334 -0.125,0.5 -2e-5,0.12501 0.0208,0.25001 0.0625,0.375 -0.10418,0.22917 -0.15627,0.46876 -0.15625,0.71875 -2e-5,0.25 0.0521,0.51042 0.15625,0.78125 -0.0417,0.125 -0.0625,0.25 -0.0625,0.375 -2e-5,0.125 0.0208,0.27084 0.0625,0.4375 -0.0625,0.16667 -0.0938,0.35417 -0.0937,0.5625 -2e-5,0.1875 0.0312,0.38542 0.0937,0.59375 -0.0625,0.16667 -0.0938,0.33334 -0.0937,0.5 -2e-5,0.10417 0.0104,0.20833 0.0312,0.3125 l -0.0625,0.4375 0.0625,1 -0.0625,0.125 0,0.1875 0.125,0.46875 c -0.0625,0.22917 -0.0938,0.46875 -0.0937,0.71875 -2e-5,0.25 0.0312,0.52083 0.0937,0.8125 l 0.125,0.1875 c -0.12502,0.3125 -0.37502,0.53125 -0.75,0.65625 -0.29168,-0.0833 -0.47918,-0.29167 -0.5625,-0.625 0.0208,-0.10417 0.0312,-0.21875 0.0312,-0.34375 -2e-5,-0.125 -0.0104,-0.26042 -0.0312,-0.40625 0.0417,-0.125 0.0625,-0.25 0.0625,-0.375 -2e-5,-0.125 -0.0208,-0.25 -0.0625,-0.375 l 0,-1 -0.0625,-0.1875 c 0.0208,-0.16667 0.0312,-0.39583 0.0312,-0.6875 l -0.0625,-0.1875 c -0.0417,-0.16667 -0.10418,-0.3125 -0.1875,-0.4375 l 0.1875,-0.4375 c -0.12502,-0.41666 -0.18752,-0.89583 -0.1875,-1.4375 -2e-5,-0.1875 0.0104,-0.38541 0.0312,-0.59375 -0.0625,-0.0833 -0.13543,-0.16666 -0.21875,-0.25 0.0417,-0.10416 0.0625,-0.21875 0.0625,-0.34375 -2e-5,-0.125 -0.0208,-0.25 -0.0625,-0.375 0.12498,-0.125 0.18748,-0.23958 0.1875,-0.34375 -2e-5,-0.10416 -0.0625,-0.20833 -0.1875,-0.3125 0.0625,-0.18749 0.0937,-0.38541 0.0937,-0.59375 -2e-5,-0.20833 -0.0313,-0.41666 -0.0937,-0.625 0.0417,-0.16666 0.0625,-0.33333 0.0625,-0.5 -2e-5,-0.49999 -0.13543,-0.97916 -0.40625,-1.4375 0.0208,-0.12499 0.0312,-0.24999 0.0312,-0.375 -2e-5,-0.37499 -0.0833,-0.74999 -0.25,-1.125 -2e-5,-0.0625 -2e-5,-0.12499 0,-0.1875 -2e-5,-0.33332 -0.10418,-0.65624 -0.3125,-0.96875 -0.16668,-1.49999 -0.83335,-2.84374 -2,-4.03125 l -0.0625,-0.28125 c 0.29165,-0.22915 0.66665,-0.40623 1.125,-0.53125 0.12499,-0.18748 0.31249,-0.36457 0.5625,-0.53125 l 0.25,-0.0625 c 0.0417,-0.18748 0.0625,-0.40623 0.0625,-0.65625 -0.0625,2e-5 -0.1146,2e-5 -0.15625,0 -0.14585,2e-5 -0.3021,-0.0417 -0.46875,-0.125 l -0.25,0.0625 -0.40625,0.0625 c -0.12501,-0.0417 -0.27085,-0.0625 -0.4375,-0.0625 l -0.125,0 -0.25,-0.0625 -0.5,0.125 -0.25,-0.125 -0.25,0.125 c -0.25001,-0.0833 -0.52084,-0.12498 -0.8125,-0.125 -0.20834,2e-5 -0.47918,0.0313 -0.8125,0.0937 l -0.3125,-0.125 -0.3125,0.125 -0.28125,-0.125 -0.15625,0 c -0.22918,2e-5 -0.48959,0.0417 -0.78125,0.125 -0.25001,-0.0833 -0.54167,-0.12498 -0.875,-0.125 l -0.21875,0 -0.375,0.125 -0.40625,-0.125 -0.34375,0.0625 -0.40625,-0.0625 c 0.31249,0.83335 0.94791,1.44793 1.90625,1.84375 0.0833,0.14585 0.13541,0.32293 0.15625,0.53125 -0.20834,0.54168 -0.57292,1.02085 -1.09375,1.4375 -0.0417,0.16668 -0.0625,0.37501 -0.0625,0.625 -0.12501,0.20835 -0.18751,0.44793 -0.1875,0.71875 -1e-5,0.0833 -1e-5,0.16668 0,0.25 -0.12501,0.12501 -0.26042,0.31251 -0.40625,0.5625 l -0.125,0.125 c -0.12501,0.33334 -0.18751,0.70834 -0.1875,1.125 l 0,0.25 c -0.12501,0.16668 -0.26042,0.38543 -0.40625,0.65625 l 0,0.0625 c -1e-5,0.27084 -0.0729,0.55209 -0.21875,0.84375 l -0.125,0.125 c 0.0208,0.0833 0.0312,0.16667 0.0312,0.25 -1e-5,0.25001 -0.0833,0.47917 -0.25,0.6875 0.0208,0.12501 0.0312,0.27084 0.0312,0.4375 -1e-5,0.37501 -0.0625,0.81251 -0.1875,1.3125 0.0417,0.22917 0.0625,0.46876 0.0625,0.71875 0,0.5 -0.10417,1 -0.3125,1.5 0,0.16667 0.0521,0.35417 0.15625,0.5625 -0.16667,0.47917 -0.25,1.01042 -0.25,1.59375 0,0.1875 0.0104,0.38542 0.0312,0.59375 l -0.21875,0.28125 0,1.6875 0.0625,0.1875 -0.0625,0.1875 0,1 -0.1875,0.40625 0,0 c -0.45834,0 -0.6875,-0.26042 -0.6875,-0.78125 0,-0.20834 0.0417,-0.45834 0.125,-0.75 l -0.1875,-0.46875 c 0.0833,-0.20833 0.125,-0.42708 0.125,-0.65625 0,-0.16667 -0.0208,-0.33333 -0.0625,-0.5 0.0625,-0.14583 0.0937,-0.30208 0.0937,-0.46875 0,-0.16667 -0.0312,-0.35417 -0.0937,-0.5625 0.0417,-0.10417 0.0625,-0.20833 0.0625,-0.3125 0,-0.125 -0.0208,-0.23958 -0.0625,-0.34375 0.0833,-0.20833 0.125,-0.61458 0.125,-1.21875 -0.0208,-0.0833 -0.0312,-0.1875 -0.0312,-0.3125 0,-0.125 0.0104,-0.25 0.0312,-0.375 -0.0833,-0.22916 -0.125,-0.46875 -0.125,-0.71875 0,-0.25 0.0417,-0.51041 0.125,-0.78125 -0.0833,-0.20833 -0.125,-0.43749 -0.125,-0.6875 0,-0.16666 0.0208,-0.33333 0.0625,-0.5 l 0,-0.40625 -0.1875,-0.40625 c 0.20833,-0.45833 0.3125,-0.93749 0.3125,-1.4375 0,-0.37499 -0.0625,-0.76041 -0.1875,-1.15625 0.0417,-0.20832 0.0625,-0.43749 0.0625,-0.6875 0,-0.16666 -0.0104,-0.33332 -0.0312,-0.5 0.0417,-0.16666 0.0625,-0.33332 0.0625,-0.5 0,-0.20832 -0.0417,-0.42707 -0.125,-0.65625 0.0833,-0.24999 0.125,-0.49999 0.125,-0.75 0,-0.24999 -0.0417,-0.52082 -0.125,-0.8125 0.10416,-0.20832 0.15625,-0.42707 0.15625,-0.65625 0,-0.22915 -0.0521,-0.46874 -0.15625,-0.71875 l 0.1875,-0.34375 c -0.0417,-0.16665 -0.0625,-0.33332 -0.0625,-0.5 0,-0.24998 0.0417,-0.52082 0.125,-0.8125 -0.0417,-0.10415 -0.0625,-0.21873 -0.0625,-0.34375 0,-0.12498 0.0208,-0.24998 0.0625,-0.375 -0.0833,-0.18748 -0.125,-0.39582 -0.125,-0.625 l -0.0625,-0.46875 c 0.25,-0.24998 0.60416,-0.42706 1.0625,-0.53125 l 0,0 0,0 0,-0.0312 z"
         style=""
         id="path2994" />
    </g>
  </g>
</svg>
