<?xml version="1.0" encoding="UTF-8" standalone="no"?>
<!-- Created with Inkscape (http://www.inkscape.org/) -->

<svg
   xmlns:dc="http://purl.org/dc/elements/1.1/"
   xmlns:cc="http://creativecommons.org/ns#"
   xmlns:rdf="http://www.w3.org/1999/02/22-rdf-syntax-ns#"
   xmlns:svg="http://www.w3.org/2000/svg"
   xmlns="http://www.w3.org/2000/svg"
   xmlns:sodipodi="http://sodipodi.sourceforge.net/DTD/sodipodi-0.dtd"
   xmlns:inkscape="http://www.inkscape.org/namespaces/inkscape"
   version="1.1"
   width="20"
   height="30"
   id="svg2"
   inkscape:version="0.48.2 r9819"
   sodipodi:docname="Daedric_D.svg">
  <sodipodi:namedview
     pagecolor="#ffffff"
     bordercolor="#666666"
     borderopacity="1"
     objecttolerance="10"
     gridtolerance="10"
     guidetolerance="10"
     inkscape:pageopacity="0"
     inkscape:pageshadow="2"
     inkscape:window-width="1280"
     inkscape:window-height="972"
     id="namedview3002"
     showgrid="false"
     inkscape:zoom="7.8666667"
     inkscape:cx="10"
     inkscape:cy="15"
     inkscape:window-x="-8"
     inkscape:window-y="-8"
     inkscape:window-maximized="1"
     inkscape:current-layer="svg2" />
  <defs
     id="defs2992" />
  <metadata
     id="metadata7">
    <rdf:RDF>
      <cc:Work
         rdf:about="">
        <dc:format>image/svg+xml</dc:format>
        <dc:type
           rdf:resource="http://purl.org/dc/dcmitype/StillImage" />
        <dc:title />
      </cc:Work>
    </rdf:RDF>
  </metadata>
  <g
     transform="translate(-262.5,-531.07648)"
     id="layer1">
    <g
       style="font-size:32px;font-style:normal;font-variant:normal;font-weight:normal;font-stretch:normal;text-align:center;line-height:0%;letter-spacing:0px;word-spacing:0px;text-anchor:middle;fill:#d1d1d1;font-family:Daedric"
       id="text2985">
      <path
         d="m 278.44983,535.94086 -0.125,0.40625 0,0.1875 0.125,0.125 c -0.0208,0.16668 -0.0313,0.32293 -0.0312,0.46875 -1e-5,0.12502 0.0104,0.25002 0.0312,0.375 -0.0833,0.25002 -0.12501,0.47918 -0.125,0.6875 -1e-5,0.20835 0.0417,0.39585 0.125,0.5625 l -0.125,0.125 c -0.0417,0.16668 -0.0625,0.33335 -0.0625,0.5 -1e-5,0.25001 0.0625,0.47918 0.1875,0.6875 -0.0417,0.12501 -0.0625,0.25001 -0.0625,0.375 -1e-5,0.12501 0.0208,0.22918 0.0625,0.3125 -0.0833,0.37501 -0.12501,0.72918 -0.125,1.0625 -1e-5,0.33335 0.0417,0.66668 0.125,1 l -0.15625,0.40625 0.0625,0.125 0.125,0.375 c -0.0625,0.25001 -0.0938,0.47918 -0.0937,0.6875 -1e-5,0.20834 0.0312,0.40626 0.0937,0.59375 -0.10418,0.12501 -0.15626,0.25001 -0.15625,0.375 -1e-5,0.12501 0.0417,0.23959 0.125,0.34375 -0.0417,0.12501 -0.0625,0.25001 -0.0625,0.375 -1e-5,0.16667 0.0417,0.31251 0.125,0.4375 -0.0417,0.12501 -0.0625,0.23959 -0.0625,0.34375 -1e-5,0.12501 0.0208,0.23959 0.0625,0.34375 -0.0625,0.14584 -0.0938,0.29167 -0.0937,0.4375 -1e-5,0.12501 0.0312,0.25001 0.0937,0.375 -0.0833,0.25001 -0.12501,0.48959 -0.125,0.71875 -1e-5,0.20834 0.0417,0.41667 0.125,0.625 -0.12501,0.20834 -0.18751,0.41667 -0.1875,0.625 -1e-5,0.1875 0.0625,0.375 0.1875,0.5625 -0.16668,0.25 -0.25001,0.48959 -0.25,0.71875 -1e-5,0.20834 0.0729,0.40625 0.21875,0.59375 -0.0833,0.16667 -0.12501,0.33334 -0.125,0.5 -1e-5,0.20834 0.0625,0.39583 0.1875,0.5625 -0.0417,0.20833 -0.0625,0.41667 -0.0625,0.625 -1e-5,0.20833 0.0208,0.39583 0.0625,0.5625 -0.0417,0.14583 -0.0625,0.29167 -0.0625,0.4375 -1e-5,0.0833 0.0104,0.16667 0.0312,0.25 -0.14585,0.25 -0.21876,0.5 -0.21875,0.75 -1e-5,0.25 0.0833,0.5 0.25,0.75 -0.12501,0.16666 -0.18751,0.33333 -0.1875,0.5 -1e-5,0.125 0.0312,0.25 0.0937,0.375 -0.14585,0.16666 -0.28126,0.29166 -0.40625,0.375 l -0.28125,-0.1875 c -0.0625,-0.27084 -0.15626,-0.46875 -0.28125,-0.59375 l 0,-0.65625 c -0.0208,-0.25 -0.0313,-0.48958 -0.0312,-0.71875 -1e-5,-0.47917 0.0417,-0.90625 0.125,-1.28125 l -0.125,-0.25 c -1e-5,-0.16667 -1e-5,-0.3125 0,-0.4375 -1e-5,-0.25 0.0208,-0.47917 0.0625,-0.6875 l 0,-0.1875 c -0.14585,-0.22916 -0.2396,-0.44791 -0.28125,-0.65625 l 0,-2.1875 -0.21875,-0.375 0,-0.4375 0.125,-0.34375 -0.125,-0.25 c 0.0417,-0.20833 0.0625,-0.39583 0.0625,-0.5625 -1e-5,-0.29166 -0.0625,-0.54166 -0.1875,-0.75 l -0.125,-0.75 c 0.0417,-0.18749 0.0833,-0.34374 0.125,-0.46875 -0.0417,-0.16666 -0.0625,-0.31249 -0.0625,-0.4375 -1e-5,-0.18749 0.0417,-0.36457 0.125,-0.53125 l -0.21875,-0.34375 c 0.10415,-0.33332 0.15624,-0.64582 0.15625,-0.9375 -1e-5,-0.35416 -0.0729,-0.67707 -0.21875,-0.96875 0.0417,-0.20832 0.0625,-0.40624 0.0625,-0.59375 -1e-5,-0.45832 -0.14585,-0.85415 -0.4375,-1.1875 -0.20835,-1.74998 -1.04168,-2.98957 -2.5,-3.71875 -0.0625,-0.16665 -0.13543,-0.29165 -0.21875,-0.375 l -0.5,0 c -0.70834,-0.33332 -1.41667,-0.49998 -2.125,-0.5 -0.27084,2e-5 -0.54167,0.0208 -0.8125,0.0625 0.12499,0.93752 0.45833,1.70835 1,2.3125 l 0.125,0.3125 0.1875,0 c 0.27083,2e-5 0.51041,0.0417 0.71875,0.125 0.29166,0.20835 0.43749,0.47918 0.4375,0.8125 -0.66667,0.62501 -1.04167,1.33335 -1.125,2.125 -0.29167,0.35418 -0.43751,0.71876 -0.4375,1.09375 -1e-5,0.16668 0.0208,0.33334 0.0625,0.5 l -0.15625,0.3125 c 0.10416,0.35418 0.15624,0.69793 0.15625,1.03125 l 0,0.15625 -0.3125,0.25 c -0.12501,-0.29166 -0.18751,-0.56249 -0.1875,-0.8125 -1e-5,-0.0833 -1e-5,-0.16666 0,-0.25 l -0.5625,-0.40625 c -1e-5,-0.64582 -0.12501,-1.1979 -0.375,-1.65625 l 0,-0.15625 c -1e-5,-0.14582 0.0208,-0.27082 0.0625,-0.375 -0.16667,-0.24999 -0.27084,-0.49999 -0.3125,-0.75 0.12499,-0.24999 0.19791,-0.46874 0.21875,-0.65625 l -0.25,-0.4375 -0.0625,0.1875 c -1e-5,0.37501 -0.0729,0.72918 -0.21875,1.0625 -1e-5,0.12501 -1e-5,0.2396 0,0.34375 -1e-5,0.16668 -0.0208,0.33335 -0.0625,0.5 0.0208,0.16668 0.0312,0.33335 0.0312,0.5 -1e-5,0.25001 -0.0313,0.48959 -0.0937,0.71875 l 0.1875,0.25 -0.0625,0.25 c -1e-5,0.29168 0.0208,0.52084 0.0625,0.6875 -0.0417,0.12501 -0.0625,0.23959 -0.0625,0.34375 l 0.34375,0.5 c -0.0208,0.12501 -0.0313,0.25001 -0.0312,0.375 -1e-5,0.81251 0.37499,1.51042 1.125,2.09375 0.33333,0.93751 0.82291,1.67709 1.46875,2.21875 0.16666,0.45834 0.43749,0.8125 0.8125,1.0625 l 0,0.5625 c 0.14582,0.375 0.21874,0.75 0.21875,1.125 l 0,0.1875 c 0.10416,0.27083 0.23957,0.48958 0.40625,0.65625 -0.0208,0.16667 -0.0313,0.32292 -0.0312,0.46875 -1e-5,0.125 0.0104,0.25 0.0312,0.375 l 0.125,0.0625 c 0.12499,0.20833 0.24999,0.375 0.375,0.5 l 0,0.0625 c -1e-5,0.75 0.20832,1.35416 0.625,1.8125 0.0833,0.125 0.12499,0.22916 0.125,0.3125 -1e-5,0.125 -0.0938,0.1875 -0.28125,0.1875 -0.20834,-0.20834 -0.43751,-0.33334 -0.6875,-0.375 -0.31251,-0.47917 -0.70834,-0.8125 -1.1875,-1 -0.12501,-0.1875 -0.25001,-0.32292 -0.375,-0.40625 -0.37501,-0.54167 -0.77084,-0.9375 -1.1875,-1.1875 -0.29167,-0.5 -0.60417,-0.875 -0.9375,-1.125 -0.12501,-0.375 -0.27084,-0.66666 -0.4375,-0.875 l -0.125,-0.0625 c -0.18751,-0.39583 -0.40626,-0.69791 -0.65625,-0.90625 -0.0625,-0.25 -0.0937,-0.45833 -0.0937,-0.625 -0.25,-0.47916 -0.39584,-0.90625 -0.4375,-1.28125 -0.125,-0.16666 -0.23959,-0.29166 -0.34375,-0.375 -0.0833,-0.58333 -0.25,-1.06249 -0.5,-1.4375 l 0,-0.125 c 0,-0.33333 -0.0729,-0.62499 -0.21875,-0.875 l 0,-1.875 -0.21875,-0.25 c -0.0417,-0.35416 -0.0625,-0.69791 -0.0625,-1.03125 0,-1.20832 0.20833,-2.31249 0.625,-3.3125 0,-0.10415 0,-0.1979 0,-0.28125 0,-0.20832 0.0208,-0.39582 0.0625,-0.5625 0.20833,-0.20832 0.375,-0.41665 0.5,-0.625 l 0.21875,-0.875 0.0625,-0.25 0.34375,-0.375 0.21875,-0.75 c 0.12499,-0.10415 0.18749,-0.21873 0.1875,-0.34375 0.16666,-0.16665 0.29166,-0.34373 0.375,-0.53125 0.14583,-0.0833 0.28124,-0.16665 0.40625,-0.25 l 2.09375,0 0.375,-0.125 0.21875,0.125 0.75,0 c 0.29166,2e-5 0.52082,-0.0417 0.6875,-0.125 l 0.375,-0.0625 c 0.45832,0.0417 0.84374,0.10419 1.15625,0.1875 l 0.15625,0 c 0.45832,-0.12498 0.87499,-0.18748 1.25,-0.1875 l 0.15625,0 c 0.29165,0.12502 0.56249,0.18752 0.8125,0.1875 l 0.15625,0 0.375,0.53125 0,0 0,-0.0312 z"
         style=""
         id="path3005" />
    </g>
  </g>
</svg>
