<?xml version="1.0" encoding="UTF-8" standalone="no"?>
<!-- Created with Inkscape (http://www.inkscape.org/) -->

<svg
   xmlns:dc="http://purl.org/dc/elements/1.1/"
   xmlns:cc="http://creativecommons.org/ns#"
   xmlns:rdf="http://www.w3.org/1999/02/22-rdf-syntax-ns#"
   xmlns:svg="http://www.w3.org/2000/svg"
   xmlns="http://www.w3.org/2000/svg"
   xmlns:sodipodi="http://sodipodi.sourceforge.net/DTD/sodipodi-0.dtd"
   xmlns:inkscape="http://www.inkscape.org/namespaces/inkscape"
   version="1.1"
   width="20"
   height="30"
   id="svg2"
   inkscape:version="0.48.2 r9819"
   sodipodi:docname="Daedric_E.svg">
  <sodipodi:namedview
     pagecolor="#ffffff"
     bordercolor="#666666"
     borderopacity="1"
     objecttolerance="10"
     gridtolerance="10"
     guidetolerance="10"
     inkscape:pageopacity="0"
     inkscape:pageshadow="2"
     inkscape:window-width="1280"
     inkscape:window-height="972"
     id="namedview3013"
     showgrid="false"
     inkscape:zoom="7.8666667"
     inkscape:cx="10"
     inkscape:cy="15"
     inkscape:window-x="-8"
     inkscape:window-y="-8"
     inkscape:window-maximized="1"
     inkscape:current-layer="svg2" />
  <defs
     id="defs2992" />
  <metadata
     id="metadata7">
    <rdf:RDF>
      <cc:Work
         rdf:about="">
        <dc:format>image/svg+xml</dc:format>
        <dc:type
           rdf:resource="http://purl.org/dc/dcmitype/StillImage" />
        <dc:title />
      </cc:Work>
    </rdf:RDF>
  </metadata>
  <g
     transform="translate(-262.5,-531.07648)"
     id="layer1">
    <g
       style="font-size:32px;font-style:normal;font-variant:normal;font-weight:normal;font-stretch:normal;text-align:center;line-height:0%;letter-spacing:0px;word-spacing:0px;text-anchor:middle;fill:#d1d1d1;font-family:Daedric"
       id="text2985">
      <path
         d="m 269.10608,535.19086 c 0.22916,0.14585 0.49999,0.26044 0.8125,0.34375 0.24999,2e-5 0.48958,-0.0729 0.71875,-0.21875 l 0.40625,0 c 0.29166,0.0833 0.59374,0.12502 0.90625,0.125 0.31249,2e-5 0.63541,-0.0417 0.96875,-0.125 l 0.1875,0.0625 0.25,-0.1875 c 0.20832,0.0833 0.42707,0.12502 0.65625,0.125 l 0.125,0.125 c 0.0625,2e-5 0.12499,2e-5 0.1875,0 0.16666,2e-5 0.34374,-0.0208 0.53125,-0.0625 0.20832,-0.0417 0.43749,-0.0625 0.6875,-0.0625 0.33332,2e-5 0.70832,0.0417 1.125,0.125 0.27082,-0.0833 0.62499,-0.1354 1.0625,-0.15625 l 0.34375,0.0625 0.9375,0.125 0.1875,0 0.1875,0.0625 0,0 c -2e-5,0.0417 0.0208,0.0833 0.0625,0.125 l 0,0.0937 c -2e-5,0.16669 0.0417,0.35418 0.125,0.5625 -0.0833,0.27085 -0.12502,0.59377 -0.125,0.96875 l 0.125,0.21875 0,1.375 c -0.0208,0.0833 -0.0313,0.16668 -0.0312,0.25 -2e-5,0.0833 0.0104,0.18752 0.0312,0.3125 l 0,1.6875 0.0625,0.1875 -0.0625,1.15625 0,7.96875 c -2e-5,0.25 -0.10418,0.52084 -0.3125,0.8125 -0.0833,-0.0417 -0.1771,-0.10416 -0.28125,-0.1875 -0.0833,-1.27083 -0.63543,-2.46874 -1.65625,-3.59375 -0.16668,-0.0417 -0.3646,-0.0625 -0.59375,-0.0625 -0.0833,10e-6 -0.16668,10e-6 -0.25,0 -0.29168,-0.16666 -0.64585,-0.28124 -1.0625,-0.34375 -1e-5,-0.0417 -0.0313,-0.0833 -0.0937,-0.125 l -0.125,-0.0625 c -0.0625,10e-6 -0.13543,10e-6 -0.21875,0 -0.18751,10e-6 -0.38543,-0.0208 -0.59375,-0.0625 l -0.4375,0.125 -0.40625,0.25 -2.4375,0 -1.28125,0.125 -0.0625,0.125 -0.625,0 c -0.75,0.58334 -1.125,1.27084 -1.125,2.0625 0,0.10417 0,0.21875 0,0.34375 -0.0417,0.125 -0.0625,0.27084 -0.0625,0.4375 0,0.0833 0,0.16667 0,0.25 l -0.0625,0.34375 c 0.0625,0.0833 0.13541,0.16667 0.21875,0.25 -0.0417,0.16667 -0.0625,0.33334 -0.0625,0.5 0,0.41667 0.13541,0.8125 0.40625,1.1875 l -0.125,0.375 c 0.0417,0.20833 0.13541,0.4375 0.28125,0.6875 l 0.0625,0.1875 0,0.34375 c 0.14583,0.16667 0.28124,0.39583 0.40625,0.6875 0.33333,0.29167 0.73958,0.4375 1.21875,0.4375 l 0.0625,0 c 0.91666,0.54166 1.95832,0.8125 3.125,0.8125 0.12499,0 0.24999,0 0.375,0 l 0.40625,0.1875 c 0.12499,-0.16667 0.32291,-0.26042 0.59375,-0.28125 0.12499,0.0833 0.29166,0.16666 0.5,0.25 0.20832,-0.0417 0.43749,-0.0625 0.6875,-0.0625 0.24999,0 0.52082,0.0208 0.8125,0.0625 l 0.46875,0 0.125,0.0625 c 0.24999,0.0833 0.48957,0.20833 0.71875,0.375 0.16665,0 0.37499,0.0417 0.625,0.125 l 0.125,0.0625 -0.0625,0.3125 c -0.25002,0.0833 -0.52085,0.125 -0.8125,0.125 -0.18751,0 -0.38543,-0.0208 -0.59375,-0.0625 -0.10418,0.0417 -0.21876,0.0625 -0.34375,0.0625 -0.12501,0 -0.25001,-0.0208 -0.375,-0.0625 -0.12501,0.0417 -0.25001,0.0625 -0.375,0.0625 -0.0833,0 -0.16668,0 -0.25,0 l -0.5625,0.0625 c -0.10418,-0.0417 -0.20835,-0.0625 -0.3125,-0.0625 -0.10418,0 -0.21876,0.0208 -0.34375,0.0625 l -0.1875,-0.0625 -0.125,-0.0625 -0.46875,0.125 -0.25,-0.125 -0.1875,0.125 -0.3125,0 -0.1875,-0.125 -1.0625,0.125 -0.1875,0 -0.1875,-0.125 -0.40625,0.125 -0.375,-0.125 -0.34375,0.125 -0.3125,-0.125 -0.28125,0.125 c -0.12501,-0.0417 -0.27084,-0.0625 -0.4375,-0.0625 -0.16667,0 -0.33334,0.0208 -0.5,0.0625 -0.0833,-0.0208 -0.16667,-0.0312 -0.25,-0.0312 -0.10417,0 -0.20834,0.0104 -0.3125,0.0312 -0.25,-0.0833 -0.53125,-0.125 -0.84375,-0.125 -0.0833,0 -0.16667,0 -0.25,0 l -0.875,0 -0.34375,-0.1875 c -0.0833,-0.20834 -0.125,-0.4375 -0.125,-0.6875 0,-0.16667 0.0208,-0.33334 0.0625,-0.5 l -0.0625,-0.125 -0.0625,-0.125 c 0.0417,-0.14583 0.0625,-0.29167 0.0625,-0.4375 0,-0.14583 -0.0208,-0.29167 -0.0625,-0.4375 0.0833,-0.20833 0.125,-0.41667 0.125,-0.625 0,-0.22917 -0.0417,-0.45833 -0.125,-0.6875 0.0625,-0.125 0.0937,-0.25 0.0937,-0.375 0,-0.125 -0.0312,-0.25 -0.0937,-0.375 l 0.125,-0.25 -0.125,-0.5625 c 0.0417,-0.0833 0.0625,-0.17708 0.0625,-0.28125 0,-0.125 -0.0208,-0.25 -0.0625,-0.375 l 0.125,-0.4375 -0.125,-0.25 0.125,-0.3125 0,-0.5 c -0.0417,-0.10416 -0.0625,-0.20833 -0.0625,-0.3125 0,-0.10416 0.0208,-0.21875 0.0625,-0.34375 l -0.125,-0.4375 0.125,-0.375 c -0.0833,-0.22916 -0.125,-0.48958 -0.125,-0.78125 0,-0.12499 0,-0.24999 0,-0.375 l 0.125,-0.34375 -0.25,-0.4375 c 0.10416,-0.20833 0.15625,-0.42708 0.15625,-0.65625 0,-0.20832 -0.0521,-0.43749 -0.15625,-0.6875 l 0.1875,-0.1875 -0.125,-1.09375 0.0625,-0.1875 c 0,-0.12499 -0.0312,-0.24999 -0.0937,-0.375 0.0833,-0.27082 0.125,-0.57291 0.125,-0.90625 0,-0.10415 0,-0.20832 0,-0.3125 l -0.125,-0.46875 c 0,-0.12499 0.0208,-0.27082 0.0625,-0.4375 0.375,0.0417 0.72916,0.27085 1.0625,0.6875 0,0.14585 0.0729,0.28126 0.21875,0.40625 0,0.0833 0,0.16668 0,0.25 0,0.22918 -0.0417,0.44793 -0.125,0.65625 0.3125,0.45834 0.76041,0.78126 1.34375,0.96875 0.22916,0.37501 0.55208,0.56251 0.96875,0.5625 0.12499,10e-6 0.27083,-0.0208 0.4375,-0.0625 0.24999,0.12501 0.51041,0.18751 0.78125,0.1875 0.29166,10e-6 0.58333,-0.0625 0.875,-0.1875 l 1.46875,0.125 0.1875,0.125 c 0.12499,-0.10416 0.28124,-0.17707 0.46875,-0.21875 0.39582,0.12501 0.78124,0.18751 1.15625,0.1875 0.74999,10e-6 1.43749,-0.27082 2.0625,-0.8125 0.45832,-0.20832 0.68749,-0.54166 0.6875,-1 -1e-5,-0.0833 -0.0104,-0.17707 -0.0312,-0.28125 0.10415,-0.12499 0.15624,-0.2604 0.15625,-0.40625 -1e-5,-0.12499 -0.0417,-0.2604 -0.125,-0.40625 0.14582,-0.31249 0.21874,-0.68749 0.21875,-1.125 -1e-5,-0.16665 -0.0104,-0.35415 -0.0312,-0.5625 -0.12501,-0.20832 -0.18751,-0.4479 -0.1875,-0.71875 -1e-5,-0.16665 0.0208,-0.34373 0.0625,-0.53125 -0.16668,-0.24998 -0.25001,-0.56248 -0.25,-0.9375 l 0,-0.125 c -0.20835,-0.0833 -0.45835,-0.12498 -0.75,-0.125 l -0.1875,0 c -0.12501,-0.16665 -0.31251,-0.33332 -0.5625,-0.5 -0.0833,-0.12498 -0.20835,-0.24998 -0.375,-0.375 -0.0417,2e-5 -0.0833,2e-5 -0.125,0 -0.16668,2e-5 -0.33334,-0.0417 -0.5,-0.125 -0.0833,2e-5 -0.16668,2e-5 -0.25,0 -0.25001,2e-5 -0.52084,-0.0417 -0.8125,-0.125 l -0.46875,0.125 -0.46875,-0.34375 c -0.25001,2e-5 -0.56251,-0.0417 -0.9375,-0.125 -0.0833,0.0417 -0.17709,0.0625 -0.28125,0.0625 -0.10417,2e-5 -0.21876,-0.0208 -0.34375,-0.0625 l -0.34375,0.125 c -0.20834,-0.0625 -0.43751,-0.0937 -0.6875,-0.0937 -0.25001,2e-5 -0.53126,0.0313 -0.84375,0.0937 -0.20834,-0.0417 -0.41667,-0.0625 -0.625,-0.0625 -0.20834,2e-5 -0.42709,0.0208 -0.65625,0.0625 l -0.34375,-0.125 -0.3125,0.125 c -0.0833,-0.0417 -0.1875,-0.0625 -0.3125,-0.0625 -0.125,2e-5 -0.26042,0.0208 -0.40625,0.0625 -0.10417,-0.0417 -0.21875,-0.0625 -0.34375,-0.0625 -0.0625,2e-5 -0.11459,2e-5 -0.15625,0 l -0.1875,-0.0625 c 0,-0.0625 0,-0.12498 0,-0.1875 0,-0.24998 0.0833,-0.48956 0.25,-0.71875 0.14583,0.0417 0.29166,0.0625 0.4375,0.0625 0.16666,2e-5 0.32291,-0.0208 0.46875,-0.0625 0.16666,0.0833 0.34375,0.12502 0.53125,0.125 0.27083,2e-5 0.55208,-0.0729 0.84375,-0.21875 0.0625,2e-5 0.13541,2e-5 0.21875,0 0.12499,2e-5 0.24999,-0.0208 0.375,-0.0625 l 0,0 0,0 0,-0.0312 z"
         style=""
         id="path3016" />
    </g>
  </g>
</svg>
