<?xml version="1.0" encoding="UTF-8" standalone="no"?>
<!-- Created with Inkscape (http://www.inkscape.org/) -->

<svg
   xmlns:dc="http://purl.org/dc/elements/1.1/"
   xmlns:cc="http://creativecommons.org/ns#"
   xmlns:rdf="http://www.w3.org/1999/02/22-rdf-syntax-ns#"
   xmlns:svg="http://www.w3.org/2000/svg"
   xmlns="http://www.w3.org/2000/svg"
   xmlns:sodipodi="http://sodipodi.sourceforge.net/DTD/sodipodi-0.dtd"
   xmlns:inkscape="http://www.inkscape.org/namespaces/inkscape"
   version="1.1"
   width="20"
   height="30"
   id="svg2"
   inkscape:version="0.48.2 r9819"
   sodipodi:docname="Daedric_F.svg">
  <sodipodi:namedview
     pagecolor="#ffffff"
     bordercolor="#666666"
     borderopacity="1"
     objecttolerance="10"
     gridtolerance="10"
     guidetolerance="10"
     inkscape:pageopacity="0"
     inkscape:pageshadow="2"
     inkscape:window-width="1280"
     inkscape:window-height="972"
     id="namedview3024"
     showgrid="false"
     inkscape:zoom="7.8666667"
     inkscape:cx="10"
     inkscape:cy="15"
     inkscape:window-x="-8"
     inkscape:window-y="-8"
     inkscape:window-maximized="1"
     inkscape:current-layer="svg2" />
  <defs
     id="defs2992" />
  <metadata
     id="metadata7">
    <rdf:RDF>
      <cc:Work
         rdf:about="">
        <dc:format>image/svg+xml</dc:format>
        <dc:type
           rdf:resource="http://purl.org/dc/dcmitype/StillImage" />
        <dc:title />
      </cc:Work>
    </rdf:RDF>
  </metadata>
  <g
     transform="translate(-262.5,-531.07648)"
     id="layer1">
    <g
       style="font-size:32px;font-style:normal;font-variant:normal;font-weight:normal;font-stretch:normal;text-align:center;line-height:0%;letter-spacing:0px;word-spacing:0px;text-anchor:middle;fill:#d1d1d1;font-family:Daedric"
       id="text2985">
      <path
         d="m 266.01233,535.12836 c 0.33333,0.0833 0.67708,0.12502 1.03125,0.125 0.35416,2e-5 0.71874,-0.0417 1.09375,-0.125 l 3.875,0 c 0.16666,0.0417 0.35416,0.0625 0.5625,0.0625 0.20832,2e-5 0.43749,-0.0208 0.6875,-0.0625 l 5.8125,0 c 0.33332,2e-5 0.70832,0.0625 1.125,0.1875 -0.0417,0.20835 -0.1771,0.39585 -0.40625,0.5625 -0.0417,2e-5 -0.0833,2e-5 -0.125,0 -0.16668,2e-5 -0.33335,0.0208 -0.5,0.0625 l -0.6875,0.78125 c -0.31252,0.20835 -0.7396,0.43752 -1.28125,0.6875 l -0.125,0.125 c -0.12501,0.12502 -0.27085,0.26043 -0.4375,0.40625 l -0.0625,0.125 c -0.16668,0.10418 -0.38543,0.1771 -0.65625,0.21875 l -0.125,0.125 -0.90625,1.3125 c -0.16668,0.16668 -0.38543,0.33335 -0.65625,0.5 -0.12501,0.20835 -0.22918,0.47918 -0.3125,0.8125 -0.22918,0.16668 -0.44793,0.41668 -0.65625,0.75 l 0,0.0937 c -1e-5,0.16668 0.0417,0.35418 0.125,0.5625 l 0.4375,-0.125 c 0.12499,0.0417 0.24999,0.0625 0.375,0.0625 0.14582,10e-6 0.29165,-0.0208 0.4375,-0.0625 l 0.375,0.125 0.1875,-0.125 0.25,0.0625 0.1875,0.0625 0.1875,-0.125 0.3125,0 0.1875,0.125 c 0.12499,-0.0417 0.27082,-0.0625 0.4375,-0.0625 0.16665,10e-6 0.33332,0.0208 0.5,0.0625 l 0.25,-0.1875 c 0.29165,0.10418 0.64582,0.15626 1.0625,0.15625 0.16665,10e-6 0.34373,-0.0104 0.53125,-0.0312 l 0.125,0.0625 0.1875,0 0.0625,-0.125 c 0.27082,0.0625 0.61457,0.10418 1.03125,0.125 l 0.125,0.375 c -0.0417,0.12501 -0.0625,0.25001 -0.0625,0.375 -2e-5,0.12501 0.0208,0.26043 0.0625,0.40625 l 0,0.4375 c -0.0833,0.20834 -0.12502,0.45834 -0.125,0.75 l 0.125,0.3125 -0.125,0.125 0,0.1875 0.125,0.3125 0,0.375 0.125,0.25 c -0.14585,0.33334 -0.21877,0.68751 -0.21875,1.0625 -2e-5,0.29167 0.0521,0.60417 0.15625,0.9375 -0.0833,0.20834 -0.12502,0.43751 -0.125,0.6875 -2e-5,0.16667 0.0208,0.33334 0.0625,0.5 l -0.3125,0.3125 c -0.10418,0 -0.19793,-0.0417 -0.28125,-0.125 -2e-5,-0.29166 -0.0938,-0.56249 -0.28125,-0.8125 l 0,-0.0625 c -2e-5,-0.37499 -0.14585,-0.74999 -0.4375,-1.125 -0.0833,-0.58333 -0.33335,-1.14583 -0.75,-1.6875 -0.0417,10e-6 -0.0938,10e-6 -0.15625,0 -0.25002,10e-6 -0.52085,-0.0625 -0.8125,-0.1875 l -0.0937,0 c -0.12501,10e-6 -0.25001,-0.0208 -0.375,-0.0625 l -0.78125,0 -0.40625,-0.25 c -0.12501,0.0417 -0.27085,0.0625 -0.4375,0.0625 -0.16668,10e-6 -0.33335,-0.0208 -0.5,-0.0625 l -0.5,0.1875 -0.4375,-0.0625 -0.8125,-0.0625 -0.1875,0.0625 -0.1875,0 -0.1875,-0.0625 -0.65625,0.1875 c -0.20834,-0.0417 -0.42709,-0.0625 -0.65625,-0.0625 -0.10418,10e-6 -0.20834,10e-6 -0.3125,0 -0.16668,0.25001 -0.34376,0.59376 -0.53125,1.03125 l -0.3125,0.3125 -0.125,0.25 -0.0625,0.1875 -0.125,0.1875 c 0.0417,0.0833 0.0625,0.16667 0.0625,0.25 -1e-5,0.10417 -0.0208,0.20834 -0.0625,0.3125 -0.66667,0.60417 -1.00001,1.38542 -1,2.34375 l 0,0.0625 c -0.43751,0.375 -0.65626,0.88542 -0.65625,1.53125 -0.20834,0.33334 -0.31251,0.73958 -0.3125,1.21875 l 0,0.0625 c -0.18751,0.33333 -0.28126,0.72917 -0.28125,1.1875 -0.12501,0.1875 -0.21875,0.44792 -0.28125,0.78125 -0.29167,0.5 -0.45834,1.10416 -0.5,1.8125 l -0.125,0.1875 c -0.0833,0.20833 -0.1875,0.3125 -0.3125,0.3125 -0.0833,0 -0.16667,-0.0312 -0.25,-0.0937 l 0,-0.59375 c 0.0625,-0.1875 0.0937,-0.42709 0.0937,-0.71875 l 0.0625,-0.125 0.0625,-0.3125 c -0.0833,-0.125 -0.125,-0.27083 -0.125,-0.4375 l 0,-0.0937 0.125,-0.25 c -0.0833,-0.125 -0.14584,-0.28125 -0.1875,-0.46875 0.125,-0.29167 0.1875,-0.625 0.1875,-1 l 0,-0.0937 c 0.0833,-0.1875 0.125,-0.38542 0.125,-0.59375 0,-0.125 -0.0208,-0.26041 -0.0625,-0.40625 0.125,-0.1875 0.20833,-0.42708 0.25,-0.71875 l 0.125,-0.375 0.125,-0.0625 0,-0.1875 c 0.0417,0 0.0833,-0.0417 0.125,-0.125 l 0.0625,-0.25 0.0625,-0.1875 0.0625,-0.25 0.125,-0.125 0,-0.5 c 0.12499,-0.25 0.20833,-0.56249 0.25,-0.9375 l 0.125,-0.25 0.0625,-0.1875 0.1875,-0.25 0,-0.3125 0.125,-0.3125 c -0.0417,-0.12499 -0.0625,-0.26041 -0.0625,-0.40625 -1e-5,-0.0625 -1e-5,-0.13541 0,-0.21875 0.29166,-0.37499 0.49999,-0.86457 0.625,-1.46875 0.58333,-0.70832 0.95833,-1.56249 1.125,-2.5625 0.39583,-0.33332 0.71874,-0.81249 0.96875,-1.4375 0.52082,-0.35415 0.89582,-0.87499 1.125,-1.5625 0.24999,-0.16665 0.45832,-0.39582 0.625,-0.6875 l 0.1875,-0.1875 0.25,-0.25 c 0.24999,-0.20832 0.47916,-0.49998 0.6875,-0.875 0.0417,-0.33332 0.20832,-0.6354 0.5,-0.90625 l -0.0625,-0.1875 c -0.12501,0.0208 -0.26043,0.0313 -0.40625,0.0312 -0.14584,2e-5 -0.30209,-0.0104 -0.46875,-0.0312 -0.12501,0.0208 -0.27084,0.0625 -0.4375,0.125 l -0.40625,-0.0625 -0.1875,0.0625 c -0.39584,-0.0833 -0.80209,-0.12498 -1.21875,-0.125 -0.91667,2e-5 -1.85417,0.18752 -2.8125,0.5625 -0.16667,0.25002 -0.40626,0.4896 -0.71875,0.71875 l -0.0625,0.1875 -0.0625,0.1875 -0.375,0.3125 -0.125,0.1875 c -0.0208,0.25002 -0.13542,0.51043 -0.34375,0.78125 0,0.20835 0.0417,0.43751 0.125,0.6875 l 0,0.1875 -0.3125,1.0625 -0.0625,0.1875 0,0.4375 c -0.125,0.16668 -0.3125,0.25001 -0.5625,0.25 l -0.25,-0.3125 c 0.0417,-0.12499 0.0625,-0.24999 0.0625,-0.375 0,-0.12499 -0.0208,-0.24999 -0.0625,-0.375 0.0417,-0.12499 0.0625,-0.27082 0.0625,-0.4375 0,-0.0833 0,-0.16665 0,-0.25 l 0.0625,-0.125 0.125,-0.1875 0,-0.0625 c 0,-0.33332 -0.0833,-0.68749 -0.25,-1.0625 0.0625,-0.20832 0.0937,-0.43748 0.0937,-0.6875 0,-0.24998 -0.0312,-0.49998 -0.0937,-0.75 0.0417,-0.12498 0.0625,-0.24998 0.0625,-0.375 l 0,0 c 0,-0.0417 -0.0208,-0.0729 -0.0625,-0.0937 l 0.0625,-0.25 0.0625,-0.1875 c -0.0833,-0.16665 -0.125,-0.37498 -0.125,-0.625 l 0.0625,-0.3125 -0.0625,-0.375 c 0.125,-0.29165 0.33333,-0.53123 0.625,-0.71875 l 0,0 0,0 0,-0.0312 z"
         style=""
         id="path3027" />
    </g>
  </g>
</svg>
