<?xml version="1.0" encoding="UTF-8" standalone="no"?>
<!-- Created with Inkscape (http://www.inkscape.org/) -->

<svg
   xmlns:dc="http://purl.org/dc/elements/1.1/"
   xmlns:cc="http://creativecommons.org/ns#"
   xmlns:rdf="http://www.w3.org/1999/02/22-rdf-syntax-ns#"
   xmlns:svg="http://www.w3.org/2000/svg"
   xmlns="http://www.w3.org/2000/svg"
   xmlns:sodipodi="http://sodipodi.sourceforge.net/DTD/sodipodi-0.dtd"
   xmlns:inkscape="http://www.inkscape.org/namespaces/inkscape"
   version="1.1"
   width="20"
   height="30"
   id="svg2"
   inkscape:version="0.48.2 r9819"
   sodipodi:docname="Daedric_G.svg">
  <sodipodi:namedview
     pagecolor="#ffffff"
     bordercolor="#666666"
     borderopacity="1"
     objecttolerance="10"
     gridtolerance="10"
     guidetolerance="10"
     inkscape:pageopacity="0"
     inkscape:pageshadow="2"
     inkscape:window-width="1280"
     inkscape:window-height="972"
     id="namedview3035"
     showgrid="false"
     inkscape:zoom="7.8666667"
     inkscape:cx="10"
     inkscape:cy="15"
     inkscape:window-x="-8"
     inkscape:window-y="-8"
     inkscape:window-maximized="1"
     inkscape:current-layer="svg2" />
  <defs
     id="defs2992" />
  <metadata
     id="metadata7">
    <rdf:RDF>
      <cc:Work
         rdf:about="">
        <dc:format>image/svg+xml</dc:format>
        <dc:type
           rdf:resource="http://purl.org/dc/dcmitype/StillImage" />
        <dc:title />
      </cc:Work>
    </rdf:RDF>
  </metadata>
  <g
     transform="translate(-262.5,-531.07648)"
     id="layer1">
    <g
       style="font-size:32px;font-style:normal;font-variant:normal;font-weight:normal;font-stretch:normal;text-align:center;line-height:0%;letter-spacing:0px;word-spacing:0px;text-anchor:middle;fill:#d1d1d1;font-family:Daedric"
       id="text2985">
      <path
         d="m 270.13733,535.25336 0.3125,0.125 6.28125,0 c 0.27082,2e-5 0.59374,0.0417 0.96875,0.125 -1e-5,0.12502 -0.0313,0.27085 -0.0937,0.4375 -0.66668,0.33335 -1.00001,0.89585 -1,1.6875 l 0,0.1875 c 0.20832,0.29168 0.37499,0.66668 0.5,1.125 0.0833,0.10418 0.14582,0.2396 0.1875,0.40625 l 0.125,0.0937 0.0937,0.21875 c 0.0417,0.14585 0.12499,0.33335 0.25,0.5625 l 0,0.125 c -1e-5,0.33335 0.0833,0.68751 0.25,1.0625 -1e-5,0.0417 -1e-5,0.0938 0,0.15625 -1e-5,0.0833 -1e-5,0.16668 0,0.25 l 0.15625,0.15625 -0.125,0.9375 0.0625,0.375 -0.0625,0.125 0.125,0.3125 c -0.0417,0.29168 -0.14585,0.57293 -0.3125,0.84375 l 0.125,0.40625 c -0.0417,0.16668 -0.1146,0.33334 -0.21875,0.5 l 0,1.125 c -0.27085,0.33334 -0.46876,0.77084 -0.59375,1.3125 -0.0417,10e-6 -0.0833,0.0313 -0.125,0.0937 l -0.15625,0.125 c -0.0833,0.18751 -0.20835,0.42709 -0.375,0.71875 l -0.15625,0.0937 c -1e-5,0.0833 -1e-5,0.16667 0,0.25 -1e-5,0.25 -0.0417,0.54167 -0.125,0.875 l 0,0.125 c -0.0833,0.125 -0.20835,0.21875 -0.375,0.28125 -0.0417,0.16667 -0.12501,0.375 -0.25,0.625 l -0.0625,0.0937 c -0.12501,0.125 -0.20835,0.27084 -0.25,0.4375 l -0.40625,0.40625 c -0.0417,0.29167 -0.14584,0.625 -0.3125,1 -0.27084,0.16667 -0.40626,0.41667 -0.40625,0.75 -0.41668,0.29167 -0.68751,0.70833 -0.8125,1.25 l -0.125,0.1875 c -0.12501,0.125 -0.20834,0.29167 -0.25,0.5 -0.47918,0.39583 -0.85418,0.94791 -1.125,1.65625 -0.16667,0.0417 -0.35417,0.0625 -0.5625,0.0625 -0.20834,0 -0.43751,-0.0208 -0.6875,-0.0625 l 0,-0.3125 c 0.29166,-0.25 0.54166,-0.58334 0.75,-1 0.12499,-0.0833 0.26041,-0.1875 0.40625,-0.3125 l 0.0625,-0.46875 0.125,-0.3125 c 0.31249,-0.25 0.55207,-0.60417 0.71875,-1.0625 l 0.375,-0.46875 0.125,-0.125 c -1e-5,-0.25 0.0625,-0.5 0.1875,-0.75 l 0,-0.375 0.0937,-0.375 0,-0.21875 c 0.0417,-0.0417 0.0625,-0.10416 0.0625,-0.1875 0.29166,-0.29166 0.45832,-0.69791 0.5,-1.21875 0.33332,-0.52083 0.52082,-1.11458 0.5625,-1.78125 0.0833,-0.10416 0.15624,-0.21874 0.21875,-0.34375 l -0.0625,-0.46875 0.3125,-0.40625 c 0.0417,-0.24999 0.0625,-0.54166 0.0625,-0.875 l 0,-1.125 0.0625,-0.1875 c -1e-5,-0.14582 -0.0313,-0.32291 -0.0937,-0.53125 -0.0208,-0.16666 -0.0313,-0.35416 -0.0312,-0.5625 l -0.0625,-0.15625 0.15625,-0.375 -0.15625,-0.1875 c -1e-5,-0.0625 -1e-5,-0.12499 0,-0.1875 -1e-5,-0.12499 -0.0208,-0.24999 -0.0625,-0.375 0.0417,-0.12499 0.0625,-0.2604 0.0625,-0.40625 -1e-5,-0.0833 -1e-5,-0.16665 0,-0.25 -0.10418,-0.27082 -0.17709,-0.64582 -0.21875,-1.125 l 0,-0.25 c -0.0833,-0.12499 -0.13543,-0.27082 -0.15625,-0.4375 -0.0417,-0.12499 -0.11459,-0.24999 -0.21875,-0.375 l 0,-0.15625 -0.125,-0.125 0,-0.5 c -0.54168,-0.37498 -0.89584,-0.8229 -1.0625,-1.34375 l -0.0937,-0.0625 -0.15625,-0.0625 -0.15625,-0.15625 -4.46875,0 0,0.15625 -0.15625,0.25 c -0.20834,0.12502 -0.375,0.31252 -0.5,0.5625 -0.10417,0.0833 -0.20834,0.20835 -0.3125,0.375 l -0.125,0.0937 c -0.0833,0.37502 -0.29167,0.75001 -0.625,1.125 l -0.0625,0.4375 -0.15625,0.15625 c -0.22917,-0.0833 -0.34375,-0.24999 -0.34375,-0.5 0,-0.0833 0.0104,-0.16665 0.0312,-0.25 0.0417,-0.18749 0.0625,-0.3854 0.0625,-0.59375 0,-0.24998 -0.0417,-0.52082 -0.125,-0.8125 0.0417,-0.16665 0.0625,-0.33332 0.0625,-0.5 0,-0.24998 -0.0312,-0.52082 -0.0937,-0.8125 0.0625,-0.20832 0.0937,-0.42707 0.0937,-0.65625 0,-0.16665 -0.0208,-0.33332 -0.0625,-0.5 0.0833,-0.16665 0.15625,-0.37498 0.21875,-0.625 l 0.375,-0.125 3.3125,0 0.15625,-0.125 0,0 0,-0.0312 z"
         style=""
         id="path3038" />
    </g>
  </g>
</svg>
