<?xml version="1.0" encoding="UTF-8" standalone="no"?>
<!-- Created with Inkscape (http://www.inkscape.org/) -->

<svg
   xmlns:dc="http://purl.org/dc/elements/1.1/"
   xmlns:cc="http://creativecommons.org/ns#"
   xmlns:rdf="http://www.w3.org/1999/02/22-rdf-syntax-ns#"
   xmlns:svg="http://www.w3.org/2000/svg"
   xmlns="http://www.w3.org/2000/svg"
   xmlns:sodipodi="http://sodipodi.sourceforge.net/DTD/sodipodi-0.dtd"
   xmlns:inkscape="http://www.inkscape.org/namespaces/inkscape"
   version="1.1"
   width="20"
   height="30"
   id="svg2"
   inkscape:version="0.48.2 r9819"
   sodipodi:docname="Daedric_H.svg">
  <sodipodi:namedview
     pagecolor="#ffffff"
     bordercolor="#666666"
     borderopacity="1"
     objecttolerance="10"
     gridtolerance="10"
     guidetolerance="10"
     inkscape:pageopacity="0"
     inkscape:pageshadow="2"
     inkscape:window-width="1280"
     inkscape:window-height="972"
     id="namedview3046"
     showgrid="false"
     inkscape:zoom="7.8666667"
     inkscape:cx="10"
     inkscape:cy="15"
     inkscape:window-x="-8"
     inkscape:window-y="-8"
     inkscape:window-maximized="1"
     inkscape:current-layer="svg2" />
  <defs
     id="defs2992" />
  <metadata
     id="metadata7">
    <rdf:RDF>
      <cc:Work
         rdf:about="">
        <dc:format>image/svg+xml</dc:format>
        <dc:type
           rdf:resource="http://purl.org/dc/dcmitype/StillImage" />
        <dc:title />
      </cc:Work>
    </rdf:RDF>
  </metadata>
  <g
     transform="translate(-262.5,-531.07648)"
     id="layer1">
    <g
       style="font-size:32px;font-style:normal;font-variant:normal;font-weight:normal;font-stretch:normal;text-align:center;line-height:0%;letter-spacing:0px;word-spacing:0px;text-anchor:middle;fill:#d1d1d1;font-family:Daedric"
       id="text2985">
      <path
         d="m 277.01233,545.40961 -0.84375,0.84375 c -0.16668,0.16667 -0.31251,0.37501 -0.4375,0.625 l -0.25,0.1875 c -0.0417,0.12501 -0.0625,0.27084 -0.0625,0.4375 -1e-5,0.0833 -1e-5,0.16667 0,0.25 -0.18751,0.20834 -0.28126,0.47917 -0.28125,0.8125 l -0.0625,0.15625 c -0.20834,0.16667 -0.39584,0.37501 -0.5625,0.625 l 0,0.1875 c 0.0833,0.0417 0.12499,0.10417 0.125,0.1875 -1e-5,0.0417 -1e-5,0.0833 0,0.125 -0.45834,0.29167 -0.76043,0.75 -0.90625,1.375 -0.37501,0.41667 -0.64584,0.9375 -0.8125,1.5625 -0.0417,0 -0.0833,0.0312 -0.125,0.0937 l -0.125,0.1875 c -0.18751,0.16667 -0.36459,0.41667 -0.53125,0.75 -0.41667,0.25 -0.70834,0.64583 -0.875,1.1875 l -0.53125,0.65625 -0.125,0.1875 -0.0625,0.125 c -0.37501,0.3125 -0.73959,0.76041 -1.09375,1.34375 l -0.0625,0.125 c -0.25001,0.0417 -0.54167,0.0625 -0.875,0.0625 l -2.3125,0 -0.21875,-0.0625 c 0,-0.0417 -0.0312,-0.0833 -0.0937,-0.125 0,-0.16667 0.0729,-0.3125 0.21875,-0.4375 0.9375,-0.16667 1.73958,-0.6875 2.40625,-1.5625 0.16666,0 0.33333,-0.0417 0.5,-0.125 0.12499,-0.25 0.22916,-0.58333 0.3125,-1 0.68749,-0.41667 1.05208,-1.04167 1.09375,-1.875 0.45833,-0.33333 0.68749,-0.8125 0.6875,-1.4375 l 0,-0.1875 c 0.24999,-0.375 0.39583,-0.83333 0.4375,-1.375 0.24999,-0.16666 0.37499,-0.37499 0.375,-0.625 -1e-5,-0.0833 -0.0208,-0.16666 -0.0625,-0.25 0.29166,-0.33333 0.43749,-0.72916 0.4375,-1.1875 -1e-5,-0.16666 -0.0208,-0.33333 -0.0625,-0.5 0.16666,-0.31249 0.24999,-0.64583 0.25,-1 -1e-5,-0.20832 -0.0208,-0.41666 -0.0625,-0.625 l 0.125,-0.4375 c -0.0625,-0.12499 -0.15626,-0.22916 -0.28125,-0.3125 0.0208,-0.0833 0.0312,-0.16666 0.0312,-0.25 -1e-5,-0.35416 -0.13543,-0.67707 -0.40625,-0.96875 l 0,-0.0625 c -1e-5,-0.22916 0.0417,-0.46874 0.125,-0.71875 l -0.3125,-0.21875 0,-0.0625 c -1e-5,-0.37499 -0.19792,-0.68749 -0.59375,-0.9375 -0.0417,-0.12499 -0.0625,-0.28124 -0.0625,-0.46875 l 0,-0.1875 c -0.0833,-0.0833 -0.14584,-0.20832 -0.1875,-0.375 l -0.3125,-0.125 c -0.16667,-0.31249 -0.43751,-0.59374 -0.8125,-0.84375 l -0.375,-0.53125 c -0.16667,2e-5 -0.34376,-0.0625 -0.53125,-0.1875 -0.25,-0.0833 -0.5625,-0.21873 -0.9375,-0.40625 l -0.28125,-0.21875 c -0.33334,-0.0417 -0.72917,-0.16665 -1.1875,-0.375 -0.0833,-0.10415 -0.14584,-0.24998 -0.1875,-0.4375 0.27083,-0.0833 0.57291,-0.12498 0.90625,-0.125 0.125,2e-5 0.25,2e-5 0.375,0 0.1875,-0.0625 0.38541,-0.0937 0.59375,-0.0937 0.20833,2e-5 0.41666,0.0313 0.625,0.0937 l 2.75,0 c 0.0833,2e-5 0.16666,2e-5 0.25,0 0.24999,2e-5 0.52082,-0.0417 0.8125,-0.125 l 0.375,0.125 0.59375,0 0.125,-0.125 0.15625,0 c 0.54166,2e-5 1.10416,-0.14582 1.6875,-0.4375 l 0.4375,0 c 0.24999,-0.16665 0.47915,-0.39581 0.6875,-0.6875 0.33332,-0.0625 0.67707,-0.20831 1.03125,-0.4375 l 0.125,0 c 0.14582,0.0833 0.34374,0.14585 0.59375,0.1875 0.0625,0.35419 0.21874,0.6771 0.46875,0.96875 -0.0625,0.12502 -0.0938,0.26043 -0.0937,0.40625 -1e-5,0.0833 0.0104,0.16668 0.0312,0.25 l -0.0625,0.125 -0.125,0.125 c 0.0417,0.12502 0.0625,0.25002 0.0625,0.375 -1e-5,0.0833 -1e-5,0.16668 0,0.25 -0.16668,0.16668 -0.25001,0.3646 -0.25,0.59375 -1e-5,0.0625 -1e-5,0.1146 0,0.15625 -0.16668,0.20835 -0.25001,0.47918 -0.25,0.8125 -0.31251,0.25001 -0.5521,0.59376 -0.71875,1.03125 -0.25001,0.20835 -0.50001,0.50001 -0.75,0.875 -0.0833,0.0417 -0.21876,0.0625 -0.40625,0.0625 l -0.28125,-0.3125 c -1e-5,-0.16665 0.0625,-0.31249 0.1875,-0.4375 l 0,-0.1875 0.125,-0.4375 c -0.0833,-0.29165 -0.12501,-0.64582 -0.125,-1.0625 l 0,-0.28125 c -0.14585,-0.0417 -0.3021,-0.0625 -0.46875,-0.0625 -0.16668,2e-5 -0.33334,0.0208 -0.5,0.0625 -0.41668,-0.24998 -0.88543,-0.37498 -1.40625,-0.375 -0.16668,2e-5 -0.33334,0.0104 -0.5,0.0312 l -0.4375,0.0625 c -0.12501,0.41668 -0.18751,0.83335 -0.1875,1.25 -1e-5,0.89585 0.31249,1.76043 0.9375,2.59375 0.12499,0.62501 0.47916,1.14584 1.0625,1.5625 0.27082,0.45834 0.61457,0.68751 1.03125,0.6875 0.0625,10e-6 0.12499,10e-6 0.1875,0 0.12499,-0.0208 0.37499,-0.0312 0.75,-0.0312 0.24999,10e-6 0.56249,10e-6 0.9375,0 l -0.71875,1 0,0 0,-0.0312 z"
         style=""
         id="path3049" />
    </g>
  </g>
</svg>
