<?xml version="1.0" encoding="UTF-8" standalone="no"?>
<!-- Created with Inkscape (http://www.inkscape.org/) -->

<svg
   xmlns:dc="http://purl.org/dc/elements/1.1/"
   xmlns:cc="http://creativecommons.org/ns#"
   xmlns:rdf="http://www.w3.org/1999/02/22-rdf-syntax-ns#"
   xmlns:svg="http://www.w3.org/2000/svg"
   xmlns="http://www.w3.org/2000/svg"
   xmlns:sodipodi="http://sodipodi.sourceforge.net/DTD/sodipodi-0.dtd"
   xmlns:inkscape="http://www.inkscape.org/namespaces/inkscape"
   version="1.1"
   width="20"
   height="30"
   id="svg2"
   inkscape:version="0.48.2 r9819"
   sodipodi:docname="Daedric_I.svg">
  <sodipodi:namedview
     pagecolor="#ffffff"
     bordercolor="#666666"
     borderopacity="1"
     objecttolerance="10"
     gridtolerance="10"
     guidetolerance="10"
     inkscape:pageopacity="0"
     inkscape:pageshadow="2"
     inkscape:window-width="1280"
     inkscape:window-height="972"
     id="namedview3057"
     showgrid="false"
     inkscape:zoom="7.8666667"
     inkscape:cx="10"
     inkscape:cy="15"
     inkscape:window-x="-8"
     inkscape:window-y="-8"
     inkscape:window-maximized="1"
     inkscape:current-layer="svg2" />
  <defs
     id="defs2992" />
  <metadata
     id="metadata7">
    <rdf:RDF>
      <cc:Work
         rdf:about="">
        <dc:format>image/svg+xml</dc:format>
        <dc:type
           rdf:resource="http://purl.org/dc/dcmitype/StillImage" />
        <dc:title />
      </cc:Work>
    </rdf:RDF>
  </metadata>
  <g
     transform="translate(-262.5,-531.07648)"
     id="layer1">
    <g
       style="font-size:32px;font-style:normal;font-variant:normal;font-weight:normal;font-stretch:normal;text-align:center;line-height:0%;letter-spacing:0px;word-spacing:0px;text-anchor:middle;fill:#d1d1d1;font-family:Daedric"
       id="text2985">
      <path
         d="m 268.38733,535.22211 4.5625,0 c 0.16666,0.10419 0.35416,0.1771 0.5625,0.21875 l 0.125,0 c 0.16666,2e-5 0.36458,-0.0208 0.59375,-0.0625 0.10416,2e-5 0.21874,2e-5 0.34375,0 0.12499,2e-5 0.26041,2e-5 0.40625,0 l 0.1875,-0.0625 0.1875,0.125 0.0625,0 c 0.12499,2e-5 0.28124,-0.0417 0.46875,-0.125 0.14582,0.0417 0.29166,0.0625 0.4375,0.0625 0.0833,2e-5 0.15624,2e-5 0.21875,0 l 0.4375,0.0625 c 0.0833,2e-5 0.16666,2e-5 0.25,0 0.0833,2e-5 0.16666,2e-5 0.25,0 l 0.25,0.3125 c -0.0833,0.22919 -0.2396,0.45835 -0.46875,0.6875 -0.0625,0.66668 -0.41668,1.18752 -1.0625,1.5625 -0.0833,0.22918 -0.12501,0.51043 -0.125,0.84375 l 0,0.125 c -0.12501,0.14585 -0.21876,0.34377 -0.28125,0.59375 -0.0833,10e-6 -0.16668,10e-6 -0.25,0 -0.25001,10e-6 -0.52084,-0.0625 -0.8125,-0.1875 l -0.40625,0 -0.125,0.125 c 0.0833,0.16668 0.22916,0.31251 0.4375,0.4375 0.0833,0.33335 0.27082,0.64585 0.5625,0.9375 l 0,0.125 c -1e-5,0.37501 -0.0417,0.82293 -0.125,1.34375 l 0,0.25 -0.1875,0.34375 0,0.1875 -0.1875,0.3125 0,0.9375 c -0.10418,0.0833 -0.21876,0.14584 -0.34375,0.1875 -1e-5,0.0625 -1e-5,0.12501 0,0.1875 -1e-5,0.41668 -0.12501,0.83334 -0.375,1.25 0.0417,0.14584 0.10416,0.32292 0.1875,0.53125 l 0,0.0625 c -1e-5,0.14584 -0.0417,0.30209 -0.125,0.46875 -0.0417,0.16667 -0.0625,0.35417 -0.0625,0.5625 l 0,1.4375 c -0.0833,0.20834 -0.20834,0.42709 -0.375,0.65625 0.0833,0.33334 0.12499,0.66667 0.125,1 -1e-5,0.45834 -0.0729,0.9375 -0.21875,1.4375 -1e-5,0.0625 -1e-5,0.13542 0,0.21875 -1e-5,0.25 0.0417,0.54167 0.125,0.875 l -0.0625,0.125 -0.0625,0.125 0.0625,0.25 0,0.3125 c -0.16667,0.20833 -0.26042,0.5 -0.28125,0.875 l 0,1.4375 c -0.20834,0.29166 -0.35417,0.6875 -0.4375,1.1875 l -0.1875,0.0625 c -0.10417,-0.0833 -0.21876,-0.20834 -0.34375,-0.375 -1e-5,-0.10417 -1e-5,-0.21875 0,-0.34375 -1e-5,-0.25 -0.0208,-0.52084 -0.0625,-0.8125 0.0208,-0.0625 0.0312,-0.13542 0.0312,-0.21875 -1e-5,-0.0833 -0.0104,-0.16667 -0.0312,-0.25 l 0,0 c -1e-5,-0.0417 -0.0208,-0.0833 -0.0625,-0.125 l 0.0625,-0.25 c 0.0208,-0.0833 0.0312,-0.16667 0.0312,-0.25 -1e-5,-0.14583 -0.0313,-0.29167 -0.0937,-0.4375 l 0.125,-0.34375 -0.125,-1.625 0.0625,-0.125 c -1e-5,-0.0417 -1e-5,-0.0937 0,-0.15625 -1e-5,-0.0417 -1e-5,-0.0937 0,-0.15625 -0.0417,-0.25 -0.0625,-0.58333 -0.0625,-1 l 0.125,-0.34375 -0.125,-0.34375 c 0.0833,-0.25 0.12499,-0.52083 0.125,-0.8125 -1e-5,-0.20833 -0.0208,-0.42708 -0.0625,-0.65625 0.0417,-0.12499 0.0625,-0.29166 0.0625,-0.5 -1e-5,-0.12499 -1e-5,-0.24999 0,-0.375 -1e-5,-0.31249 -0.0417,-0.63541 -0.125,-0.96875 l 0.125,-0.40625 c -1e-5,-0.10416 -1e-5,-0.21874 0,-0.34375 -1e-5,-0.31249 -0.0417,-0.65624 -0.125,-1.03125 l 0.125,-0.34375 0,-0.125 c -1e-5,-0.35416 -0.0417,-0.80207 -0.125,-1.34375 l 0,-1.5625 c -1e-5,-0.0417 -1e-5,-0.0937 0,-0.15625 -1e-5,-0.14582 -0.0208,-0.30207 -0.0625,-0.46875 l 0.0625,-0.40625 0,-1.40625 -0.0625,-0.1875 -0.4375,-0.125 c -0.25001,0.12502 -0.54167,0.18751 -0.875,0.1875 l -0.21875,0 c -0.0833,0.0833 -0.16667,0.18751 -0.25,0.3125 -0.45834,0.22918 -0.83334,0.59376 -1.125,1.09375 -0.0625,0.12501 -0.15625,0.25001 -0.28125,0.375 l -0.125,0.1875 -0.25,0.125 -0.1875,-0.1875 c 0,-0.0625 0,-0.12499 0,-0.1875 0,-0.22915 -0.0417,-0.47915 -0.125,-0.75 l 0,-0.5625 c 0.0417,-0.0833 0.0625,-0.18749 0.0625,-0.3125 0,-0.12499 -0.0208,-0.24998 -0.0625,-0.375 l 0,-0.3125 0.0625,-0.1875 0.0625,-0.1875 -0.0625,-0.1875 c -0.0417,-0.12498 -0.0625,-0.29165 -0.0625,-0.5 l -0.125,-0.25 c 0.16666,-0.39582 0.25,-0.86457 0.25,-1.40625 0,-0.14581 0,-0.29165 0,-0.4375 l -0.0625,-0.3125 0.125,-0.1875 0,0 0,-0.0312 z"
         style=""
         id="path3060" />
    </g>
  </g>
</svg>
