<?xml version="1.0" encoding="UTF-8" standalone="no"?>
<!-- Created with Inkscape (http://www.inkscape.org/) -->

<svg
   xmlns:dc="http://purl.org/dc/elements/1.1/"
   xmlns:cc="http://creativecommons.org/ns#"
   xmlns:rdf="http://www.w3.org/1999/02/22-rdf-syntax-ns#"
   xmlns:svg="http://www.w3.org/2000/svg"
   xmlns="http://www.w3.org/2000/svg"
   xmlns:sodipodi="http://sodipodi.sourceforge.net/DTD/sodipodi-0.dtd"
   xmlns:inkscape="http://www.inkscape.org/namespaces/inkscape"
   version="1.1"
   width="20"
   height="30"
   id="svg2"
   inkscape:version="0.48.2 r9819"
   sodipodi:docname="Daedric_J.svg">
  <sodipodi:namedview
     pagecolor="#ffffff"
     bordercolor="#666666"
     borderopacity="1"
     objecttolerance="10"
     gridtolerance="10"
     guidetolerance="10"
     inkscape:pageopacity="0"
     inkscape:pageshadow="2"
     inkscape:window-width="1280"
     inkscape:window-height="972"
     id="namedview3068"
     showgrid="false"
     inkscape:zoom="7.8666667"
     inkscape:cx="10"
     inkscape:cy="15"
     inkscape:window-x="-8"
     inkscape:window-y="-8"
     inkscape:window-maximized="1"
     inkscape:current-layer="svg2" />
  <defs
     id="defs2992" />
  <metadata
     id="metadata7">
    <rdf:RDF>
      <cc:Work
         rdf:about="">
        <dc:format>image/svg+xml</dc:format>
        <dc:type
           rdf:resource="http://purl.org/dc/dcmitype/StillImage" />
        <dc:title />
      </cc:Work>
    </rdf:RDF>
  </metadata>
  <g
     transform="translate(-262.5,-531.07648)"
     id="layer1">
    <g
       style="font-size:32px;font-style:normal;font-variant:normal;font-weight:normal;font-stretch:normal;text-align:center;line-height:0%;letter-spacing:0px;word-spacing:0px;text-anchor:middle;fill:#d1d1d1;font-family:Daedric"
       id="text2985">
      <path
         d="m 276.23108,535.28461 2.0625,0 0.25,0.1875 -0.125,0.4375 c -0.75001,0.0417 -1.12501,0.41668 -1.125,1.125 -1e-5,0.0625 -1e-5,0.13543 0,0.21875 l 0,0.75 c 0.0833,0.29168 0.12499,0.56252 0.125,0.8125 -1e-5,0.0833 -1e-5,0.15627 0,0.21875 l 0.1875,0.1875 c 0.0417,0.29168 0.12499,0.53126 0.25,0.71875 0.0417,0.41668 0.14582,0.76043 0.3125,1.03125 l 0,0.0937 c -2e-5,0.25001 0.0417,0.47918 0.125,0.6875 -2e-5,0.37501 0.0417,0.68751 0.125,0.9375 -2e-5,0.37501 0.0417,0.69793 0.125,0.96875 -0.0417,0.16668 -0.0625,0.32293 -0.0625,0.46875 -2e-5,0.25001 0.0625,0.48959 0.1875,0.71875 l -0.0625,0.25 -0.0625,0.1875 c 0.0417,0.16668 0.0625,0.33334 0.0625,0.5 -2e-5,0.16668 -0.0208,0.32292 -0.0625,0.46875 l 0.125,0.25 c -0.0833,0.20834 -0.12502,0.39584 -0.125,0.5625 l 0,0.0625 0.125,0.25 -0.125,0.1875 c 0.0208,0.25001 0.0625,0.45834 0.125,0.625 l -0.125,0.90625 0.125,0.125 c -2e-5,0.25 -2e-5,0.47917 0,0.6875 -2e-5,0.20834 -2e-5,0.39584 0,0.5625 -0.10418,0.20834 -0.1771,0.39584 -0.21875,0.5625 0.0833,0.20834 0.15623,0.39584 0.21875,0.5625 l -0.0625,0.25 -0.0625,0.1875 0,0.25 0.125,0.4375 c -0.0417,0.20833 -0.0625,0.39583 -0.0625,0.5625 -2e-5,0.16667 0.0208,0.33333 0.0625,0.5 l 0,0.1875 -0.1875,0.4375 0.1875,0.375 0,1.875 c -2e-5,0.29166 -0.0208,0.55208 -0.0625,0.78125 l -0.25,0.1875 -0.75,0 -0.3125,0.0625 c -0.10418,-0.0417 -0.19793,-0.0625 -0.28125,-0.0625 l -0.3125,0.0625 c -0.12501,-0.0417 -0.2396,-0.0625 -0.34375,-0.0625 -0.10418,0 -0.19793,0.0208 -0.28125,0.0625 -0.18751,-0.0417 -0.35418,-0.0625 -0.5,-0.0625 l -2.3125,0 c -0.14584,0 -0.28126,0 -0.40625,0 -0.50001,0 -0.75001,-0.11459 -0.75,-0.34375 -1e-5,-0.0208 -1e-5,-0.0521 0,-0.0937 0.45832,-0.0833 0.85416,-0.23959 1.1875,-0.46875 0.70832,-0.0417 1.30207,-0.30209 1.78125,-0.78125 0.29165,-0.25 0.45832,-0.54167 0.5,-0.875 0.58332,-0.58333 0.87499,-1.23958 0.875,-1.96875 l 0,-0.1875 c 0.16665,-0.16667 0.27082,-0.33333 0.3125,-0.5 l 0,-0.78125 0.1875,-0.25 c 0.0417,-0.16666 0.0625,-0.33333 0.0625,-0.5 -1e-5,-0.0417 -1e-5,-0.0833 0,-0.125 l 0,-1.375 0.25,-0.375 0,-0.8125 -0.125,-0.1875 c 0.0417,-0.16666 0.0625,-0.33333 0.0625,-0.5 -1e-5,-0.24999 -0.0417,-0.47916 -0.125,-0.6875 0.0833,-0.33333 0.12499,-0.64583 0.125,-0.9375 -1e-5,-0.43749 -0.10418,-0.84374 -0.3125,-1.21875 0.0417,-0.0833 0.0625,-0.16666 0.0625,-0.25 -1e-5,-0.16666 -0.0625,-0.31249 -0.1875,-0.4375 -1e-5,-0.0833 -1e-5,-0.16666 0,-0.25 -1e-5,-0.37499 -0.12501,-0.66666 -0.375,-0.875 l 0,-0.53125 c -0.0417,-0.0625 -0.0833,-0.0937 -0.125,-0.0937 -0.0833,-0.16665 -0.16668,-0.29165 -0.25,-0.375 -0.16668,-0.66665 -0.45835,-1.21874 -0.875,-1.65625 -0.33335,-0.47915 -0.68751,-0.85415 -1.0625,-1.125 -0.0417,-0.20832 -0.10418,-0.37498 -0.1875,-0.5 l -0.1875,0 c -0.16668,-0.12498 -0.33334,-0.1979 -0.5,-0.21875 -0.29168,-0.27082 -0.57293,-0.46873 -0.84375,-0.59375 l -0.125,0 c -1.37501,2e-5 -2.48959,0.50002 -3.34375,1.5 -0.25001,0.0833 -0.45834,0.19793 -0.625,0.34375 -0.16667,0.35418 -0.27084,0.66668 -0.3125,0.9375 -0.33334,0.20835 -0.58334,0.39585 -0.75,0.5625 l 0,0.1875 c -0.22917,0.37501 -0.34375,0.75001 -0.34375,1.125 -0.29167,0.29168 -0.47917,0.58334 -0.5625,0.875 l 0,0.4375 0.125,0.125 0,2.0625 c -0.0833,0.29167 -0.20834,0.43751 -0.375,0.4375 -0.0833,10e-6 -0.16667,-0.0208 -0.25,-0.0625 -0.0625,-0.58332 -0.23959,-1.10416 -0.53125,-1.5625 0,-0.22916 0.0417,-0.44791 0.125,-0.65625 l -0.125,-0.4375 0.125,-0.9375 0,-0.40625 c 0,-0.29165 -0.0208,-0.54165 -0.0625,-0.75 0.0208,-0.0833 0.0312,-0.16665 0.0312,-0.25 0,-0.14582 -0.0312,-0.28124 -0.0937,-0.40625 l 0.125,-1 0,-0.3125 -0.0625,-0.1875 c 0.0417,-0.20832 0.0625,-0.41665 0.0625,-0.625 0,-0.31248 -0.0417,-0.59373 -0.125,-0.84375 0.0625,-0.14582 0.0937,-0.30207 0.0937,-0.46875 l 0,-1.65625 0.1875,-0.25 0.0625,0 c 0.20833,2e-5 0.38541,0.0625 0.53125,0.1875 l 0,0.15625 c 0,0.31252 0.0833,0.57293 0.25,0.78125 0.16666,-0.16665 0.27083,-0.35415 0.3125,-0.5625 0.27083,-0.12498 0.48958,-0.23956 0.65625,-0.34375 l 0.4375,-0.0625 c 0.52083,-0.20831 0.98958,-0.3229 1.40625,-0.34375 l 2.375,0 c 0.37499,0.0833 0.72916,0.12502 1.0625,0.125 0.33332,2e-5 0.65624,-0.0417 0.96875,-0.125 0.45832,0.0833 0.89582,0.12502 1.3125,0.125 0.41665,2e-5 0.80207,-0.0417 1.15625,-0.125 l 0.125,0.125 0,0 0,-0.0312 z"
         style=""
         id="path3071" />
    </g>
  </g>
</svg>
