<?xml version="1.0" encoding="UTF-8" standalone="no"?>
<!-- Created with Inkscape (http://www.inkscape.org/) -->

<svg
   xmlns:dc="http://purl.org/dc/elements/1.1/"
   xmlns:cc="http://creativecommons.org/ns#"
   xmlns:rdf="http://www.w3.org/1999/02/22-rdf-syntax-ns#"
   xmlns:svg="http://www.w3.org/2000/svg"
   xmlns="http://www.w3.org/2000/svg"
   xmlns:sodipodi="http://sodipodi.sourceforge.net/DTD/sodipodi-0.dtd"
   xmlns:inkscape="http://www.inkscape.org/namespaces/inkscape"
   version="1.1"
   width="20"
   height="30"
   id="svg2"
   inkscape:version="0.48.2 r9819"
   sodipodi:docname="Daedric_K.svg">
  <sodipodi:namedview
     pagecolor="#ffffff"
     bordercolor="#666666"
     borderopacity="1"
     objecttolerance="10"
     gridtolerance="10"
     guidetolerance="10"
     inkscape:pageopacity="0"
     inkscape:pageshadow="2"
     inkscape:window-width="1280"
     inkscape:window-height="972"
     id="namedview3079"
     showgrid="false"
     inkscape:zoom="7.8666667"
     inkscape:cx="10"
     inkscape:cy="15"
     inkscape:window-x="-8"
     inkscape:window-y="-8"
     inkscape:window-maximized="1"
     inkscape:current-layer="svg2" />
  <defs
     id="defs2992" />
  <metadata
     id="metadata7">
    <rdf:RDF>
      <cc:Work
         rdf:about="">
        <dc:format>image/svg+xml</dc:format>
        <dc:type
           rdf:resource="http://purl.org/dc/dcmitype/StillImage" />
        <dc:title />
      </cc:Work>
    </rdf:RDF>
  </metadata>
  <g
     transform="translate(-262.5,-531.07648)"
     id="layer1">
    <g
       style="font-size:32px;font-style:normal;font-variant:normal;font-weight:normal;font-stretch:normal;text-align:center;line-height:0%;letter-spacing:0px;word-spacing:0px;text-anchor:middle;fill:#d1d1d1;font-family:Daedric"
       id="text2985">
      <path
         d="m 275.23108,535.15961 c 0.20832,0.0625 0.43749,0.0938 0.6875,0.0937 0.12499,2e-5 0.2604,-0.0104 0.40625,-0.0312 l 0.53125,0.125 0.46875,-0.125 0.25,0.125 0.375,-0.0625 0.46875,-0.0625 0.75,0 c 0.24998,0.0208 0.54165,0.1146 0.875,0.28125 l 0.125,0.34375 c -0.75002,0.41668 -1.14585,1.06252 -1.1875,1.9375 -0.16668,0.25002 -0.25002,0.53127 -0.25,0.84375 l 0,0.0937 0.4375,1.0625 c -2e-5,0.0625 0.0208,0.13543 0.0625,0.21875 l 0,0.1875 c -2e-5,0.0417 0.0417,0.0833 0.125,0.125 l 0.125,0.46875 0,0.75 0.375,1.46875 0,0.53125 c 0.24998,0.50001 0.37498,1.05209 0.375,1.65625 -2e-5,0.16668 -0.0104,0.34376 -0.0312,0.53125 0.16665,0.35417 0.24998,0.76042 0.25,1.21875 -2e-5,0.20834 -0.0208,0.42709 -0.0625,0.65625 l 0.125,0.59375 c -0.10418,0.12501 -0.19793,0.30209 -0.28125,0.53125 l -0.125,0.125 0.125,0.46875 -0.40625,1.0625 -0.0625,0.25 -0.125,0.1875 c -0.0417,0.125 -0.0625,0.29167 -0.0625,0.5 l -0.0625,0.1875 c -0.0625,0.20834 -0.19793,0.44792 -0.40625,0.71875 l -0.0625,0.40625 -0.0625,0.25 c -0.33335,0.22917 -0.60418,0.5625 -0.8125,1 l -0.125,0.0625 0,0.46875 c -0.25002,0.20833 -0.54168,0.35417 -0.875,0.4375 l -0.0625,0.46875 -0.125,0 c -0.27085,-0.125 -0.40626,-0.34375 -0.40625,-0.65625 l 0,-0.0937 c 0.0833,-0.25 0.22915,-0.5 0.4375,-0.75 l 0.0625,-0.1875 0.125,-0.1875 0.125,-0.0625 0.1875,-0.53125 0.40625,-0.34375 -0.0625,-0.3125 c -2e-5,-0.33333 0.1354,-0.66666 0.40625,-1 l 0,-3.1875 c -2e-5,-0.16666 0.0208,-0.35416 0.0625,-0.5625 l -0.0625,-0.28125 0,-1.75 c -0.12502,-0.29166 -0.32293,-0.55207 -0.59375,-0.78125 -0.0833,-0.91666 -0.41668,-1.81249 -1,-2.6875 -0.0417,-1.16665 -0.5521,-2.14582 -1.53125,-2.9375 l -0.125,-0.59375 c -0.29168,-0.27082 -0.64585,-0.48957 -1.0625,-0.65625 l -0.125,-0.125 -0.125,-0.0625 -0.1875,-0.0625 c -0.12501,-0.0833 -0.25001,-0.20832 -0.375,-0.375 l -0.125,-0.1875 c -0.18751,2e-5 -0.40626,0.0417 -0.65625,0.125 -0.27084,-0.22915 -0.55209,-0.34373 -0.84375,-0.34375 -0.20834,2e-5 -0.41668,0.0417 -0.625,0.125 -0.22918,-0.0833 -0.46876,-0.12498 -0.71875,-0.125 -0.16667,2e-5 -0.34376,0.0208 -0.53125,0.0625 -0.12501,0.0625 -0.18751,0.13543 -0.1875,0.21875 -1e-5,0.20835 0.28124,0.46877 0.84375,0.78125 0.24999,0.18752 0.58332,0.3021 1,0.34375 0.0417,0.0833 0.0625,0.18752 0.0625,0.3125 -1e-5,0.12502 -0.0208,0.26043 -0.0625,0.40625 -1.50001,0.0625 -2.50001,0.82293 -3,2.28125 -0.35417,0.25001 -0.53126,0.7396 -0.53125,1.46875 -1e-5,0.25001 0.0208,0.52084 0.0625,0.8125 l -0.3125,0.40625 0,2.8125 0.0625,0.1875 0.3125,0.3125 c -0.0833,0.20834 -0.21876,0.43751 -0.40625,0.6875 l 0,0.0312 c -1e-5,0.33334 0.12499,0.64584 0.375,0.9375 -0.0417,0.14584 -0.0625,0.30209 -0.0625,0.46875 -1e-5,0.16667 0.0208,0.35417 0.0625,0.5625 l -0.0625,0.125 -0.0625,0.125 c 0.16666,0.41667 0.24999,0.89584 0.25,1.4375 l 0.125,0.125 0,0.25 0.125,0.125 0.1875,0.75 0.125,0.125 0,0.3125 0.0625,0.25 c 0.24999,0.3125 0.46874,0.73958 0.65625,1.28125 l 0,0 c -1e-5,0.0417 0.0208,0.0833 0.0625,0.125 0.0833,0.29167 0.12499,0.64583 0.125,1.0625 l 0.75,0.8125 0.0625,0.125 0.40625,0.25 c 0.41666,-0.375 0.62499,-0.84375 0.625,-1.40625 l 0.1875,-0.34375 c 0.0833,-0.75 0.39582,-1.5 0.9375,-2.25 0.0417,-0.20833 0.12499,-0.45833 0.25,-0.75 -0.0417,-0.125 -0.0625,-0.26041 -0.0625,-0.40625 -1e-5,-0.0625 -1e-5,-0.125 0,-0.1875 l 0.3125,-0.28125 0.40625,0.40625 c -1e-5,0.16667 -0.0208,0.36459 -0.0625,0.59375 0.0833,0.29167 0.12499,0.625 0.125,1 -1e-5,0.10417 -1e-5,0.21875 0,0.34375 -1e-5,0.0833 0.0208,0.15625 0.0625,0.21875 l 0,0.1875 -0.1875,0.46875 0.1875,1 0,0.3125 c -0.12501,0.10416 -0.22918,0.23958 -0.3125,0.40625 l 0.25,0.46875 c -0.0625,0.25 -0.0938,0.5 -0.0937,0.75 -1e-5,0.25 0.0312,0.5 0.0937,0.75 -0.0417,0.10416 -0.0625,0.22916 -0.0625,0.375 l 0,0.15625 0.0625,0.125 c -0.12501,0.29166 -0.19793,0.66666 -0.21875,1.125 l -0.125,0.1875 c -0.20834,-1e-5 -0.43751,-0.0625 -0.6875,-0.1875 l -0.15625,0 c -0.37501,-1e-5 -0.70834,-0.12501 -1,-0.375 -0.16668,-0.14584 -0.36459,-0.28126 -0.59375,-0.40625 -0.37501,-0.66667 -0.95834,-1.14584 -1.75,-1.4375 -1e-5,-0.66667 -0.31251,-1.23959 -0.9375,-1.71875 -0.0833,-0.41667 -0.32292,-0.83333 -0.71875,-1.25 -0.0417,-0.625 -0.33334,-1.19792 -0.875,-1.71875 -0.0208,-0.125 -0.0729,-0.25 -0.15625,-0.375 -0.0833,-0.5 -0.32292,-0.94791 -0.71875,-1.34375 l -0.125,-0.8125 -0.28125,-0.34375 c 0.0208,-0.125 0.0312,-0.25 0.0312,-0.375 0,-0.41666 -0.10417,-0.85416 -0.3125,-1.3125 l -0.0625,-0.53125 c 0.0625,-0.20833 0.0937,-0.42708 0.0937,-0.65625 0,-0.24999 -0.0312,-0.49999 -0.0937,-0.75 0.0417,-0.16666 0.0625,-0.33333 0.0625,-0.5 0,-0.16666 -0.0208,-0.33332 -0.0625,-0.5 0.0417,-0.16666 0.0625,-0.35416 0.0625,-0.5625 0,-0.20832 -0.0208,-0.43749 -0.0625,-0.6875 0.0417,-0.18749 0.0625,-0.38541 0.0625,-0.59375 l 0,-0.125 -0.0625,-0.25 0.40625,-0.75 c -0.0417,-0.29165 -0.0625,-0.59374 -0.0625,-0.90625 0,-0.64582 0.11458,-1.3229 0.34375,-2.03125 l -0.0625,-0.1875 -0.1875,-0.3125 c 0.29166,-0.37498 0.48958,-0.87498 0.59375,-1.5 0.45833,-0.41665 0.8125,-0.95832 1.0625,-1.625 0.41666,-0.24998 0.72916,-0.64581 0.9375,-1.1875 0.24999,0.0417 0.49999,0.0625 0.75,0.0625 0.24999,2e-5 0.49999,-0.0208 0.75,-0.0625 0.27083,0.0833 0.57291,0.12502 0.90625,0.125 l 0.375,0 0.53125,-0.125 c 0.27082,0.0833 0.60416,0.12502 1,0.125 l 0.1875,-0.125 0.40625,0.0625 0.3125,0.0625 0.0625,0 c 0.29166,2e-5 0.60416,-0.0417 0.9375,-0.125 l 0.9375,0 c 0.0417,2e-5 0.0833,-0.0208 0.125,-0.0625 l 0,0 0,0 0,-0.0312 z"
         style=""
         id="path3082" />
    </g>
  </g>
</svg>
