<?xml version="1.0" encoding="utf-8"?>
<!-- Generator: Adobe Illustrator 15.1.0, SVG Export Plug-In . SVG Version: 6.00 Build 0)  -->
<!DOCTYPE svg PUBLIC "-//W3C//DTD SVG 1.1//EN" "http://www.w3.org/Graphics/SVG/1.1/DTD/svg11.dtd">
<svg version="1.1"
	 id="svg2" sodipodi:docname="Daedric_L.svg" inkscape:version="0.48.2 r9819" xmlns:dc="http://purl.org/dc/elements/1.1/" xmlns:cc="http://creativecommons.org/ns#" xmlns:rdf="http://www.w3.org/1999/02/22-rdf-syntax-ns#" xmlns:svg="http://www.w3.org/2000/svg" xmlns:sodipodi="http://sodipodi.sourceforge.net/DTD/sodipodi-0.dtd" xmlns:inkscape="http://www.inkscape.org/namespaces/inkscape"
	 xmlns="http://www.w3.org/2000/svg" xmlns:xlink="http://www.w3.org/1999/xlink" x="0px" y="0px" width="20px" height="30px"
	 viewBox="0 0 20 30" enable-background="new 0 0 20 30" xml:space="preserve">
<sodipodi:namedview  id="namedview3090" inkscape:current-layer="svg2" inkscape:window-y="-8" inkscape:window-x="-8" inkscape:window-height="972" inkscape:window-width="1280" inkscape:pageshadow="2" inkscape:pageopacity="0" inkscape:cy="15" inkscape:cx="10" inkscape:zoom="7.8666667" showgrid="false" guidetolerance="10" gridtolerance="10" objecttolerance="10" borderopacity="1" bordercolor="#666666" pagecolor="#ffffff" inkscape:window-maximized="1">
	</sodipodi:namedview>
<g id="layer1" transform="translate(-262.5,-531.07648)">
	<g id="text2985">
		<path id="path3093" fill="#D1D1D1" d="M266.387,535.284l0.344-0.188c0.271,0.083,0.573,0.125,0.906,0.125
			c0.313,0,0.656-0.042,1.031-0.125l0.188,0.063l0.25,0.063c0.083,0,0.177-0.031,0.281-0.094c0.167,0.042,0.333,0.063,0.5,0.063
			c0.083,0,0.167,0,0.25,0c0.125,0.042,0.281,0.063,0.469,0.063c0.104,0,0.219,0,0.344,0c0.083,0.021,0.167,0.032,0.25,0.031
			c0.104,0,0.208-0.01,0.313-0.031c0.167,0.042,0.375,0.063,0.625,0.063l0.188-0.063l0.281,0.063c0.083,0,0.167,0,0.25,0
			c0.208,0,0.437-0.021,0.687-0.063h0.188l0.375,0.063h2.5l0.344-0.063c0.084,0,0.167,0,0.25,0c0.146,0,0.303-0.021,0.469-0.063
			l0.188,0.063c0.063,0,0.125,0,0.188,0c0.125,0,0.25-0.021,0.375-0.063l0.406,0.125l0.125-0.063l0.344,0.063l0.281,0.313
			c-0.063,0.167-0.094,0.375-0.094,0.625c-0.207,0.354-0.313,0.761-0.313,1.219c-0.082,0.167-0.156,0.375-0.219,0.625
			c-0.041,0.167-0.063,0.344-0.063,0.531v0.125l-0.188,0.344c-0.438,0.333-0.76,0.813-0.969,1.438c-0.041,0-0.082,0.042-0.125,0.125
			l-0.188,0.125l-0.188,0.469c-0.416,0.167-0.832,0.458-1.25,0.875l-0.188,0.063l-0.063,0.125c-0.207-0.042-0.385-0.135-0.531-0.281
			l0.188-0.531c0.584-0.292,0.875-0.771,0.875-1.438v-0.125c0.105-0.167,0.156-0.333,0.156-0.5c0-0.208-0.082-0.417-0.25-0.625
			v-0.063c0-0.25-0.082-0.5-0.25-0.75l-0.688-0.625l-0.188-0.125c-0.145-0.042-0.301-0.063-0.469-0.063
			c-0.207,0-0.438,0.032-0.688,0.094l-0.125-0.063l-0.188-0.063h-0.25l-0.188,0.063h-0.25c-0.167-0.042-0.354-0.063-0.563-0.063
			c-0.083,0-0.167,0-0.25,0h-0.313l-0.188,0.188h-0.093c-0.167,0-0.344-0.021-0.531-0.063l-0.375,0.25l0.406,0.125l0.406,0.875
			c0.792,0.5,1.313,1.292,1.563,2.375c0.292,0.208,0.531,0.5,0.719,0.875l0.125,0.063l-0.063,0.688v0.156
			c0,0.146,0.021,0.302,0.063,0.469l-0.063,0.438v0.25l0.063,0.188l-0.188,0.188c0.042,0.167,0.063,0.354,0.063,0.563
			c0,0.208-0.021,0.427-0.063,0.656v0.594l0.063,0.344v0.313l0.063,0.25c-0.042,0.063-0.063,0.136-0.063,0.219v0.063l0.125,0.25
			l-0.125,0.938l-0.063,0.344c0,0.083,0,0.167,0,0.25c0,0.208,0.042,0.438,0.125,0.688l-0.063,1l0.188,0.25
			c-0.083,0.292-0.125,0.625-0.125,1v0.688l-0.063,0.188l-0.063,0.188l0.188,0.375c-0.083,0.167-0.125,0.333-0.125,0.5
			c0,0.125,0.021,0.25,0.063,0.375c0.146,0.167,0.281,0.396,0.406,0.688l0.063,0.125l0.125,0.125
			c0.292,0.125,0.563,0.323,0.813,0.594l0.125,0.063l0.125,0.063l0.188,0.063l1.281,0.625l0.188,0.063l0.125,0.063l0.188,0.063
			l0.188,0.125l0.25,0.063l0.188,0.063l0.188,0.125l0.188,0.125c0.104,0.042,0.198,0.125,0.281,0.25
			c-0.375,0.146-0.771,0.219-1.188,0.219c-0.354,0-0.719-0.052-1.094-0.156c-0.125,0.042-0.261,0.063-0.406,0.063
			s-0.302-0.021-0.469-0.063c-0.229,0.083-0.489,0.125-0.781,0.125h-0.188l-0.344-0.125c-0.292,0.083-0.625,0.125-1,0.125
			c-0.167,0-0.333,0-0.5,0l-0.125,0.063l-0.219-0.125c-0.042-0.208-0.063-0.458-0.063-0.75v-1l-0.125-0.125l0.063-0.313
			c0.021-0.083,0.031-0.167,0.031-0.25c0-0.104-0.01-0.208-0.031-0.313l0.063-0.188c-0.021-0.125-0.052-0.25-0.094-0.375
			c0.042-0.104,0.063-0.219,0.063-0.344c0-0.083,0-0.167,0-0.25l-0.063-0.313l0.125-0.25c-0.083-0.25-0.125-0.531-0.125-0.844
			c0-0.188,0.021-0.386,0.063-0.594l-0.063-0.344l0.125-0.313c-0.063-0.25-0.094-0.521-0.094-0.813s0.031-0.604,0.094-0.938
			l-0.063-0.406l-0.063-0.406c0-0.063,0-0.136,0-0.219c0-0.063,0-0.136,0-0.219l0.125-0.344c-0.021-0.083-0.052-0.177-0.094-0.281
			v-0.125c0-0.333-0.104-0.667-0.313-1c0.042-0.167,0.063-0.333,0.063-0.5c0-0.333-0.083-0.667-0.25-1c0-0.083,0-0.156,0-0.219
			c0-0.292-0.083-0.583-0.25-0.875v-0.688c-0.083-0.083-0.219-0.188-0.406-0.313c0-0.042-0.031-0.083-0.094-0.125
			c-0.042-0.375-0.177-0.813-0.406-1.313l-0.188-0.625c-0.167-0.167-0.386-0.333-0.656-0.5c-0.125-0.25-0.333-0.479-0.625-0.688
			l-0.125-0.625c-0.083-0.104-0.177-0.239-0.281-0.406c-0.208-0.125-0.5-0.25-0.875-0.375c0-0.042-0.042-0.083-0.125-0.125
			l-0.063-0.125l-0.313-0.063c-0.167-0.354-0.448-0.614-0.844-0.781c-0.208-0.313-0.5-0.604-0.875-0.875
			c0.042-0.25,0.167-0.458,0.375-0.625l0.406,0.188l0,0v-0.031L266.387,535.284z"/>
	</g>
</g>
</svg>
