<?xml version="1.0" encoding="UTF-8" standalone="no"?>
<!-- Created with Inkscape (http://www.inkscape.org/) -->

<svg
   xmlns:dc="http://purl.org/dc/elements/1.1/"
   xmlns:cc="http://creativecommons.org/ns#"
   xmlns:rdf="http://www.w3.org/1999/02/22-rdf-syntax-ns#"
   xmlns:svg="http://www.w3.org/2000/svg"
   xmlns="http://www.w3.org/2000/svg"
   xmlns:sodipodi="http://sodipodi.sourceforge.net/DTD/sodipodi-0.dtd"
   xmlns:inkscape="http://www.inkscape.org/namespaces/inkscape"
   version="1.1"
   width="20"
   height="30"
   id="svg2"
   inkscape:version="0.48.2 r9819"
   sodipodi:docname="Daedric_M.svg">
  <sodipodi:namedview
     pagecolor="#ffffff"
     bordercolor="#666666"
     borderopacity="1"
     objecttolerance="10"
     gridtolerance="10"
     guidetolerance="10"
     inkscape:pageopacity="0"
     inkscape:pageshadow="2"
     inkscape:window-width="1280"
     inkscape:window-height="972"
     id="namedview3101"
     showgrid="false"
     inkscape:zoom="7.8666667"
     inkscape:cx="10"
     inkscape:cy="15"
     inkscape:window-x="-8"
     inkscape:window-y="-8"
     inkscape:window-maximized="1"
     inkscape:current-layer="svg2" />
  <defs
     id="defs2992" />
  <metadata
     id="metadata7">
    <rdf:RDF>
      <cc:Work
         rdf:about="">
        <dc:format>image/svg+xml</dc:format>
        <dc:type
           rdf:resource="http://purl.org/dc/dcmitype/StillImage" />
        <dc:title />
      </cc:Work>
    </rdf:RDF>
  </metadata>
  <g
     transform="translate(-262.5,-531.07648)"
     id="layer1">
    <g
       style="font-size:32px;font-style:normal;font-variant:normal;font-weight:normal;font-stretch:normal;text-align:center;line-height:0%;letter-spacing:0px;word-spacing:0px;text-anchor:middle;fill:#d1d1d1;font-family:Daedric"
       id="text2985">
      <path
         d="m 265.04358,548.25336 c 0.41666,0.10417 0.625,0.38542 0.625,0.84375 0,0.10417 -0.0104,0.21876 -0.0312,0.34375 -0.41667,-0.16666 -0.625,-0.47916 -0.625,-0.9375 0,-0.0625 0,-0.13541 0,-0.21875 l 0,0 z m -0.125,-13.0625 c 0.20833,0.0417 0.45833,0.1146 0.75,0.21875 l 0.34375,-0.125 c 0.0833,0.0208 0.17708,0.0313 0.28125,0.0312 0.10416,2e-5 0.21874,-0.0104 0.34375,-0.0312 0.29166,0.0833 0.63541,0.12502 1.03125,0.125 l 3.125,0 c 0.24999,2e-5 0.54166,0.0208 0.875,0.0625 l 0,0.46875 c -1.68751,0.16668 -2.53126,0.87502 -2.53125,2.125 -1e-5,0.0833 -1e-5,0.16668 0,0.25 -1e-5,0.14585 -1e-5,0.28127 0,0.40625 -1e-5,1.18751 0.43749,2.28126 1.3125,3.28125 0.10416,0.41668 0.33332,0.79168 0.6875,1.125 l 0.125,0.75 c 0.33332,0.10418 0.68749,0.28126 1.0625,0.53125 0.52082,-0.33332 0.90624,-0.83332 1.15625,-1.5 0.12499,-0.18749 0.31249,-0.39582 0.5625,-0.625 l 0,-0.46875 c 0.18749,-0.12499 0.36457,-0.31249 0.53125,-0.5625 l 0,-0.125 c -1e-5,-0.20832 -0.0417,-0.42707 -0.125,-0.65625 l 0.5625,-0.5625 -0.0625,-0.625 c 0.18749,-0.45832 0.28124,-0.89582 0.28125,-1.3125 -1e-5,-0.87498 -0.41668,-1.6354 -1.25,-2.28125 l 0,-0.3125 c 0.27082,-0.0833 0.58332,-0.12498 0.9375,-0.125 0.16665,2e-5 0.35415,0.0104 0.5625,0.0312 l 0.21875,-0.0625 0.53125,0.0625 0.34375,-0.125 0.1875,0.0625 0.1875,0.0625 0.875,-0.0625 c 0.0833,-0.0208 0.16665,-0.0312 0.25,-0.0312 0.12498,2e-5 0.27082,0.0313 0.4375,0.0937 l 0.46875,-0.125 0.28125,0.125 0.34375,-0.0625 0.25,0.125 c 0.0417,0.25002 0.0625,0.54169 0.0625,0.875 l 0,1.5 0.125,0.1875 c -0.10419,0.33335 -0.15627,0.70835 -0.15625,1.125 -2e-5,0.14585 -2e-5,0.3021 0,0.46875 l 0.0625,0.34375 -0.0625,0.25 0.0625,0.28125 0.0625,0.25 c -0.0417,0.20835 -0.0625,0.45835 -0.0625,0.75 -2e-5,0.12501 -2e-5,0.26043 0,0.40625 l -0.0625,1.09375 0,1.15625 -0.125,0.34375 c 0.12498,0.20834 0.20831,0.43751 0.25,0.6875 l -0.25,0.46875 c 0.0417,0.16668 0.1354,0.34376 0.28125,0.53125 -0.0833,0.16667 -0.12502,0.34376 -0.125,0.53125 -2e-5,0.16667 0.0417,0.35417 0.125,0.5625 -0.0833,0.20834 -0.12502,0.42709 -0.125,0.65625 -2e-5,0.22917 0.0417,0.46876 0.125,0.71875 l -0.0625,0.1875 -0.1875,0.8125 0,2.6875 c -0.37502,0.45834 -0.60418,1.03125 -0.6875,1.71875 l -0.1875,0.40625 -0.34375,0.4375 c 0.0208,0.125 0.0312,0.25 0.0312,0.375 -2e-5,0.29167 -0.0625,0.61458 -0.1875,0.96875 l -0.125,0.5625 c -0.41668,0.33333 -0.66668,0.79166 -0.75,1.375 -0.18752,0.16666 -0.3021,0.375 -0.34375,0.625 -0.39585,0.3125 -0.71877,0.71874 -0.96875,1.21875 -0.31251,0.12499 -0.6146,0.31249 -0.90625,0.5625 l -0.34375,-0.0625 0,-0.5 c 0.74999,-0.45834 1.12499,-1.1875 1.125,-2.1875 0.18748,-0.3125 0.28123,-0.66667 0.28125,-1.0625 l 0,-0.1875 c 1.02082,-1.95833 1.53123,-4.16666 1.53125,-6.625 -2e-5,-0.35416 -0.0104,-0.70833 -0.0312,-1.0625 l -0.28125,-0.4375 c 0.0208,-0.12499 0.0312,-0.27083 0.0312,-0.4375 -2e-5,-0.27083 -0.0313,-0.57291 -0.0937,-0.90625 -2e-5,-0.0833 -2e-5,-0.16666 0,-0.25 -2e-5,-0.16666 -0.0208,-0.31249 -0.0625,-0.4375 l 0.125,-0.625 -0.25,-0.3125 c 0.0208,-0.12499 0.0312,-0.23957 0.0312,-0.34375 -2e-5,-0.33332 -0.10418,-0.66666 -0.3125,-1 l -0.125,-0.8125 0,-0.1875 -0.125,-0.1875 -0.0625,-0.34375 -0.125,-0.28125 -0.125,-0.40625 -0.25,-0.28125 -0.40625,0.28125 0,0.5 c -0.29168,0.29168 -0.60418,0.71876 -0.9375,1.28125 l -0.125,0.0625 -0.125,0.125 -0.125,0.1875 c -0.25001,0.12501 -0.50001,0.31251 -0.75,0.5625 -0.0417,0.22918 -0.15626,0.45834 -0.34375,0.6875 -0.39585,0.14584 -0.82293,0.21876 -1.28125,0.21875 -0.27084,10e-6 -0.55209,-0.0208 -0.84375,-0.0625 -0.29168,-0.74999 -0.81251,-1.37499 -1.5625,-1.875 -0.14584,-0.22916 -0.37501,-0.44791 -0.6875,-0.65625 -0.0417,-0.37499 -0.23959,-0.72915 -0.59375,-1.0625 -0.18751,-0.0417 -0.38542,-0.0625 -0.59375,-0.0625 -0.33334,10e-6 -0.68751,0.0625 -1.0625,0.1875 l -0.1875,0.1875 c -1e-5,0.47918 -0.11459,0.98959 -0.34375,1.53125 l -0.46875,0.5625 0,0.0937 c 0,0.43751 -0.13542,0.90626 -0.40625,1.40625 0.0417,0.25001 0.0625,0.50001 0.0625,0.75 0,0.50001 -0.0937,1.00001 -0.28125,1.5 l -0.28125,-0.125 0,-0.0937 c 0,-0.27083 -0.0833,-0.51041 -0.25,-0.71875 l 0,-9.78125 c -0.0208,-0.0833 -0.0312,-0.18748 -0.0312,-0.3125 0,-0.12498 0.0104,-0.24998 0.0312,-0.375 l -0.125,-0.46875 0,-0.1875 c 0.10416,-0.24998 0.26041,-0.53123 0.46875,-0.84375 l 0,0 0,0 0,-0.0312 z"
         style=""
         id="path3104" />
    </g>
  </g>
</svg>
