<?xml version="1.0" encoding="UTF-8" standalone="no"?>
<!-- Created with Inkscape (http://www.inkscape.org/) -->

<svg
   xmlns:dc="http://purl.org/dc/elements/1.1/"
   xmlns:cc="http://creativecommons.org/ns#"
   xmlns:rdf="http://www.w3.org/1999/02/22-rdf-syntax-ns#"
   xmlns:svg="http://www.w3.org/2000/svg"
   xmlns="http://www.w3.org/2000/svg"
   xmlns:sodipodi="http://sodipodi.sourceforge.net/DTD/sodipodi-0.dtd"
   xmlns:inkscape="http://www.inkscape.org/namespaces/inkscape"
   version="1.1"
   width="20"
   height="30"
   id="svg2"
   inkscape:version="0.48.2 r9819"
   sodipodi:docname="Daedric_O.svg">
  <sodipodi:namedview
     pagecolor="#ffffff"
     bordercolor="#666666"
     borderopacity="1"
     objecttolerance="10"
     gridtolerance="10"
     guidetolerance="10"
     inkscape:pageopacity="0"
     inkscape:pageshadow="2"
     inkscape:window-width="1280"
     inkscape:window-height="972"
     id="namedview3123"
     showgrid="false"
     inkscape:zoom="7.8666667"
     inkscape:cx="10"
     inkscape:cy="15"
     inkscape:window-x="-8"
     inkscape:window-y="-8"
     inkscape:window-maximized="1"
     inkscape:current-layer="svg2" />
  <defs
     id="defs2992" />
  <metadata
     id="metadata7">
    <rdf:RDF>
      <cc:Work
         rdf:about="">
        <dc:format>image/svg+xml</dc:format>
        <dc:type
           rdf:resource="http://purl.org/dc/dcmitype/StillImage" />
        <dc:title />
      </cc:Work>
    </rdf:RDF>
  </metadata>
  <g
     transform="translate(-262.5,-531.07648)"
     id="layer1">
    <g
       style="font-size:32px;font-style:normal;font-variant:normal;font-weight:normal;font-stretch:normal;text-align:center;line-height:0%;letter-spacing:0px;word-spacing:0px;text-anchor:middle;fill:#d1d1d1;font-family:Daedric"
       id="text2985">
      <path
         d="m 273.51233,542.87836 0.125,0.0625 c 0.14582,0.68751 0.47915,1.35418 1,2 l 0,0.5625 c -0.12501,0.16668 -0.18751,0.35418 -0.1875,0.5625 -1e-5,0.12501 0.0208,0.25001 0.0625,0.375 -0.70835,1.04167 -1.32293,1.56251 -1.84375,1.5625 -0.0833,10e-6 -0.16668,-0.0208 -0.25,-0.0625 -0.20834,-0.0833 -0.45834,-0.22916 -0.75,-0.4375 -1e-5,-0.37499 -0.12501,-0.73958 -0.375,-1.09375 0.0833,-0.27083 0.12499,-0.56249 0.125,-0.875 -1e-5,-0.20832 -0.0208,-0.42707 -0.0625,-0.65625 l 0.0625,-0.5 c 0.14582,-0.24999 0.23957,-0.55207 0.28125,-0.90625 l 0.0625,-0.34375 0.8125,-0.4375 0,0 c 0.0417,10e-6 0.0833,-0.0208 0.125,-0.0625 l 0.875,0.125 z m -7.625,-7.71875 c 0.20833,0.0625 0.42708,0.0938 0.65625,0.0937 0.12499,2e-5 0.26041,-0.0104 0.40625,-0.0312 0.12499,0.0417 0.31249,0.0625 0.5625,0.0625 l 0.0625,-0.125 c 0.16666,0.0417 0.34374,0.0625 0.53125,0.0625 0.18749,2e-5 0.38541,-0.0208 0.59375,-0.0625 l 0.71875,0 c 0.20833,0.0417 0.43749,0.0625 0.6875,0.0625 0.24999,2e-5 0.52082,-0.0208 0.8125,-0.0625 l 0.1875,0.0625 0.3125,0.0625 c 0.24999,2e-5 0.53124,-0.0417 0.84375,-0.125 0.16666,0.0417 0.33332,0.0625 0.5,0.0625 0.16666,2e-5 0.33332,-0.0208 0.5,-0.0625 0.16665,0.0417 0.35415,0.0833 0.5625,0.125 l 0.71875,0 c 0.10415,-0.0417 0.21874,-0.0625 0.34375,-0.0625 0.12499,2e-5 0.24999,0.0208 0.375,0.0625 0.20832,-0.0833 0.43749,-0.12498 0.6875,-0.125 0.12499,2e-5 0.24999,0.0104 0.375,0.0312 l 0.25,-0.0625 0.75,0 c 0.31248,2e-5 0.70832,0.0417 1.1875,0.125 l 0.375,-0.125 0.1875,0.125 0.53125,-0.125 0.3125,0.125 0.4375,0.125 -0.0625,0.34375 c -0.79168,0.35418 -1.47918,0.94793 -2.0625,1.78125 0.0417,0.58335 0.31248,1.04168 0.8125,1.375 -2e-5,0.0625 -2e-5,0.12502 0,0.1875 -2e-5,0.37501 0.1354,0.72918 0.40625,1.0625 l -0.125,0.5 0.25,0.5625 c -2e-5,0.12501 -2e-5,0.25001 0,0.375 -2e-5,0.33335 0.0417,0.72918 0.125,1.1875 l 0,0.5 c 0.0417,0.22918 0.1354,0.45834 0.28125,0.6875 l 0,5.90625 -0.375,0.75 c 0.0417,0.1875 0.0625,0.38542 0.0625,0.59375 -2e-5,0.20834 -0.0208,0.4375 -0.0625,0.6875 l 0.125,0.625 -0.1875,0.34375 0.0625,0.625 c -0.16668,0.125 -0.33335,0.29167 -0.5,0.5 l 0,0.1875 c -2e-5,0.16667 0.0208,0.35417 0.0625,0.5625 -0.37502,0.375 -0.68752,0.91667 -0.9375,1.625 -0.50002,0.375 -0.89585,0.92708 -1.1875,1.65625 -0.79168,0.375 -1.4271,1.01041 -1.90625,1.90625 -0.37501,0.0417 -0.6771,0.24999 -0.90625,0.625 -0.0833,0.0208 -0.16668,0.0312 -0.25,0.0312 -0.10418,-1e-5 -0.21876,-0.0104 -0.34375,-0.0312 l 0,-0.0625 c -1e-5,-0.39584 0.21874,-0.59376 0.65625,-0.59375 l 0,-0.0937 c -1e-5,-0.45834 0.21874,-0.70834 0.65625,-0.75 0.16665,-0.25 0.30207,-0.58334 0.40625,-1 0.29165,-0.20834 0.4479,-0.52084 0.46875,-0.9375 0.16665,-0.125 0.27082,-0.3125 0.3125,-0.5625 l 0.46875,-0.40625 c -1e-5,-0.0833 -1e-5,-0.17708 0,-0.28125 -1e-5,-0.58333 0.1354,-1.19792 0.40625,-1.84375 l -0.125,-0.46875 0.125,-0.5625 c -0.0625,-0.16667 -0.0938,-0.35416 -0.0937,-0.5625 -2e-5,-0.125 0.0104,-0.25 0.0312,-0.375 l -0.0625,-0.4375 0.125,-0.125 -0.125,-0.5625 c 0.0833,-0.1875 0.12498,-0.41666 0.125,-0.6875 l -0.125,-0.1875 0.0625,-0.1875 0.0625,-0.28125 c -2e-5,-0.0417 -2e-5,-0.0833 0,-0.125 -2e-5,-0.20833 -0.0521,-0.44791 -0.15625,-0.71875 l 0,-0.9375 c -0.0417,-0.16666 -0.12502,-0.32291 -0.25,-0.46875 0.0417,-0.24999 0.0625,-0.49999 0.0625,-0.75 -2e-5,-0.45833 -0.0729,-0.93749 -0.21875,-1.4375 0.0417,-0.16666 0.0625,-0.33332 0.0625,-0.5 -1e-5,-0.58332 -0.14585,-1.16666 -0.4375,-1.75 -0.0208,-0.62499 -0.2396,-1.22915 -0.65625,-1.8125 -0.0417,-0.83332 -0.33335,-1.61457 -0.875,-2.34375 -0.12501,-0.45832 -0.37501,-0.91665 -0.75,-1.375 -0.45835,-0.22915 -1.00001,-0.34373 -1.625,-0.34375 l -0.25,0 -0.46875,-0.1875 0.25,0.5 c -0.29168,0.29168 -0.48959,0.68752 -0.59375,1.1875 -0.29168,0.20835 -0.55209,0.52085 -0.78125,0.9375 l -0.40625,0.34375 c -0.0833,0.16668 -0.12501,0.35418 -0.125,0.5625 -1e-5,0.12501 0.0208,0.26043 0.0625,0.40625 -0.18751,0.12501 -0.38542,0.32293 -0.59375,0.59375 -0.0417,0.41668 -0.18751,0.85418 -0.4375,1.3125 l 0,0.125 c -1e-5,0.33334 -0.0833,0.65626 -0.25,0.96875 l 0,0.875 -0.40625,0.625 0,6.375 c 0.29166,0.4375 0.54166,1.03125 0.75,1.78125 0.10416,0.125 0.19791,0.3125 0.28125,0.5625 l 0.375,0.34375 c 0.0417,0.29167 0.15624,0.5625 0.34375,0.8125 -0.0625,0.20833 -0.10417,0.4375 -0.125,0.6875 0.72916,0.4375 1.23957,1.10416 1.53125,2 0.16666,0 0.31249,0.0833 0.4375,0.25 -0.22918,0.125 -0.48959,0.1875 -0.78125,0.1875 -0.16668,0 -0.34376,-0.0208 -0.53125,-0.0625 -0.14584,-0.22917 -0.36459,-0.45834 -0.65625,-0.6875 -0.33334,-0.79167 -0.89584,-1.5 -1.6875,-2.125 -0.12501,-0.4375 -0.35417,-0.84375 -0.6875,-1.21875 l -0.0625,-0.125 -0.25,-0.1875 c -0.0625,-1.02083 -0.45834,-1.9375 -1.1875,-2.75 0.0417,-0.0833 0.0625,-0.16666 0.0625,-0.25 0,-0.20833 -0.0833,-0.41666 -0.25,-0.625 0,-0.0833 0,-0.16666 0,-0.25 0,-0.29166 -0.0729,-0.58333 -0.21875,-0.875 l -0.0625,-0.5625 0,-0.125 c 0,-0.16666 -0.0208,-0.35416 -0.0625,-0.5625 l -0.1875,-0.125 0,-0.1875 c 0.0208,-0.12499 0.0312,-0.24999 0.0312,-0.375 0,-0.43749 -0.10417,-0.88541 -0.3125,-1.34375 l -0.0625,-0.25 0.0625,-1.125 -0.125,-0.40625 c 0.0625,-0.20832 0.17708,-0.41666 0.34375,-0.625 0.0417,-0.12499 0.0625,-0.24999 0.0625,-0.375 0,-0.12499 -0.0208,-0.24999 -0.0625,-0.375 0.0417,-0.14582 0.0625,-0.3229 0.0625,-0.53125 l 0.125,-0.4375 0,-0.5625 c 0.125,-0.31249 0.20833,-0.67707 0.25,-1.09375 0.20833,-0.31249 0.34375,-0.6979 0.40625,-1.15625 l 0,-0.1875 0.125,-0.21875 c 0,-0.91665 -0.28125,-1.85415 -0.84375,-2.8125 l 0.5,-0.34375 0,0 0,-0.0312 z"
         style=""
         id="path3126" />
    </g>
  </g>
</svg>
