<?xml version="1.0" encoding="UTF-8" standalone="no"?>
<!-- Created with Inkscape (http://www.inkscape.org/) -->

<svg
   xmlns:dc="http://purl.org/dc/elements/1.1/"
   xmlns:cc="http://creativecommons.org/ns#"
   xmlns:rdf="http://www.w3.org/1999/02/22-rdf-syntax-ns#"
   xmlns:svg="http://www.w3.org/2000/svg"
   xmlns="http://www.w3.org/2000/svg"
   xmlns:sodipodi="http://sodipodi.sourceforge.net/DTD/sodipodi-0.dtd"
   xmlns:inkscape="http://www.inkscape.org/namespaces/inkscape"
   version="1.1"
   width="20"
   height="30"
   id="svg2"
   inkscape:version="0.48.2 r9819"
   sodipodi:docname="Daedric_Q.svg">
  <sodipodi:namedview
     pagecolor="#ffffff"
     bordercolor="#666666"
     borderopacity="1"
     objecttolerance="10"
     gridtolerance="10"
     guidetolerance="10"
     inkscape:pageopacity="0"
     inkscape:pageshadow="2"
     inkscape:window-width="1280"
     inkscape:window-height="972"
     id="namedview3145"
     showgrid="false"
     inkscape:zoom="7.8666667"
     inkscape:cx="10"
     inkscape:cy="15"
     inkscape:window-x="-8"
     inkscape:window-y="-8"
     inkscape:window-maximized="1"
     inkscape:current-layer="svg2" />
  <defs
     id="defs2992" />
  <metadata
     id="metadata7">
    <rdf:RDF>
      <cc:Work
         rdf:about="">
        <dc:format>image/svg+xml</dc:format>
        <dc:type
           rdf:resource="http://purl.org/dc/dcmitype/StillImage" />
        <dc:title />
      </cc:Work>
    </rdf:RDF>
  </metadata>
  <g
     transform="translate(-262.5,-531.07648)"
     id="layer1">
    <g
       style="font-size:32px;font-style:normal;font-variant:normal;font-weight:normal;font-stretch:normal;text-align:center;line-height:0%;letter-spacing:0px;word-spacing:0px;text-anchor:middle;fill:#d1d1d1;font-family:Daedric"
       id="text2985">
      <path
         d="m 276.32483,536.53461 c -0.43751,0.12502 -0.84376,0.39585 -1.21875,0.8125 l 0,0 c -0.0417,2e-5 -0.0729,0.0208 -0.0937,0.0625 l -4.53125,0 c -0.25001,-0.16665 -0.42709,-0.39582 -0.53125,-0.6875 -0.25001,2e-5 -0.50001,-0.0937 -0.75,-0.28125 0.0833,0.29168 0.26041,0.54168 0.53125,0.75 0.0625,0.31252 0.21874,0.59377 0.46875,0.84375 0.10416,0.33335 0.31249,0.65627 0.625,0.96875 0.0417,0.41668 0.18749,0.8646 0.4375,1.34375 0.0208,0.0833 0.0729,0.15626 0.15625,0.21875 l 0.1875,0.1875 c 0.0417,0.18751 0.0625,0.39585 0.0625,0.625 l 0,0.1875 c 0.0833,0.29168 0.27083,0.56251 0.5625,0.8125 -0.0417,0.14585 -0.0625,0.29168 -0.0625,0.4375 -1e-5,0.43751 0.12499,0.86459 0.375,1.28125 -0.0417,0.0833 -0.0625,0.16668 -0.0625,0.25 -1e-5,0.12501 0.0417,0.25001 0.125,0.375 -1e-5,0.0417 -1e-5,0.0938 0,0.15625 -1e-5,0.14584 -0.0208,0.30209 -0.0625,0.46875 l 0.0625,0.25 0.125,0.1875 c 0.33332,-0.33332 0.49999,-0.72916 0.5,-1.1875 -1e-5,-0.12499 -0.0104,-0.24999 -0.0312,-0.375 0.12499,-0.20832 0.18749,-0.46874 0.1875,-0.78125 -1e-5,-0.0833 -1e-5,-0.17707 0,-0.28125 0.33332,-0.41666 0.55207,-0.91665 0.65625,-1.5 0.24999,-0.22915 0.37499,-0.54165 0.375,-0.9375 l 0,-0.0625 c 0.62499,-0.52082 1.03124,-1.36457 1.21875,-2.53125 0.29165,-0.20832 0.56249,-0.52082 0.8125,-0.9375 l 0.125,-0.0625 0.125,-0.1875 c 0.0417,2e-5 0.0833,-0.0312 0.125,-0.0937 0.0625,-0.0833 0.0937,-0.14582 0.0937,-0.1875 -1e-5,-0.10415 -0.0833,-0.16665 -0.25,-0.1875 l -0.25,0.1875 z m -6.6875,-1.375 c 0.24999,0.0833 0.54166,0.12502 0.875,0.125 l 1.625,0 0.34375,-0.125 c 0.33332,0.12502 0.70832,0.18752 1.125,0.1875 0.20832,2e-5 0.42707,-0.0208 0.65625,-0.0625 l 0.0625,0 c 0.16666,2e-5 0.35416,0.0417 0.5625,0.125 l 0.125,-0.0625 c 0.24999,2e-5 0.55207,-0.0208 0.90625,-0.0625 0.16665,0.0417 0.34374,0.0625 0.53125,0.0625 0.20832,2e-5 0.41665,-0.0208 0.625,-0.0625 0.12499,2e-5 0.27082,0.0208 0.4375,0.0625 l 0.1875,0 0.1875,-0.0625 c 0.33332,0.0208 0.70832,0.1146 1.125,0.28125 -0.0417,0.20835 -0.14585,0.43752 -0.3125,0.6875 -2e-5,0.12502 -0.0208,0.29168 -0.0625,0.5 l -0.25,0.28125 -0.0625,0.125 c -0.64585,0.45835 -1.08335,1.13543 -1.3125,2.03125 -0.29168,0.31251 -0.50001,0.7396 -0.625,1.28125 -0.33335,0.33335 -0.5521,0.77085 -0.65625,1.3125 l -0.21875,0.34375 c -0.0417,0.12501 -0.0625,0.26043 -0.0625,0.40625 -1e-5,0.14585 0.0208,0.30209 0.0625,0.46875 -0.20835,0.16668 -0.37501,0.41668 -0.5,0.75 l -0.125,0.125 -0.1875,0.1875 0,1.03125 c -0.12501,0.16668 -0.18751,0.35418 -0.1875,0.5625 -0.22918,0.25001 -0.34376,0.56251 -0.34375,0.9375 -0.14584,0.14584 -0.26043,0.34376 -0.34375,0.59375 l -0.0625,0.25 0.0625,0.40625 c -0.0833,0.12501 -0.13543,0.27084 -0.15625,0.4375 0.0833,0.25001 0.27082,0.37501 0.5625,0.375 l 0.0625,0 0.0625,0.1875 0.0625,0 c 0.12499,10e-6 0.27082,-0.0417 0.4375,-0.125 0.10416,0.0417 0.21874,0.0625 0.34375,0.0625 0.12499,10e-6 0.24999,-0.0208 0.375,-0.0625 0.12499,0.0833 0.29165,0.12501 0.5,0.125 l 0.1875,-0.125 c 0.10415,0.0417 0.21874,0.0625 0.34375,0.0625 0.12499,10e-6 0.24999,-0.0208 0.375,-0.0625 l 0.375,0.125 0.40625,-0.0625 0.125,0.0625 c 0.10415,10e-6 0.21874,-0.0208 0.34375,-0.0625 l 0.3125,0.0625 0.21875,0.0625 c 0.0833,0.12501 0.1979,0.25001 0.34375,0.375 l -0.0625,1.90625 c 0.0208,0.125 0.0521,0.26042 0.0937,0.40625 l -0.25,1.09375 c 0.0417,0.0833 0.0625,0.17708 0.0625,0.28125 -2e-5,0.0417 -2e-5,0.0833 0,0.125 l -0.0625,0 c -0.12502,0 -0.25002,-0.0417 -0.375,-0.125 l 0,-0.125 c -1e-5,-0.79166 -0.34376,-1.51041 -1.03125,-2.15625 -0.29168,-0.0833 -0.59376,-0.125 -0.90625,-0.125 -0.25001,0 -0.50001,0.0208 -0.75,0.0625 -0.10418,-0.0417 -0.21876,-0.0625 -0.34375,-0.0625 -0.12501,0 -0.26043,0.0208 -0.40625,0.0625 l -0.1875,0 -0.25,-0.0625 -0.4375,0.125 -0.34375,0 c 0.0208,0.20834 0.0937,0.40625 0.21875,0.59375 -0.0417,0.29167 -0.0625,0.58334 -0.0625,0.875 -1e-5,0.875 0.20832,1.64583 0.625,2.3125 -0.0208,0.125 -0.0521,0.25 -0.0937,0.375 l 0,0.1875 c 0.10416,0.20833 0.26041,0.40625 0.46875,0.59375 l 0.0625,0.1875 0.125,0.0625 c 0.0208,0.20833 0.0729,0.42708 0.15625,0.65625 0.14582,0.125 0.2604,0.29166 0.34375,0.5 -0.12501,0.125 -0.26043,0.28125 -0.40625,0.46875 -0.18751,-0.0417 -0.38543,-0.0625 -0.59375,-0.0625 -0.29168,0 -0.58334,0.0417 -0.875,0.125 l -0.5,0 c -0.25001,-0.0625 -0.52084,-0.0937 -0.8125,-0.0937 -0.29168,0 -0.59376,0.0312 -0.90625,0.0937 l -0.21875,-0.125 -0.25,0.125 -0.34375,-0.0625 -0.25,-0.125 -0.28125,0.0625 -0.40625,0.0625 -0.1875,-0.125 0.125,-0.40625 c 0.16666,-0.29167 0.27083,-0.625 0.3125,-1 l 0.0625,-0.1875 0.0625,-0.1875 0,-0.40625 0.0625,-0.125 c 0.12499,-0.0833 0.24999,-0.20833 0.375,-0.375 l -0.0625,-0.5 c 0.16666,-0.16667 0.29166,-0.375 0.375,-0.625 -0.0208,-0.0833 -0.0313,-0.16667 -0.0312,-0.25 -1e-5,-0.16667 0.0521,-0.34375 0.15625,-0.53125 l -0.25,-0.28125 c 0.20833,-0.20833 0.35416,-0.45833 0.4375,-0.75 -0.0833,-0.16666 -0.12501,-0.36458 -0.125,-0.59375 l 0,-0.0937 -0.125,-0.375 -0.125,-0.125 c -0.12501,0.0208 -0.25001,0.0521 -0.375,0.0937 -0.0833,-0.0417 -0.18751,-0.0625 -0.3125,-0.0625 -0.12501,0 -0.25001,0.0208 -0.375,0.0625 l -0.375,-0.125 -0.1875,0 -0.125,0.0625 -0.1875,-0.0625 -0.1875,0 c -0.0833,0.0208 -0.17709,0.0312 -0.28125,0.0312 -0.10417,0 -0.21875,-0.0104 -0.34375,-0.0312 l -0.8125,0.1875 -0.3125,0.34375 c 0.0625,0.20834 0.0937,0.41667 0.0937,0.625 0,0.47917 -0.1875,0.92709 -0.5625,1.34375 -0.1875,0.10417 -0.34375,0.15625 -0.46875,0.15625 -0.20834,0 -0.3125,-0.1875 -0.3125,-0.5625 l 0,-0.0625 c 0,-0.0833 0,-0.16666 0,-0.25 0,-0.29166 0.0417,-0.60416 0.125,-0.9375 l -0.125,-0.46875 0,-0.40625 c 0.0833,-0.20833 0.125,-0.4375 0.125,-0.6875 0,-0.0833 0,-0.16666 0,-0.25 l 0.0625,-0.125 c 0,-0.0417 0,-0.0833 0,-0.125 0,-0.12499 -0.0208,-0.23958 -0.0625,-0.34375 l 0.0625,-0.1875 c 0.22916,-0.0833 0.46875,-0.12499 0.71875,-0.125 0.20833,10e-6 0.41666,0.0208 0.625,0.0625 0.125,-0.0417 0.26041,-0.0625 0.40625,-0.0625 0.14583,10e-6 0.29166,0.0208 0.4375,0.0625 l 0.1875,-0.125 0.375,0.125 c 0.10416,10e-6 0.19791,-0.0417 0.28125,-0.125 l 0.5,0.125 c 0.0833,-0.0417 0.18749,-0.0625 0.3125,-0.0625 0.12499,10e-6 0.24999,0.0208 0.375,0.0625 l 0,0 c 0.0417,10e-6 0.0833,-0.0208 0.125,-0.0625 l 0.25,0.0625 0.34375,-0.0625 0.21875,-0.3125 -0.21875,-0.6875 c 0.0208,-0.12499 0.0312,-0.26041 0.0312,-0.40625 -1e-5,-0.29166 -0.0521,-0.60416 -0.15625,-0.9375 0.0208,-0.16666 0.0312,-0.34374 0.0312,-0.53125 -1e-5,-0.79166 -0.19792,-1.60416 -0.59375,-2.4375 -1e-5,-0.0417 -1e-5,-0.0937 0,-0.15625 -1e-5,-0.37499 -0.12501,-0.74999 -0.375,-1.125 -0.0833,-0.79165 -0.38542,-1.56249 -0.90625,-2.3125 l 0,-0.0937 c -1e-5,-0.14582 -0.0208,-0.30207 -0.0625,-0.46875 l -0.4375,-0.5 -0.25,-0.40625 c -0.14584,-0.14582 -0.33334,-0.30207 -0.5625,-0.46875 0,-0.0417 -0.0417,-0.0833 -0.125,-0.125 0,-0.0417 -0.0312,-0.0833 -0.0937,-0.125 -0.0625,-0.20832 -0.19792,-0.3854 -0.40625,-0.53125 l -0.1875,-0.1875 c -0.14584,-0.37498 -0.40625,-0.72915 -0.78125,-1.0625 l -0.0625,-0.3125 0.125,-0.125 c 0.3125,2e-5 0.69791,-0.0625 1.15625,-0.1875 l 0.75,0 0.1875,0.0625 0.1875,-0.0625 0.8125,0 0.1875,-0.125 0,0 0,-0.0312 z"
         style=""
         id="path3148" />
    </g>
  </g>
</svg>
