<?xml version="1.0" encoding="UTF-8" standalone="no"?>
<!-- Created with Inkscape (http://www.inkscape.org/) -->

<svg
   xmlns:dc="http://purl.org/dc/elements/1.1/"
   xmlns:cc="http://creativecommons.org/ns#"
   xmlns:rdf="http://www.w3.org/1999/02/22-rdf-syntax-ns#"
   xmlns:svg="http://www.w3.org/2000/svg"
   xmlns="http://www.w3.org/2000/svg"
   xmlns:sodipodi="http://sodipodi.sourceforge.net/DTD/sodipodi-0.dtd"
   xmlns:inkscape="http://www.inkscape.org/namespaces/inkscape"
   version="1.1"
   width="20"
   height="30"
   id="svg2"
   inkscape:version="0.48.2 r9819"
   sodipodi:docname="Daedric_R.svg">
  <sodipodi:namedview
     pagecolor="#ffffff"
     bordercolor="#666666"
     borderopacity="1"
     objecttolerance="10"
     gridtolerance="10"
     guidetolerance="10"
     inkscape:pageopacity="0"
     inkscape:pageshadow="2"
     inkscape:window-width="1280"
     inkscape:window-height="972"
     id="namedview2991"
     showgrid="false"
     inkscape:zoom="26.1"
     inkscape:cx="10"
     inkscape:cy="12.808157"
     inkscape:window-x="-8"
     inkscape:window-y="-8"
     inkscape:window-maximized="1"
     inkscape:current-layer="svg2" />
  <defs
     id="defs2992" />
  <metadata
     id="metadata7">
    <rdf:RDF>
      <cc:Work
         rdf:about="">
        <dc:format>image/svg+xml</dc:format>
        <dc:type
           rdf:resource="http://purl.org/dc/dcmitype/StillImage" />
        <dc:title />
      </cc:Work>
    </rdf:RDF>
  </metadata>
  <g
     transform="translate(-262.5,-531.07648)"
     id="layer1">
    <g
       style="font-size:32px;font-style:normal;font-variant:normal;font-weight:normal;font-stretch:normal;text-align:center;line-height:0%;letter-spacing:0px;word-spacing:0px;text-anchor:middle;fill:#d1d1d1;font-family:Daedric"
       id="text2985">
      <path
         d="m 272.60608,535.22211 c 0.33332,0.0208 0.64582,0.13544 0.9375,0.34375 0.29166,-0.0833 0.62499,-0.12498 1,-0.125 l 1.96875,0 c 0.29165,0.50002 0.74999,0.77085 1.375,0.8125 0.10415,0.16668 0.2604,0.31252 0.46875,0.4375 0.0625,0.20835 0.15623,0.45835 0.28125,0.75 l 0,0.1875 0.0625,0.125 c 0.20832,0.16668 0.37498,0.39585 0.5,0.6875 l 0.25,0.53125 0.0625,0.125 0.125,0.28125 -0.3125,0.375 c -0.62502,0.0208 -1.18751,0.26043 -1.6875,0.71875 l -0.3125,0 c -0.29168,10e-6 -0.58335,0.10418 -0.875,0.3125 -0.25001,-0.0833 -0.53126,-0.12499 -0.84375,-0.125 -0.0833,10e-6 -0.1771,10e-6 -0.28125,0 -0.12501,0.29168 -0.35418,0.4896 -0.6875,0.59375 -0.0833,0.10418 -0.14584,0.2396 -0.1875,0.40625 -0.0833,0.0417 -0.16668,0.0625 -0.25,0.0625 -0.12501,10e-6 -0.26043,-0.0417 -0.40625,-0.125 -0.25001,0.16668 -0.47918,0.39585 -0.6875,0.6875 l 0,0 c -0.0417,10e-6 -0.0833,0.0208 -0.125,0.0625 -0.52084,10e-6 -1.00001,0.22918 -1.4375,0.6875 l 0,0.0937 c -1e-5,0.14584 0.0208,0.31251 0.0625,0.5 -0.16667,0.12501 -0.33334,0.31251 -0.5,0.5625 -1e-5,0.0833 -1e-5,0.16668 0,0.25 -1e-5,0.20834 -0.0208,0.41668 -0.0625,0.625 l 0,0.3125 -0.0625,0.125 0,1.6875 -0.125,0.25 0.125,0.25 c -0.0417,0.16667 -0.0625,0.33334 -0.0625,0.5 -1e-5,0.0833 -1e-5,0.16667 0,0.25 l -0.0625,0.4375 0.125,0.125 c -1e-5,0.10417 -1e-5,0.21876 0,0.34375 -1e-5,0.33334 0.0625,0.6875 0.1875,1.0625 -0.0417,0.16667 -0.0625,0.35417 -0.0625,0.5625 l 0,0.25 0.125,0.25 0.125,0.25 c -0.0833,0.125 -0.15626,0.27084 -0.21875,0.4375 l 0.25,0.1875 0,1.1875 c 0.0625,0.22917 0.17708,0.48958 0.34375,0.78125 -0.0625,0.1875 -0.0938,0.375 -0.0937,0.5625 -1e-5,0.33333 0.0833,0.66667 0.25,1 -0.0625,0.10417 -0.0938,0.20833 -0.0937,0.3125 -1e-5,0.16666 0.0729,0.32291 0.21875,0.46875 -1e-5,0.0625 -1e-5,0.13541 0,0.21875 -1e-5,0.16666 0.0208,0.33333 0.0625,0.5 l -0.0625,0.1875 -0.0625,0.125 -0.3125,0.0625 c -0.14584,-0.16667 -0.21876,-0.39584 -0.21875,-0.6875 -0.20834,-0.125 -0.31251,-0.3125 -0.3125,-0.5625 l 0,-0.0312 c -0.0833,-0.125 -0.16667,-0.28125 -0.25,-0.46875 -0.18751,-0.20833 -0.30209,-0.5 -0.34375,-0.875 l -0.3125,-0.3125 -0.25,-0.4375 -0.0625,-0.125 c -1e-5,-0.0417 -0.0313,-0.0833 -0.0937,-0.125 -0.0833,-0.20833 -0.12501,-0.42708 -0.125,-0.65625 -1e-5,-0.16667 0.0208,-0.33333 0.0625,-0.5 -0.25001,-0.39583 -0.39584,-0.86458 -0.4375,-1.40625 l -0.40625,-0.46875 c -1e-5,-0.33333 -0.10417,-0.65625 -0.3125,-0.96875 0.0208,-0.0833 0.0312,-0.15625 0.0312,-0.21875 -1e-5,-0.20833 -0.0729,-0.41666 -0.21875,-0.625 -0.0417,-0.0833 -0.0625,-0.18749 -0.0625,-0.3125 -1e-5,-0.12499 0.0208,-0.26041 0.0625,-0.40625 -0.125,-0.16666 -0.22917,-0.38541 -0.3125,-0.65625 l -0.0625,-0.9375 -0.1875,-0.1875 0,-0.0312 c 0,-0.22916 -0.10417,-0.41666 -0.3125,-0.5625 0.125,-0.29166 0.1875,-0.60416 0.1875,-0.9375 0,-0.20832 -0.0312,-0.43749 -0.0937,-0.6875 0.0833,-0.24999 0.125,-0.53124 0.125,-0.84375 0,-0.0833 0,-0.16666 0,-0.25 0.25,-0.16666 0.375,-0.39582 0.375,-0.6875 0,-0.0417 0,-0.0833 0,-0.125 l 0.25,-0.25 c 0.54166,-0.12499 1.04166,-0.43749 1.5,-0.9375 0.70833,-0.12499 1.37499,-0.47915 2,-1.0625 0.0417,10e-6 0.0833,10e-6 0.125,0 0.39582,10e-6 0.90624,-0.20832 1.53125,-0.625 0.31249,-0.12499 0.63541,-0.34374 0.96875,-0.65625 -0.20834,-0.16665 -0.45834,-0.27082 -0.75,-0.3125 -0.33334,-0.35415 -0.77084,-0.53123 -1.3125,-0.53125 l -0.0937,0 c -0.52084,-0.37498 -1.13542,-0.56248 -1.84375,-0.5625 -0.12501,2e-5 -0.25001,2e-5 -0.375,0 -0.18751,-0.0417 -0.37501,-0.0625 -0.5625,-0.0625 -0.60417,2e-5 -1.17709,0.19793 -1.71875,0.59375 -0.8125,0.0625 -1.51042,0.44793 -2.09375,1.15625 l -0.3125,0 -0.3125,-0.40625 c 0.33333,-0.27082 0.5625,-0.62498 0.6875,-1.0625 0.3125,-0.16665 0.55208,-0.43748 0.71875,-0.8125 0.47916,-0.0833 0.91666,-0.3229 1.3125,-0.71875 0.41666,-0.12498 0.83333,-0.35415 1.25,-0.6875 l 0.125,0 c 0.33333,2e-5 0.67708,-0.0833 1.03125,-0.25 0.16666,0.0417 0.32291,0.0625 0.46875,0.0625 0.16666,2e-5 0.32291,-0.0208 0.46875,-0.0625 l 0.6875,0 c 0.20832,-0.0208 0.41666,-0.0937 0.625,-0.21875 l 0,0 0,0 0,-0.0312 z"
         style=""
         id="path2994" />
    </g>
  </g>
</svg>
