<?xml version="1.0" encoding="UTF-8" standalone="no"?>
<!-- Created with Inkscape (http://www.inkscape.org/) -->

<svg
   xmlns:dc="http://purl.org/dc/elements/1.1/"
   xmlns:cc="http://creativecommons.org/ns#"
   xmlns:rdf="http://www.w3.org/1999/02/22-rdf-syntax-ns#"
   xmlns:svg="http://www.w3.org/2000/svg"
   xmlns="http://www.w3.org/2000/svg"
   xmlns:sodipodi="http://sodipodi.sourceforge.net/DTD/sodipodi-0.dtd"
   xmlns:inkscape="http://www.inkscape.org/namespaces/inkscape"
   version="1.1"
   width="20"
   height="30"
   id="svg2"
   inkscape:version="0.48.2 r9819"
   sodipodi:docname="Daedric_S.svg">
  <sodipodi:namedview
     pagecolor="#ffffff"
     bordercolor="#666666"
     borderopacity="1"
     objecttolerance="10"
     gridtolerance="10"
     guidetolerance="10"
     inkscape:pageopacity="0"
     inkscape:pageshadow="2"
     inkscape:window-width="1280"
     inkscape:window-height="972"
     id="namedview3164"
     showgrid="false"
     inkscape:zoom="7.8666667"
     inkscape:cx="10"
     inkscape:cy="15"
     inkscape:window-x="-8"
     inkscape:window-y="-8"
     inkscape:window-maximized="1"
     inkscape:current-layer="svg2" />
  <defs
     id="defs2992" />
  <metadata
     id="metadata7">
    <rdf:RDF>
      <cc:Work
         rdf:about="">
        <dc:format>image/svg+xml</dc:format>
        <dc:type
           rdf:resource="http://purl.org/dc/dcmitype/StillImage" />
        <dc:title />
      </cc:Work>
    </rdf:RDF>
  </metadata>
  <g
     transform="translate(-262.5,-531.07648)"
     id="layer1">
    <g
       style="font-size:32px;font-style:normal;font-variant:normal;font-weight:normal;font-stretch:normal;text-align:center;line-height:0%;letter-spacing:0px;word-spacing:0px;text-anchor:middle;fill:#d1d1d1;font-family:Daedric"
       id="text2985">
      <path
         d="m 277.73108,536.78461 c 0.49999,0.75002 0.74999,1.60418 0.75,2.5625 -1e-5,0.25001 -0.0208,0.50001 -0.0625,0.75 l -0.0312,0.25 -0.25,0.0312 c -0.0417,10e-6 -0.0833,10e-6 -0.125,0 -0.27085,10e-6 -0.52085,-0.10415 -0.75,-0.3125 l -0.0625,-0.0625 -0.0312,-0.0937 c -0.0417,-0.16665 -0.0625,-0.3854 -0.0625,-0.65625 -0.0833,-0.12498 -0.22918,-0.36457 -0.4375,-0.71875 -0.14585,-0.24998 -0.26043,-0.42707 -0.34375,-0.53125 -0.20835,-0.24998 -0.51043,-0.37498 -0.90625,-0.375 -0.0625,2e-5 -0.13543,2e-5 -0.21875,0 l -0.6875,-0.1875 -0.6875,-0.1875 c -1e-5,2e-5 -0.0625,2e-5 -0.1875,0 l -0.21875,0 c -0.16668,2e-5 -0.28126,2e-5 -0.34375,0 l -0.0625,0 c 0.0417,0.0208 0.17707,0.13543 0.40625,0.34375 0.24999,0.20835 0.39582,0.33335 0.4375,0.375 l 0.4375,0.25 0.0625,0.3125 c -1e-5,0.0833 0.0521,0.14585 0.15625,0.1875 0.12499,0.0417 0.20832,0.0833 0.25,0.125 l 0.0625,0.0625 0.0625,0.375 c 0.20832,0.27085 0.45832,0.63543 0.75,1.09375 l 0.0625,0.125 -0.0625,0.125 c -0.0417,0.10418 -0.0625,0.20835 -0.0625,0.3125 -1e-5,0.25001 0.0833,0.50001 0.25,0.75 l 0.0625,0.0625 0,2.8125 -0.125,0.4375 -0.1875,0.0625 c -0.0417,10e-6 -0.0833,10e-6 -0.125,0 -0.18751,10e-6 -0.38543,-0.0625 -0.59375,-0.1875 l -0.125,-0.0625 0,-0.1875 c -0.0208,-0.29166 -0.18751,-0.49999 -0.5,-0.625 l -0.0625,-0.0312 -0.0625,-0.0625 c -0.12501,-0.20832 -0.33334,-0.35416 -0.625,-0.4375 l -0.0937,-0.0312 -0.0625,-0.0625 c -0.20834,-0.27082 -0.45834,-0.48957 -0.75,-0.65625 0.0625,0.10418 0.13541,0.21876 0.21875,0.34375 l 0.0625,0.125 0.125,0.0625 0.0625,0.3125 c 0.0417,0.0833 0.10416,0.15626 0.1875,0.21875 l 0.1875,0.15625 0.0312,0.15625 c -1e-5,0.12501 0.0208,0.27084 0.0625,0.4375 0.18749,0.10418 0.38541,0.25001 0.59375,0.4375 l 0.0625,0.0625 0,0.0937 c 0.0417,0.16668 0.13541,0.33334 0.28125,0.5 l 0.0937,0.0625 0,0.25 0.0625,0.40625 c 0.83332,0.85417 1.33332,1.93751 1.5,3.25 l 0.25,0.4375 0.40625,0.40625 -0.0625,0.1875 c -0.0417,0.125 -0.0625,0.26042 -0.0625,0.40625 -1e-5,0.16667 0.0312,0.34375 0.0937,0.53125 l 0.0312,0.125 -0.0625,0.125 c -0.0833,0.20834 -0.12501,0.4375 -0.125,0.6875 -1e-5,0.125 0.0208,0.26042 0.0625,0.40625 l 0.0312,0.125 -0.0937,0.125 c -0.27085,0.33333 -0.44793,0.75 -0.53125,1.25 l 0,0.0937 -0.0625,0.0625 c -0.12501,0.125 -0.25001,0.3125 -0.375,0.5625 l -0.0625,0.0937 -0.0937,0.0625 c -0.35418,0.1875 -0.57293,0.5 -0.65625,0.9375 l 0,0.0937 -0.0625,0.0625 c -0.16668,0.16666 -0.39584,0.32291 -0.6875,0.46875 l -0.0625,0.125 c -0.20834,0.20833 -0.47918,0.375 -0.8125,0.5 l -0.0625,0.0312 -0.0625,0 c -0.18751,-0.0417 -0.32293,-0.13542 -0.40625,-0.28125 -0.0625,-0.0833 -0.0938,-0.1875 -0.0937,-0.3125 -1e-5,-0.0833 0.0208,-0.16667 0.0625,-0.25 l 0.0625,-0.25 0.4375,0 0.4375,-0.46875 c 0.0833,-0.0833 0.18749,-0.20833 0.3125,-0.375 l 0.0625,-0.0625 0.1875,-0.125 c 0.0208,-0.0833 0.0312,-0.1875 0.0312,-0.3125 l 0,-0.125 0.0625,-0.0937 c 0.35416,-0.375 0.54166,-0.88542 0.5625,-1.53125 l 0,-0.125 0.1875,-0.1875 c -1e-5,-0.22917 -0.0417,-0.45833 -0.125,-0.6875 l -0.0312,-0.0937 0,-0.0625 c 0.0417,-0.10416 0.0625,-0.21875 0.0625,-0.34375 -1e-5,-0.25 -0.0833,-0.51041 -0.25,-0.78125 l -0.0625,-0.0625 0,-0.0625 c -1e-5,-0.58333 -0.17709,-1.1875 -0.53125,-1.8125 l -0.0312,-0.0625 0,-0.46875 c -0.25001,-0.22916 -0.45834,-0.51041 -0.625,-0.84375 l -0.375,-0.3125 0,-0.125 c -1e-5,-0.12499 -0.0417,-0.24999 -0.125,-0.375 l -0.375,-0.25 -0.0312,-0.125 c -0.0833,-0.20833 -0.20834,-0.41666 -0.375,-0.625 l -0.0625,-0.1875 c -0.25001,-0.16666 -0.52084,-0.40624 -0.8125,-0.71875 l -0.0625,-0.0937 c -0.0417,-0.0833 -0.10417,-0.15624 -0.1875,-0.21875 l -0.0625,-0.0625 -0.125,-0.375 -0.0937,-0.125 c -0.12501,-0.0833 -0.27084,-0.18749 -0.4375,-0.3125 l -0.15625,-0.0625 -0.28125,-0.3125 -0.0312,-0.0625 c -0.0833,-0.24999 -0.26042,-0.46874 -0.53125,-0.65625 l -0.4375,-0.4375 -0.4375,-0.125 -0.0625,-0.0625 c -0.22917,-0.24999 -0.57292,-0.54165 -1.03125,-0.875 l -0.125,-0.0625 -0.125,-0.1875 -0.28125,-0.1875 0.0312,-0.1875 c 0.0417,-0.24999 0.1875,-0.45832 0.4375,-0.625 l 0.0625,-0.0625 2.5625,0.0312 c 0.24999,0.12501 0.56249,0.18751 0.9375,0.1875 l 0.0937,0 c 0.16666,0.0625 0.37499,0.0938 0.625,0.0937 l 0.0625,0 0.0625,0.0312 c 0.12499,0.0833 0.29166,0.14585 0.5,0.1875 l 0.21875,0 0.4375,0.25 0.3125,0 0.28125,0.25 c 0.0833,10e-6 0.16666,10e-6 0.25,0 -0.12501,-0.24999 -0.31251,-0.47915 -0.5625,-0.6875 l -0.0625,-0.0625 0,-0.0625 c -0.0625,-0.20832 -0.18751,-0.39582 -0.375,-0.5625 l -0.0625,-0.0625 -0.28125,-0.46875 0,-0.15625 c -0.85417,-0.29165 -1.42709,-0.85415 -1.71875,-1.6875 -0.62501,-0.16665 -1.16667,-0.56248 -1.625,-1.1875 l -0.125,-0.15625 0.3125,-0.625 0.25,0.0625 c 0.16666,0.0417 0.34374,0.0625 0.53125,0.0625 0.29166,2e-5 0.59374,-0.0625 0.90625,-0.1875 l 0.125,0 0.625,0 c 0.18749,0.0625 0.40624,0.0938 0.65625,0.0937 l 0.96875,0 0.46875,-0.125 0.0937,0.0312 c 0.20832,0.0833 0.43749,0.12502 0.6875,0.125 0.20832,2e-5 0.41666,-0.0208 0.625,-0.0625 l 0.0625,0 0.4375,0.0625 0.125,0 c 0.20832,2e-5 0.45832,0.0208 0.75,0.0625 l 0.1875,-0.0625 0.375,0.0937 0.0625,0.0625 c 0.35415,0.33335 0.5729,0.77085 0.65625,1.3125 l 0,0 0,0 0,-0.0312 z"
         style=""
         id="path3167" />
    </g>
  </g>
</svg>
