<?xml version="1.0" encoding="UTF-8" standalone="no"?>
<!-- Created with Inkscape (http://www.inkscape.org/) -->

<svg
   xmlns:dc="http://purl.org/dc/elements/1.1/"
   xmlns:cc="http://creativecommons.org/ns#"
   xmlns:rdf="http://www.w3.org/1999/02/22-rdf-syntax-ns#"
   xmlns:svg="http://www.w3.org/2000/svg"
   xmlns="http://www.w3.org/2000/svg"
   xmlns:sodipodi="http://sodipodi.sourceforge.net/DTD/sodipodi-0.dtd"
   xmlns:inkscape="http://www.inkscape.org/namespaces/inkscape"
   version="1.1"
   width="20"
   height="30"
   id="svg2"
   inkscape:version="0.48.2 r9819"
   sodipodi:docname="Daedric_T.svg">
  <sodipodi:namedview
     pagecolor="#ffffff"
     bordercolor="#666666"
     borderopacity="1"
     objecttolerance="10"
     gridtolerance="10"
     guidetolerance="10"
     inkscape:pageopacity="0"
     inkscape:pageshadow="2"
     inkscape:window-width="1280"
     inkscape:window-height="972"
     id="namedview3175"
     showgrid="false"
     inkscape:zoom="7.8666667"
     inkscape:cx="10"
     inkscape:cy="15"
     inkscape:window-x="-8"
     inkscape:window-y="-8"
     inkscape:window-maximized="1"
     inkscape:current-layer="svg2" />
  <defs
     id="defs2992" />
  <metadata
     id="metadata7">
    <rdf:RDF>
      <cc:Work
         rdf:about="">
        <dc:format>image/svg+xml</dc:format>
        <dc:type
           rdf:resource="http://purl.org/dc/dcmitype/StillImage" />
        <dc:title />
      </cc:Work>
    </rdf:RDF>
  </metadata>
  <g
     transform="translate(-262.5,-531.07648)"
     id="layer1">
    <g
       style="font-size:32px;font-style:normal;font-variant:normal;font-weight:normal;font-stretch:normal;text-align:center;line-height:0%;letter-spacing:0px;word-spacing:0px;text-anchor:middle;fill:#d1d1d1;font-family:Daedric"
       id="text2985">
      <path
         d="m 270.73108,532.03461 c 0.24999,0.0209 0.52083,0.13544 0.8125,0.34375 0.0833,2e-5 0.16666,2e-5 0.25,0 0.33332,2e-5 0.67707,0.0834 1.03125,0.25 0.0833,-0.0208 0.16666,-0.0312 0.25,-0.0312 0.29166,2e-5 0.60416,0.0834 0.9375,0.25 l 0.5625,0 0.8125,0.5625 0.625,0 c 0.18749,0.14585 0.41665,0.2396 0.6875,0.28125 0.24999,0.25002 0.49999,0.37502 0.75,0.375 0.0417,2e-5 0.0833,2e-5 0.125,0 0.16665,2e-5 0.31249,0.0833 0.4375,0.25 l 0,0.0625 c -1e-5,0.0625 0.0312,0.14585 0.0937,0.25 0.0833,0.14585 0.12499,0.27085 0.125,0.375 -0.25001,0.0833 -0.45835,0.20835 -0.625,0.375 -0.0417,2e-5 -0.0833,2e-5 -0.125,0 -0.0833,2e-5 -0.18751,-0.0208 -0.3125,-0.0625 -0.0833,-0.0208 -0.14585,-0.0312 -0.1875,-0.0312 -0.10418,2e-5 -0.18751,0.0313 -0.25,0.0937 l -0.375,0.21875 c -0.0417,2e-5 -0.0833,0.0313 -0.125,0.0937 -0.25001,0.0417 -0.41668,0.10419 -0.5,0.1875 -0.22918,0.22918 -0.38543,0.3646 -0.46875,0.40625 l -0.3125,0.125 -0.0625,0.125 c -0.37501,0.0417 -0.77084,0.18752 -1.1875,0.4375 l -0.25,0.0625 c -0.33334,-0.35415 -0.86459,-0.6979 -1.59375,-1.03125 -0.70834,-0.31248 -1.32292,-0.46873 -1.84375,-0.46875 -0.0833,2e-5 -0.16667,2e-5 -0.25,0 -1e-5,2e-5 -1e-5,2e-5 0,0 -1e-5,0.0833 0.34374,0.43752 1.03125,1.0625 -1e-5,0.0417 0.0625,0.10418 0.1875,0.1875 0.16666,0.12502 0.26041,0.20835 0.28125,0.25 l 0.15625,0.125 0.0625,0.15625 c 0.0833,0.12502 0.18749,0.25002 0.3125,0.375 l 0.125,0.21875 c 0.0833,0.14585 0.20832,0.32293 0.375,0.53125 l 0.21875,0.125 c 0.0625,0.16668 0.16666,0.31252 0.3125,0.4375 0.0417,0.18752 0.12499,0.3646 0.25,0.53125 l 0,1.75 0.375,1.15625 0,1.78125 0.125,0.1875 -0.0625,0.3125 c -0.0417,0.14584 -0.0625,0.32293 -0.0625,0.53125 l 0,0.15625 0.125,0.25 0,2.125 -0.25,0.3125 -0.125,0.875 -0.0625,0.25 0.0625,0.1875 c -0.0833,0.16667 -0.12501,0.35417 -0.125,0.5625 -1e-5,0.14584 0.0312,0.30209 0.0937,0.46875 -0.0417,0.16667 -0.0625,0.35417 -0.0625,0.5625 -1e-5,0.0833 -1e-5,0.1875 0,0.3125 l -0.0625,0.1875 0,0.15625 c -0.29168,0.29167 -0.43751,0.64584 -0.4375,1.0625 l 0,0.1875 c -0.12501,0.16667 -0.18751,0.36458 -0.1875,0.59375 -1e-5,0.0833 -1e-5,0.16667 0,0.25 0.0417,0 0.0833,0 0.125,0 0.0833,0 0.16666,-0.0208 0.25,-0.0625 0.20832,0.0833 0.41666,0.125 0.625,0.125 0.31249,0 0.63541,-0.0729 0.96875,-0.21875 l 0.3125,0 c 0.16666,-0.0833 0.31249,-0.20833 0.4375,-0.375 0.29165,-0.16667 0.56249,-0.41667 0.8125,-0.75 0.0417,0 0.0833,-0.0312 0.125,-0.0937 l 0.15625,-0.125 c 0.0417,0 0.0833,-0.0312 0.125,-0.0937 0.0417,0 0.0937,0 0.15625,0 0.24999,0 0.47915,-0.0833 0.6875,-0.25 0.20832,-0.33333 0.5104,-0.65625 0.90625,-0.96875 0.10415,-0.0833 0.23957,-0.125 0.40625,-0.125 0.0625,0 0.1354,0 0.21875,0 l 0.0625,0.25 -0.6875,0.875 -0.0625,0.15625 -0.0625,0.125 -0.375,0.1875 c -0.0833,0.72917 -0.44793,1.32292 -1.09375,1.78125 -0.22918,0.20833 -0.44793,0.47917 -0.65625,0.8125 l -0.125,0.0625 -0.125,0.15625 -0.15625,0.125 -0.0625,0.125 -0.375,0.3125 -0.15625,0.15625 -0.15625,0.0625 -0.0625,0.15625 -0.1875,0.1875 -0.0937,0.125 -0.15625,0.15625 c -0.20834,0.10416 -0.39584,0.27083 -0.5625,0.5 -0.45834,0.0417 -0.87501,0.21875 -1.25,0.53125 -0.12501,-0.0417 -0.25001,-0.0625 -0.375,-0.0625 -0.16668,0 -0.33334,0.0312 -0.5,0.0937 -0.18751,-0.0833 -0.36459,-0.22917 -0.53125,-0.4375 -0.45834,-0.0833 -0.77084,-0.35417 -0.9375,-0.8125 -0.10417,-0.0625 -0.23959,-0.15625 -0.40625,-0.28125 -0.0208,-0.10417 -0.0313,-0.25 -0.0312,-0.4375 -0.33334,-0.20833 -0.56251,-0.5625 -0.6875,-1.0625 -0.58334,-0.47917 -0.91667,-1.13542 -1,-1.96875 -0.375,-0.47916 -0.58334,-1.09375 -0.625,-1.84375 0.125,-0.20833 0.29166,-0.3125 0.5,-0.3125 0.10416,0 0.21875,0.0312 0.34375,0.0937 0.0833,0.14584 0.15625,0.34375 0.21875,0.59375 l 0,0.0625 c 0,0.20834 0.0521,0.4375 0.15625,0.6875 l 0,0.1875 0.4375,0 c 0.62499,0.91667 1.19791,1.375 1.71875,1.375 0.16666,0 0.32291,-0.0417 0.46875,-0.125 -1e-5,-0.25 -0.0625,-0.52083 -0.1875,-0.8125 0.0417,-0.125 0.0625,-0.25 0.0625,-0.375 -1e-5,-0.125 -0.0208,-0.25 -0.0625,-0.375 0.16666,-0.75 0.24999,-1.41666 0.25,-2 -1e-5,-0.54166 -0.0625,-0.99999 -0.1875,-1.375 0.0417,-0.14583 0.0625,-0.29166 0.0625,-0.4375 -1e-5,-0.20833 -0.0417,-0.41666 -0.125,-0.625 0.0208,-0.18749 0.0312,-0.36458 0.0312,-0.53125 -1e-5,-0.58333 -0.10417,-1.10416 -0.3125,-1.5625 -1e-5,-0.0625 -1e-5,-0.12499 0,-0.1875 -1e-5,-0.18749 -0.0625,-0.38541 -0.1875,-0.59375 -1e-5,-0.0417 -1e-5,-0.0833 0,-0.125 -1e-5,-0.20832 -0.0625,-0.39582 -0.1875,-0.5625 -1e-5,-1.02082 -0.23959,-1.99999 -0.71875,-2.9375 l 0,-0.25 c -1e-5,-0.24999 -0.0417,-0.52082 -0.125,-0.8125 l 0,-0.1875 c -0.54167,-0.49998 -0.83334,-0.78123 -0.875,-0.84375 -1e-5,-0.16665 -0.0208,-0.35415 -0.0625,-0.5625 -0.27084,-0.18748 -0.51042,-0.46873 -0.71875,-0.84375 l -0.125,-0.0937 c -0.0833,-0.22915 -0.125,-0.48957 -0.125,-0.78125 0,-0.0833 0,-0.16665 0,-0.25 -0.0417,-0.0625 -0.125,-0.0937 -0.25,-0.0937 l -0.1875,0 c -0.10417,2e-5 -0.19792,-0.0208 -0.28125,-0.0625 l -0.4375,-0.1875 -0.0937,-0.0625 c -0.10417,-0.27081 -0.17709,-0.41665 -0.21875,-0.4375 0,-0.0417 -0.0312,-0.0833 -0.0937,-0.125 -0.0417,-0.0833 -0.0625,-0.16665 -0.0625,-0.25 0,-0.20831 0.16666,-0.33331 0.5,-0.375 0.16666,0.0208 0.35416,0.0313 0.5625,0.0312 0.22916,2e-5 0.47916,-0.0104 0.75,-0.0312 l 0.375,0.125 0.1875,0 c 0.14583,-0.0417 0.30208,-0.0625 0.46875,-0.0625 l 0.125,0 0.125,-0.125 c 0.20833,0.0833 0.45833,0.14585 0.75,0.1875 0.16666,-0.0417 0.35416,-0.0625 0.5625,-0.0625 l 0.1875,0 c 0.0417,2e-5 0.0833,-0.0208 0.125,-0.0625 l 0.3125,0 0.375,0.1875 0.3125,-0.125 c 0.35416,0.0833 0.77082,0.12502 1.25,0.125 0.16666,2e-5 0.34374,2e-5 0.53125,0 l 0.5625,0 c 0.0833,2e-5 0.16666,2e-5 0.25,0 0.12499,2e-5 0.20832,-0.0208 0.25,-0.0625 0.0417,-0.0417 0.17707,-0.0625 0.40625,-0.0625 0.22915,2e-5 0.36457,2e-5 0.40625,0 -1e-5,2e-5 -1e-5,2e-5 0,0 -1e-5,-0.0417 -0.12501,-0.16665 -0.375,-0.375 -0.27084,-0.24998 -0.44793,-0.37498 -0.53125,-0.375 -0.12501,2e-5 -0.41668,-0.10415 -0.875,-0.3125 l -0.4375,0 c -0.12501,-0.0833 -0.29168,-0.15623 -0.5,-0.21875 l -0.0625,0 c -0.12501,2e-5 -0.26043,-0.0208 -0.40625,-0.0625 l -0.25,-0.21875 c -0.35417,-0.0417 -0.81251,-0.1354 -1.375,-0.28125 -0.16667,-0.12498 -0.25001,-0.24998 -0.25,-0.375 -1e-5,-0.12498 0.0833,-0.24998 0.25,-0.375 l 0,0 0,0 0,-0.0312 z"
         style=""
         id="path3178" />
    </g>
  </g>
</svg>
