<?xml version="1.0" encoding="UTF-8" standalone="no"?>
<!-- Created with Inkscape (http://www.inkscape.org/) -->

<svg
   xmlns:dc="http://purl.org/dc/elements/1.1/"
   xmlns:cc="http://creativecommons.org/ns#"
   xmlns:rdf="http://www.w3.org/1999/02/22-rdf-syntax-ns#"
   xmlns:svg="http://www.w3.org/2000/svg"
   xmlns="http://www.w3.org/2000/svg"
   xmlns:sodipodi="http://sodipodi.sourceforge.net/DTD/sodipodi-0.dtd"
   xmlns:inkscape="http://www.inkscape.org/namespaces/inkscape"
   version="1.1"
   width="20"
   height="30"
   id="svg2"
   inkscape:version="0.48.2 r9819"
   sodipodi:docname="Daedric_U.svg">
  <sodipodi:namedview
     pagecolor="#ffffff"
     bordercolor="#666666"
     borderopacity="1"
     objecttolerance="10"
     gridtolerance="10"
     guidetolerance="10"
     inkscape:pageopacity="0"
     inkscape:pageshadow="2"
     inkscape:window-width="1280"
     inkscape:window-height="972"
     id="namedview3186"
     showgrid="false"
     inkscape:zoom="7.8666667"
     inkscape:cx="10"
     inkscape:cy="15"
     inkscape:window-x="-8"
     inkscape:window-y="-8"
     inkscape:window-maximized="1"
     inkscape:current-layer="svg2" />
  <defs
     id="defs2992" />
  <metadata
     id="metadata7">
    <rdf:RDF>
      <cc:Work
         rdf:about="">
        <dc:format>image/svg+xml</dc:format>
        <dc:type
           rdf:resource="http://purl.org/dc/dcmitype/StillImage" />
        <dc:title />
      </cc:Work>
    </rdf:RDF>
  </metadata>
  <g
     transform="translate(-262.5,-531.07648)"
     id="layer1">
    <g
       style="font-size:32px;font-style:normal;font-variant:normal;font-weight:normal;font-stretch:normal;text-align:center;line-height:0%;letter-spacing:0px;word-spacing:0px;text-anchor:middle;fill:#d1d1d1;font-family:Daedric"
       id="text2985">
      <path
         d="m 273.26233,550.15961 c -0.0833,0 -0.16668,0 -0.25,0 -0.50001,0 -1.03126,-0.125 -1.59375,-0.375 -0.0417,-0.16666 -0.12501,-0.33333 -0.25,-0.5 l 0,-0.125 c -0.0208,-0.10416 -0.0313,-0.19791 -0.0312,-0.28125 -1e-5,-0.62499 0.43749,-1.08333 1.3125,-1.375 l 1,0.0625 0.125,0 c 0.74999,0.50001 1.12499,0.95834 1.125,1.375 -1e-5,0.45834 -0.46876,0.875 -1.40625,1.25 l 0,0 z m 7.09375,-14.8125 c 0.0417,0.12502 0.0625,0.22919 0.0625,0.3125 -2e-5,0.33335 -0.21877,0.53127 -0.65625,0.59375 -0.12502,-0.0208 -0.22918,-0.0312 -0.3125,-0.0312 -0.20835,2e-5 -0.31252,0.0521 -0.3125,0.15625 -2e-5,0.0417 0.0208,0.10418 0.0625,0.1875 0.0417,0.16668 0.0625,0.37502 0.0625,0.625 l 0,2.375 0.0937,0.1875 c -0.0208,0.0417 -0.0313,0.10418 -0.0312,0.1875 l -0.125,0.5625 0.125,0.9375 0.0625,0.34375 c -0.0417,0.14585 -0.0625,0.3021 -0.0625,0.46875 -2e-5,0.16668 0.0208,0.35418 0.0625,0.5625 l -0.0625,0.34375 c 0.0417,0.16668 0.0625,0.35418 0.0625,0.5625 -2e-5,0.0833 -2e-5,0.16668 0,0.25 l 0,1.1875 c -2e-5,0.14584 -0.0313,0.29168 -0.0937,0.4375 0.0417,0.25001 0.0625,0.54167 0.0625,0.875 l 0,0.40625 c -0.0417,0.14584 -0.0625,0.30209 -0.0625,0.46875 -2e-5,0.16667 0.0208,0.34376 0.0625,0.53125 l 0,0.3125 c -0.18752,0.37501 -0.28127,0.79167 -0.28125,1.25 -2e-5,0.0833 -2e-5,0.16667 0,0.25 -2e-5,0.20834 0.0417,0.4375 0.125,0.6875 -0.20835,0.29167 -0.31252,0.625 -0.3125,1 -2e-5,0.14584 0.0208,0.30209 0.0625,0.46875 -0.20835,0.27084 -0.31252,0.59375 -0.3125,0.96875 -2e-5,0.0833 -2e-5,0.16667 0,0.25 -0.12502,0.10417 -0.19793,0.23958 -0.21875,0.40625 -0.37502,0.625 -0.88543,1.14583 -1.53125,1.5625 -0.10418,0.52083 -0.44793,0.90625 -1.03125,1.15625 l 0,0.1875 c -0.58335,0.35416 -1.14585,0.59375 -1.6875,0.71875 -0.66668,0.375 -1.29168,0.5625 -1.875,0.5625 -0.45834,0 -0.88543,-0.11459 -1.28125,-0.34375 l -0.25,0 c -0.79167,-0.375 -1.51042,-0.60417 -2.15625,-0.6875 l -0.125,-0.375 c -0.37501,-0.16667 -0.66667,-0.375 -0.875,-0.625 l 0,-0.125 0.1875,-0.4375 c -0.20834,-0.125 -0.48959,-0.25 -0.84375,-0.375 -0.10417,-0.14583 -0.15625,-0.30208 -0.15625,-0.46875 0,-0.16667 0.0417,-0.33333 0.125,-0.5 -0.25,-0.22917 -0.44792,-0.53125 -0.59375,-0.90625 l -0.15625,-0.0625 -0.125,-0.0937 c 0,-0.33333 -0.0937,-0.6875 -0.28125,-1.0625 -0.0417,-0.125 -0.0833,-0.25 -0.125,-0.375 l 0.0312,-0.0625 -0.125,-0.21875 0.0937,-0.1875 -0.1875,-0.71875 0.0625,-0.15625 -0.1875,-0.3125 -0.0625,-0.15625 0,0 c 0.0833,-0.29166 0.125,-0.56249 0.125,-0.8125 0,-0.18749 -0.0208,-0.36458 -0.0625,-0.53125 0,-0.0417 0,-0.0833 0,-0.125 0,-0.0833 -0.0104,-0.15624 -0.0312,-0.21875 0.125,-0.35416 0.1875,-0.69791 0.1875,-1.03125 0,-0.29166 -0.0521,-0.56249 -0.15625,-0.8125 0.125,-0.33332 0.1875,-0.64582 0.1875,-0.9375 0,-0.14582 -0.0208,-0.28124 -0.0625,-0.40625 0.1875,-0.37499 0.28125,-0.72916 0.28125,-1.0625 0,-0.27082 -0.0625,-0.53124 -0.1875,-0.78125 0.58333,-0.56249 0.89583,-1.1979 0.9375,-1.90625 0.14583,-0.20832 0.26041,-0.40624 0.34375,-0.59375 0.16666,-0.41665 0.43749,-0.68749 0.8125,-0.8125 0.16666,-0.20832 0.33333,-0.35415 0.5,-0.4375 l 0.1875,0.125 c 0.18749,0.37501 0.39583,0.66668 0.625,0.875 l 0,0.15625 c 0.0625,0.18751 0.15624,0.32293 0.28125,0.40625 0.0833,0.50001 0.28124,0.93751 0.59375,1.3125 l -0.0312,0.5 c 0.12499,0.12501 0.27083,0.20835 0.4375,0.25 l 0.125,0.28125 0.25,0.9375 0.375,0.3125 0.0625,0.1875 0,0.0625 c -1e-5,0.0417 0.0104,0.0833 0.0312,0.125 0.22916,0.43751 0.36457,0.84376 0.40625,1.21875 0.12499,0.16668 0.22916,0.33334 0.3125,0.5 l -0.1875,0.5 -0.40625,-0.0937 c -0.12501,-0.16666 -0.18751,-0.34374 -0.1875,-0.53125 -0.22918,-0.18749 -0.40626,-0.36457 -0.53125,-0.53125 -0.75001,-0.41666 -1.31251,-0.93749 -1.6875,-1.5625 l -0.3125,-0.21875 c -0.22917,-0.47916 -0.59376,-0.80207 -1.09375,-0.96875 l -0.25,0.375 0,0.125 -0.3125,0.96875 c 0.16666,0.37501 0.27083,0.70834 0.3125,1 -1e-5,0.0208 -1e-5,0.0521 0,0.0937 -1e-5,0.0208 -1e-5,0.0417 0,0.0625 0.0208,0.18751 0.0312,0.36459 0.0312,0.53125 -1e-5,0.29167 -0.0313,0.56251 -0.0937,0.8125 l 0.0625,0.25 0.125,0.28125 -0.0625,0.1875 0.125,0.71875 -0.0625,0.15625 0.125,0.25 -0.0625,0.1875 c 0.20833,0.45834 0.31249,0.89584 0.3125,1.3125 l 0.125,0.0625 0.125,0.0937 c 0.10416,0.375 0.23958,0.67709 0.40625,0.90625 -0.0625,0.16667 -0.0938,0.32292 -0.0937,0.46875 -1e-5,0.16667 0.0417,0.33334 0.125,0.5 0.24999,0.14584 0.44791,0.28125 0.59375,0.40625 l -0.125,0.4375 0,0.125 c 0.14583,0.25 0.36458,0.45833 0.65625,0.625 l 0.125,0.40625 c 0.47916,0.0833 1.01041,0.3125 1.59375,0.6875 l 0.1875,0 c 0.29166,0.22917 0.60416,0.34375 0.9375,0.34375 0.41666,0 0.87499,-0.1875 1.375,-0.5625 0.41665,-0.125 0.83332,-0.36458 1.25,-0.71875 l 0,-0.1875 c 0.41665,-0.25 0.66665,-0.63542 0.75,-1.15625 0.64582,-0.58333 1.11457,-1.33333 1.40625,-2.25 l 0.1875,-0.25 c -2e-5,-0.0625 -2e-5,-0.125 0,-0.1875 -2e-5,-0.0833 -2e-5,-0.16666 0,-0.25 0.0833,-0.22916 0.12498,-0.46874 0.125,-0.71875 -2e-5,-0.20833 -0.0208,-0.42708 -0.0625,-0.65625 0.12498,-0.16666 0.22915,-0.37499 0.3125,-0.625 -0.0417,-0.12499 -0.0625,-0.24999 -0.0625,-0.375 -2e-5,-0.20833 0.0417,-0.41666 0.125,-0.625 -0.0625,-0.14583 -0.0938,-0.31249 -0.0937,-0.5 l 0,-1.0625 0.0625,-0.40625 -0.0625,-0.25 -0.3125,-0.25 0,-1.96875 c -0.12502,-0.14582 -0.22918,-0.36457 -0.3125,-0.65625 0.10415,-0.16665 0.15623,-0.3229 0.15625,-0.46875 -2e-5,-0.18749 -0.0833,-0.37499 -0.25,-0.5625 -0.0417,-0.49999 -0.27085,-0.96874 -0.6875,-1.40625 l 0,-0.125 c -1e-5,-0.33332 -0.16668,-0.58332 -0.5,-0.75 -0.14585,-0.31248 -0.39585,-0.48957 -0.75,-0.53125 -0.37501,-0.33332 -0.85418,-0.49998 -1.4375,-0.5 l -0.0625,0 c -0.33334,-0.12498 -0.50001,-0.27082 -0.5,-0.4375 -1e-5,-0.0833 0.0417,-0.16665 0.125,-0.25 -0.0833,-0.0208 -0.16668,-0.0312 -0.25,-0.0312 -0.0833,2e-5 -0.17709,0.0104 -0.28125,0.0312 -0.0833,-0.0208 -0.16668,-0.0312 -0.25,-0.0312 -0.10418,2e-5 -0.21876,0.0104 -0.34375,0.0312 -0.0833,-0.0208 -0.16668,-0.0312 -0.25,-0.0312 -0.0833,2e-5 -0.18751,0.0104 -0.3125,0.0312 l -0.375,-0.125 c -0.22918,0.0833 -0.51043,0.12502 -0.84375,0.125 l -0.125,0 c -0.16667,-0.20832 -0.25001,-0.41665 -0.25,-0.625 -1e-5,-0.16665 0.0625,-0.33331 0.1875,-0.5 l 9.75,0 0.3125,0.15625 0,0 0,-0.0312 z"
         style=""
         id="path3189" />
    </g>
  </g>
</svg>
