<?xml version="1.0" encoding="UTF-8" standalone="no"?>
<!-- Created with Inkscape (http://www.inkscape.org/) -->

<svg
   xmlns:dc="http://purl.org/dc/elements/1.1/"
   xmlns:cc="http://creativecommons.org/ns#"
   xmlns:rdf="http://www.w3.org/1999/02/22-rdf-syntax-ns#"
   xmlns:svg="http://www.w3.org/2000/svg"
   xmlns="http://www.w3.org/2000/svg"
   xmlns:sodipodi="http://sodipodi.sourceforge.net/DTD/sodipodi-0.dtd"
   xmlns:inkscape="http://www.inkscape.org/namespaces/inkscape"
   version="1.1"
   width="20"
   height="30"
   id="svg2"
   inkscape:version="0.48.2 r9819"
   sodipodi:docname="Daedric_V.svg">
  <sodipodi:namedview
     pagecolor="#ffffff"
     bordercolor="#666666"
     borderopacity="1"
     objecttolerance="10"
     gridtolerance="10"
     guidetolerance="10"
     inkscape:pageopacity="0"
     inkscape:pageshadow="2"
     inkscape:window-width="1280"
     inkscape:window-height="972"
     id="namedview3197"
     showgrid="false"
     inkscape:zoom="7.8666667"
     inkscape:cx="10"
     inkscape:cy="15"
     inkscape:window-x="-8"
     inkscape:window-y="-8"
     inkscape:window-maximized="1"
     inkscape:current-layer="svg2" />
  <defs
     id="defs2992" />
  <metadata
     id="metadata7">
    <rdf:RDF>
      <cc:Work
         rdf:about="">
        <dc:format>image/svg+xml</dc:format>
        <dc:type
           rdf:resource="http://purl.org/dc/dcmitype/StillImage" />
        <dc:title />
      </cc:Work>
    </rdf:RDF>
  </metadata>
  <g
     transform="translate(-262.5,-531.07648)"
     id="layer1">
    <g
       style="font-size:32px;font-style:normal;font-variant:normal;font-weight:normal;font-stretch:normal;text-align:center;line-height:0%;letter-spacing:0px;word-spacing:0px;text-anchor:middle;fill:#d1d1d1;font-family:Daedric"
       id="text2985">
      <path
         d="m 268.19983,535.22211 c 0.12499,0.0417 0.27083,0.0625 0.4375,0.0625 0.16666,2e-5 0.34374,-0.0208 0.53125,-0.0625 0.0833,0.0208 0.16666,0.0313 0.25,0.0312 0.10416,2e-5 0.20833,-0.0104 0.3125,-0.0312 0.20833,0.0833 0.45833,0.12502 0.75,0.125 l 1.4375,0 c 0.20832,2e-5 0.44791,-0.0417 0.71875,-0.125 l 0.25,0.125 0.25,-0.125 0.25,0 0.25,0.0625 0.3125,0.0625 0.3125,-0.0625 0.3125,-0.0625 0.96875,0 c 0.0833,2e-5 0.16665,2e-5 0.25,0 0.24999,2e-5 0.49999,0.0417 0.75,0.125 l 0.25,-0.0625 0.125,-0.0625 c 0.20832,0.0833 0.42707,0.12502 0.65625,0.125 -0.10418,0.33335 -0.31251,0.50002 -0.625,0.5 -0.0833,2e-5 -0.1771,-0.0104 -0.28125,-0.0312 l -0.1875,0.1875 -0.0625,1.875 0.1875,0.25 c 0.0625,0.31252 0.21874,0.59377 0.46875,0.84375 l 0,0 c -1e-5,0.0417 0.0208,0.0833 0.0625,0.125 l 0.0625,0.125 0.0625,0.125 c -1e-5,0.0417 -1e-5,0.0833 0,0.125 -1e-5,0.12501 0.0208,0.25001 0.0625,0.375 0.54165,0.58335 0.89582,1.33335 1.0625,2.25 0.45832,0.91668 0.68748,1.96876 0.6875,3.15625 0.0833,0.14584 0.20832,0.30209 0.375,0.46875 -0.0208,0.12501 -0.0313,0.26043 -0.0312,0.40625 -2e-5,0.33334 0.0521,0.69792 0.15625,1.09375 -0.0833,0.25001 -0.12502,0.52084 -0.125,0.8125 -2e-5,0.20834 0.0208,0.42709 0.0625,0.65625 -0.0417,0.20834 -0.0625,0.45834 -0.0625,0.75 -0.16668,0.29167 -0.25002,0.625 -0.25,1 -2e-5,0.0833 -2e-5,0.17709 0,0.28125 -0.12502,0.125 -0.21877,0.3125 -0.28125,0.5625 -0.0417,0.20834 -0.12502,0.42709 -0.25,0.65625 l -0.125,0.6875 c -0.25002,0.3125 -0.43752,0.69792 -0.5625,1.15625 l -0.0625,0.125 -0.0625,0.125 -0.125,0.125 0,0.1875 -0.0625,0.25 -0.625,0.75 -0.125,0.0625 -0.125,0.125 c -0.0833,0.20833 -0.14585,0.42708 -0.1875,0.65625 -0.25001,0.25 -0.54168,0.60416 -0.875,1.0625 -0.25001,0.0625 -0.54168,0.17708 -0.875,0.34375 l -0.25,-0.125 c 0.12499,-0.35417 0.35415,-0.73959 0.6875,-1.15625 0.0625,-0.125 0.12499,-0.29167 0.1875,-0.5 l 0.65625,-0.75 0.0625,-0.125 c 0.0833,-0.1875 0.12499,-0.42708 0.125,-0.71875 l 0.0625,-0.125 c 0.31249,-0.3125 0.53124,-0.71875 0.65625,-1.21875 l 0.375,-0.78125 c -1e-5,-0.0417 -1e-5,-0.0833 0,-0.125 -1e-5,-0.16666 -0.0208,-0.33333 -0.0625,-0.5 0.12499,-0.33333 0.18749,-0.6875 0.1875,-1.0625 -1e-5,-0.20833 -0.0208,-0.41666 -0.0625,-0.625 0.0417,-0.0833 0.0625,-0.16666 0.0625,-0.25 -1e-5,-0.10416 -0.0208,-0.21874 -0.0625,-0.34375 -1e-5,-0.0417 -1e-5,-0.0937 0,-0.15625 -1e-5,-0.12499 0.0208,-0.27083 0.0625,-0.4375 l 0,-0.5625 c -0.12501,-0.24999 -0.31251,-0.51041 -0.5625,-0.78125 0.0208,-0.12499 0.0312,-0.24999 0.0312,-0.375 -1e-5,-0.33333 -0.0625,-0.68749 -0.1875,-1.0625 l 0,-0.0625 c -1e-5,-0.66666 -0.16668,-1.29166 -0.5,-1.875 -1e-5,-0.12499 -0.0417,-0.24999 -0.125,-0.375 l 0,-0.71875 -0.0625,-0.125 c -0.14585,-0.22915 -0.3646,-0.48957 -0.65625,-0.78125 -0.0625,-0.54165 -0.32293,-0.99999 -0.78125,-1.375 -0.12501,-0.70832 -0.47918,-1.35415 -1.0625,-1.9375 -0.0417,-0.31248 -0.17709,-0.59373 -0.40625,-0.84375 l 0,-0.0625 c -1e-5,-0.29165 -0.16668,-0.49998 -0.5,-0.625 -1e-5,-0.0417 -1e-5,-0.0833 0,-0.125 -1e-5,-0.16665 -0.0833,-0.28123 -0.25,-0.34375 -0.66668,0.58335 -1.08334,1.37502 -1.25,2.375 -0.14584,0.0833 -0.28126,0.21877 -0.40625,0.40625 -0.18751,0.33335 -0.30209,0.71876 -0.34375,1.15625 -0.20834,0.27085 -0.33334,0.63543 -0.375,1.09375 -0.33334,0.58335 -0.50001,1.31251 -0.5,2.1875 l -0.0625,0.1875 c -0.0833,0.16668 -0.14584,0.34376 -0.1875,0.53125 0.0417,0.12501 0.0625,0.27084 0.0625,0.4375 -1e-5,0.16668 -0.0208,0.35418 -0.0625,0.5625 l 0.0625,0.5 c -0.20834,0.60417 -0.31251,1.26042 -0.3125,1.96875 -1e-5,0.20834 0.0104,0.41667 0.0312,0.625 l -0.125,0.4375 c 0.0625,0.12501 0.15624,0.27084 0.28125,0.4375 -0.0417,0.16667 -0.0625,0.33334 -0.0625,0.5 -1e-5,0.33334 0.0833,0.66667 0.25,1 -1e-5,0.0833 -1e-5,0.15625 0,0.21875 -1e-5,0.33334 0.0833,0.66667 0.25,1 0.0208,0.75 0.23958,1.5 0.65625,2.25 -1e-5,0.0833 -1e-5,0.16667 0,0.25 -1e-5,0.1875 0.0208,0.375 0.0625,0.5625 0.16666,0.22917 0.33333,0.53125 0.5,0.90625 l 0.125,0.0625 0.0625,0.125 0.125,0.125 c -1e-5,0.0833 -1e-5,0.16666 0,0.25 -1e-5,0.20833 0.0417,0.4375 0.125,0.6875 l -0.0625,0.1875 c -0.20834,-0.0417 -0.43751,-0.10417 -0.6875,-0.1875 -0.12501,0 -0.28126,-0.0208 -0.46875,-0.0625 l -0.53125,-0.625 0,-0.0625 c -1e-5,-0.25 -0.0625,-0.47917 -0.1875,-0.6875 l -0.3125,-0.125 c -0.16667,-0.375 -0.43751,-0.71875 -0.8125,-1.03125 -0.0417,-0.20833 -0.14584,-0.39583 -0.3125,-0.5625 -0.0208,-0.0833 -0.0625,-0.14583 -0.125,-0.1875 -1e-5,-0.0625 -1e-5,-0.125 0,-0.1875 -1e-5,-0.14583 0.0208,-0.30208 0.0625,-0.46875 -0.12501,-0.16667 -0.22917,-0.39583 -0.3125,-0.6875 -0.16667,-0.16666 -0.27084,-0.375 -0.3125,-0.625 l -0.25,-0.4375 -0.0625,-0.25 -0.125,-0.25 -0.125,-0.8125 c -0.0417,-0.16666 -0.14584,-0.38541 -0.3125,-0.65625 l 0,-0.125 c 0,-0.20833 -0.0208,-0.43749 -0.0625,-0.6875 l -0.1875,-0.1875 0,-1.09375 c 0.1875,-0.37499 0.28125,-0.81249 0.28125,-1.3125 0,-0.20833 -0.0208,-0.42707 -0.0625,-0.65625 l 0,-0.25 c 0.33333,-0.45832 0.5,-0.99999 0.5,-1.625 l 0.125,-0.125 c 0.0833,-0.24999 0.125,-0.57291 0.125,-0.96875 l 0,-0.125 0.46875,-0.90625 0.0625,-0.125 c 0.0208,-0.16665 0.0833,-0.35415 0.1875,-0.5625 -0.0208,-0.16665 -0.0625,-0.35415 -0.125,-0.5625 0.20833,-0.24999 0.35416,-0.58332 0.4375,-1 0.0833,-0.10415 0.16666,-0.2604 0.25,-0.46875 l 0.1875,-0.3125 c 0.0833,-0.29165 0.12499,-0.56248 0.125,-0.8125 -1e-5,-0.89582 -0.43751,-1.62498 -1.3125,-2.1875 l 0.78125,-0.3125 0,0 0,-0.0312 z"
         style=""
         id="path3200" />
    </g>
  </g>
</svg>
