<?xml version="1.0" encoding="UTF-8" standalone="no"?>
<!-- Created with Inkscape (http://www.inkscape.org/) -->

<svg
   xmlns:dc="http://purl.org/dc/elements/1.1/"
   xmlns:cc="http://creativecommons.org/ns#"
   xmlns:rdf="http://www.w3.org/1999/02/22-rdf-syntax-ns#"
   xmlns:svg="http://www.w3.org/2000/svg"
   xmlns="http://www.w3.org/2000/svg"
   xmlns:sodipodi="http://sodipodi.sourceforge.net/DTD/sodipodi-0.dtd"
   xmlns:inkscape="http://www.inkscape.org/namespaces/inkscape"
   version="1.1"
   width="20"
   height="30"
   id="svg2"
   inkscape:version="0.48.2 r9819"
   sodipodi:docname="Daedric_W.svg">
  <sodipodi:namedview
     pagecolor="#ffffff"
     bordercolor="#666666"
     borderopacity="1"
     objecttolerance="10"
     gridtolerance="10"
     guidetolerance="10"
     inkscape:pageopacity="0"
     inkscape:pageshadow="2"
     inkscape:window-width="1280"
     inkscape:window-height="972"
     id="namedview3208"
     showgrid="false"
     inkscape:zoom="7.8666667"
     inkscape:cx="10"
     inkscape:cy="15"
     inkscape:window-x="-8"
     inkscape:window-y="-8"
     inkscape:window-maximized="1"
     inkscape:current-layer="svg2" />
  <defs
     id="defs2992" />
  <metadata
     id="metadata7">
    <rdf:RDF>
      <cc:Work
         rdf:about="">
        <dc:format>image/svg+xml</dc:format>
        <dc:type
           rdf:resource="http://purl.org/dc/dcmitype/StillImage" />
        <dc:title />
      </cc:Work>
    </rdf:RDF>
  </metadata>
  <g
     transform="translate(-262.5,-531.07648)"
     id="layer1">
    <g
       style="font-size:32px;font-style:normal;font-variant:normal;font-weight:normal;font-stretch:normal;text-align:center;line-height:0%;letter-spacing:0px;word-spacing:0px;text-anchor:middle;fill:#d1d1d1;font-family:Daedric"
       id="text2985">
      <path
         d="m 271.04358,537.50336 c -0.25001,0.0417 -0.55209,0.12502 -0.90625,0.25 l -0.1875,0 -0.1875,0.0625 c -0.0417,0.29168 -0.15626,0.60418 -0.34375,0.9375 l 0,0.21875 c -0.33334,0.25002 -0.52084,0.6146 -0.5625,1.09375 -0.45834,0.45835 -0.72917,1.06251 -0.8125,1.8125 -0.16667,0.22918 -0.25001,0.50001 -0.25,0.8125 -1e-5,0.0833 -1e-5,0.16668 0,0.25 -0.0417,0.14584 -0.11459,0.32293 -0.21875,0.53125 0.12499,0.20834 0.20833,0.45834 0.25,0.75 -0.10417,0.33334 -0.17709,0.77084 -0.21875,1.3125 0.0833,0.18751 0.14583,0.40626 0.1875,0.65625 0.0625,0.70834 0.31249,1.40626 0.75,2.09375 l 0.28125,0.6875 0.0625,0.1875 0,0.28125 c 0.45833,0.35417 0.77083,0.83334 0.9375,1.4375 0.10416,0.0625 0.23957,0.11459 0.40625,0.15625 0.14582,0.29167 0.37499,0.5625 0.6875,0.8125 0.10416,0.25 0.26041,0.5 0.46875,0.75 0.12499,0.10417 0.26041,0.15625 0.40625,0.15625 0.0833,0 0.16666,-0.0208 0.25,-0.0625 0.0208,-0.16666 0.0521,-0.35416 0.0937,-0.5625 0.29166,-0.5625 0.43749,-1.19791 0.4375,-1.90625 -1e-5,-0.16666 -0.0104,-0.34375 -0.0312,-0.53125 0.54166,-0.54166 0.85415,-1.26041 0.9375,-2.15625 l 0.25,-0.28125 c -1e-5,-0.20833 -0.0417,-0.42708 -0.125,-0.65625 0.12499,-0.14583 0.23957,-0.32291 0.34375,-0.53125 l -0.125,-0.4375 c 0.0625,-0.20832 0.0937,-0.43749 0.0937,-0.6875 -1e-5,-0.33332 -0.0625,-0.68749 -0.1875,-1.0625 l 0.125,-0.46875 c -0.0417,-0.16666 -0.12501,-0.35416 -0.25,-0.5625 l 0,-0.125 c -1e-5,-0.43749 -0.1146,-0.89582 -0.34375,-1.375 l -0.0625,-0.34375 c -0.16668,-0.27082 -0.39584,-0.52082 -0.6875,-0.75 l 0,-0.0625 c -1e-5,-0.77082 -0.29168,-1.47915 -0.875,-2.125 l -0.0625,-0.34375 c -0.16668,-0.10415 -0.35418,-0.15623 -0.5625,-0.15625 l 0,0 z m 9.6875,-5.15625 0.4375,0.8125 0.0625,0.125 0.125,0.0625 -0.1875,0.4375 0.25,0.40625 c -0.0625,0.25002 -0.10419,0.54169 -0.125,0.875 l 0,0.1875 c -0.0625,0.18752 -0.0938,0.41669 -0.0937,0.6875 l -0.125,0.125 c 0.0417,0.12502 0.0625,0.25002 0.0625,0.375 -2e-5,0.45835 -0.20835,0.85418 -0.625,1.1875 -0.0417,0.83335 -0.44794,1.50002 -1.21875,2 -0.0833,0.39585 -0.31252,0.65626 -0.6875,0.78125 l -0.125,-0.21875 c 0.16665,-0.24999 0.24998,-0.54165 0.25,-0.875 l 0,-0.125 c 0.10415,-0.20832 0.15623,-0.41665 0.15625,-0.625 -2e-5,-0.20832 -0.0521,-0.41665 -0.15625,-0.625 0.0417,-0.12498 0.0625,-0.24998 0.0625,-0.375 -2e-5,-0.29165 -0.16668,-0.54165 -0.5,-0.75 -0.12502,-0.22915 -0.31252,-0.34373 -0.5625,-0.34375 -0.0833,2e-5 -0.1771,0.0208 -0.28125,0.0625 -0.33335,-0.12498 -0.64585,-0.18748 -0.9375,-0.1875 -0.85418,2e-5 -1.43751,0.52085 -1.75,1.5625 -0.0417,0.25002 -0.0625,0.47918 -0.0625,0.6875 -1e-5,0.50002 0.0937,0.90626 0.28125,1.21875 -0.0208,0.10418 -0.0313,0.19793 -0.0312,0.28125 -1e-5,0.33335 0.14582,0.64585 0.4375,0.9375 0.20832,0.66668 0.66665,1.19793 1.375,1.59375 0.0833,0.25001 0.23957,0.50001 0.46875,0.75 -0.0417,0.37501 -0.16668,0.79168 -0.375,1.25 -0.0417,0.16668 -0.0625,0.33334 -0.0625,0.5 l 0,0.125 c -0.14585,0.25001 -0.2396,0.54168 -0.28125,0.875 -0.0417,10e-6 -0.0833,0.0417 -0.125,0.125 l -0.0625,0.125 0,0.625 -0.125,0.25 -0.1875,0.28125 c -1e-5,0.25001 -0.0625,0.56251 -0.1875,0.9375 l -0.0625,0.1875 -0.0625,0.40625 0,0.1875 -0.125,0.1875 c -0.0833,0.14584 -0.20835,0.30209 -0.375,0.46875 l -0.0625,0.125 0,0.0625 c -1e-5,0.54167 -0.15626,1.10417 -0.46875,1.6875 l 0,0.0937 c -1e-5,0.125 -0.0208,0.28125 -0.0625,0.46875 l -0.1875,0.28125 c -0.16668,0.29167 -0.28126,0.65625 -0.34375,1.09375 -0.12501,0.16667 -0.2396,0.36458 -0.34375,0.59375 -0.29168,0.29167 -0.54168,0.67708 -0.75,1.15625 l -0.125,0.1875 0,0.1875 c -0.16668,0.16667 -0.27084,0.375 -0.3125,0.625 l -0.1875,0.40625 -0.125,0.40625 c -0.0417,0 -0.0833,0.0312 -0.125,0.0937 -0.12501,0.0417 -0.25001,0.10416 -0.375,0.1875 l -2.9375,0 -0.34375,-0.125 -0.0625,-0.3125 c 0.24999,-0.16667 0.52083,-0.42709 0.8125,-0.78125 0.0417,0 0.0833,-0.0312 0.125,-0.0937 0.49999,-0.1875 0.82291,-0.55208 0.96875,-1.09375 0.29166,-0.25 0.43749,-0.58333 0.4375,-1 -1e-5,-0.10417 -0.0104,-0.20833 -0.0312,-0.3125 -0.16668,-0.22917 -0.41668,-0.4375 -0.75,-0.625 -0.0833,-0.14583 -0.22917,-0.30208 -0.4375,-0.46875 l -0.1875,-0.125 -0.125,-0.1875 -0.125,-0.1875 c -0.16667,-0.125 -0.35417,-0.23958 -0.5625,-0.34375 -0.18751,-0.41666 -0.48959,-0.80208 -0.90625,-1.15625 l -0.6875,-0.625 c -0.12501,-0.41666 -0.38542,-0.80208 -0.78125,-1.15625 -0.125,-0.58333 -0.44792,-1.11458 -0.96875,-1.59375 -0.0417,-0.33333 -0.17709,-0.68749 -0.40625,-1.0625 l 0,-0.0625 c 0,-0.20832 -0.0729,-0.41666 -0.21875,-0.625 0,-0.10416 0,-0.21874 0,-0.34375 0,-0.24999 0.0208,-0.52082 0.0625,-0.8125 0.33333,-0.45832 0.5625,-1.04166 0.6875,-1.75 0.5,-0.62499 0.75,-1.37499 0.75,-2.25 l 0,-0.0625 c 0.16666,-0.29165 0.25,-0.64582 0.25,-1.0625 l 0,-0.1875 c 0.10416,-0.12498 0.15625,-0.27082 0.15625,-0.4375 0,-0.0833 -0.0208,-0.17707 -0.0625,-0.28125 0.24999,-0.33332 0.37499,-0.72915 0.375,-1.1875 -1e-5,-0.0833 -1e-5,-0.16665 0,-0.25 -0.33334,-0.72915 -0.9375,-1.16665 -1.8125,-1.3125 -0.0833,-0.12498 -0.125,-0.2604 -0.125,-0.40625 0,-0.0417 0,-0.0833 0,-0.125 0.25,-0.0417 0.52083,-0.0625 0.8125,-0.0625 0.10416,2e-5 0.21875,2e-5 0.34375,0 l 4.875,0 0.25,0.125 0.28125,-0.0625 0.3125,0.0625 0.34375,-0.0625 0.21875,-0.0625 c 0.18749,0.0833 0.38541,0.12502 0.59375,0.125 0.0833,2e-5 0.16666,-0.0104 0.25,-0.0312 l 0.875,0 0.40625,-0.125 c 0.12499,0.0417 0.24999,0.0625 0.375,0.0625 0.12499,2e-5 0.2604,-0.0208 0.40625,-0.0625 0.16665,0.0833 0.35415,0.12502 0.5625,0.125 l 0.0625,0 0.4375,-0.125 0.9375,0 c 0.33332,-0.29165 0.77082,-0.52081 1.3125,-0.6875 l 0.6875,-0.625 0.1875,-0.125 0.125,-0.125 0.0625,-0.125 0.1875,-0.125 c 0.0417,-0.37498 0.20831,-0.74998 0.5,-1.125 l 0.34375,0.0625 0,0 0,-0.0312 z"
         style=""
         id="path3211" />
    </g>
  </g>
</svg>
