<?xml version="1.0" encoding="UTF-8" standalone="no"?>
<!-- Created with Inkscape (http://www.inkscape.org/) -->

<svg
   xmlns:dc="http://purl.org/dc/elements/1.1/"
   xmlns:cc="http://creativecommons.org/ns#"
   xmlns:rdf="http://www.w3.org/1999/02/22-rdf-syntax-ns#"
   xmlns:svg="http://www.w3.org/2000/svg"
   xmlns="http://www.w3.org/2000/svg"
   xmlns:sodipodi="http://sodipodi.sourceforge.net/DTD/sodipodi-0.dtd"
   xmlns:inkscape="http://www.inkscape.org/namespaces/inkscape"
   version="1.1"
   width="20"
   height="30"
   id="svg2"
   inkscape:version="0.48.2 r9819"
   sodipodi:docname="Daedric_X.svg">
  <sodipodi:namedview
     pagecolor="#ffffff"
     bordercolor="#666666"
     borderopacity="1"
     objecttolerance="10"
     gridtolerance="10"
     guidetolerance="10"
     inkscape:pageopacity="0"
     inkscape:pageshadow="2"
     inkscape:window-width="1280"
     inkscape:window-height="972"
     id="namedview3219"
     showgrid="false"
     inkscape:zoom="7.8666667"
     inkscape:cx="10"
     inkscape:cy="15"
     inkscape:window-x="-8"
     inkscape:window-y="-8"
     inkscape:window-maximized="1"
     inkscape:current-layer="svg2" />
  <defs
     id="defs2992" />
  <metadata
     id="metadata7">
    <rdf:RDF>
      <cc:Work
         rdf:about="">
        <dc:format>image/svg+xml</dc:format>
        <dc:type
           rdf:resource="http://purl.org/dc/dcmitype/StillImage" />
        <dc:title />
      </cc:Work>
    </rdf:RDF>
  </metadata>
  <g
     transform="translate(-262.5,-531.07648)"
     id="layer1">
    <g
       style="font-size:32px;font-style:normal;font-variant:normal;font-weight:normal;font-stretch:normal;text-align:center;line-height:0%;letter-spacing:0px;word-spacing:0px;text-anchor:middle;fill:#d1d1d1;font-family:Daedric"
       id="text2985">
      <path
         d="m 281.60608,542.00336 0,0.0312 0,0 0.40625,0.75 0,5.84375 c -0.16669,0.22917 -0.27085,0.44792 -0.3125,0.65625 l 0,0.5 c -0.0833,0.4375 -0.12502,0.82292 -0.125,1.15625 -2e-5,0.125 -2e-5,0.25 0,0.375 l -0.28125,0.5625 0.125,0.5 c -0.16669,0.16667 -0.31252,0.47917 -0.4375,0.9375 -0.0833,0.33333 -0.12502,0.61458 -0.125,0.84375 l 0,0.125 c -0.54169,0.35417 -0.84377,1.01042 -0.90625,1.96875 -2e-5,0.0208 -0.12502,0.14583 -0.375,0.375 l 0,0.0312 c -0.16668,0.22916 -0.35418,0.42708 -0.5625,0.59375 -0.83335,0.0208 -1.34377,0.0729 -1.53125,0.15625 -0.52085,-0.14584 -0.96877,-0.22917 -1.34375,-0.25 -0.0833,-0.0417 -0.14585,-0.0729 -0.1875,-0.0937 l -0.0937,0 c -0.0833,0 -0.20835,0 -0.375,0 -0.0833,-0.0417 -0.19793,-0.10417 -0.34375,-0.1875 -0.16668,-0.0833 -0.29168,-0.14584 -0.375,-0.1875 -0.16668,0.0417 -0.25001,0.0625 -0.25,0.0625 -0.0625,-0.0417 -0.1771,-0.0833 -0.34375,-0.125 -0.20835,-0.0625 -0.45835,-0.11459 -0.75,-0.15625 -0.12501,0.0208 -0.29168,0.0312 -0.5,0.0312 -0.20834,0 -0.44793,-0.0104 -0.71875,-0.0312 -0.16668,-0.0208 -0.31251,-0.0312 -0.4375,-0.0312 -0.25001,0 -0.43751,0.0312 -0.5625,0.0937 -0.35418,-0.16667 -0.71876,-0.25 -1.09375,-0.25 -0.29168,0 -0.58334,0.0417 -0.875,0.125 l -0.125,0 c -0.0417,0.0417 -0.0729,0.0729 -0.0937,0.0937 -0.12501,0.0417 -0.22917,0.0937 -0.3125,0.15625 -0.31251,0.0208 -0.57292,0.11458 -0.78125,0.28125 -0.0625,0 -0.15626,0.0208 -0.28125,0.0625 -0.12501,0.0417 -0.21876,0.0625 -0.28125,0.0625 -0.12501,0.0833 -0.22917,0.125 -0.3125,0.125 -0.0417,0 -0.0833,-0.0104 -0.125,-0.0312 -0.12501,0.125 -0.22917,0.1875 -0.3125,0.1875 -0.0417,0 -0.0729,0 -0.0937,0 -0.0625,0.0625 -0.13542,0.11458 -0.21875,0.15625 l -0.125,0.15625 c -0.125,0.0417 -0.27084,0.125 -0.4375,0.25 -0.0833,0.125 -0.19792,0.25 -0.34375,0.375 l -0.34375,0.0625 c -0.25,0.27083 -0.60417,0.58333 -1.0625,0.9375 -0.0833,0.0417 -0.16667,0.0625 -0.25,0.0625 -0.20834,0 -0.3125,-0.14584 -0.3125,-0.4375 l 0,-0.0312 c 0.16666,-0.20834 0.41666,-0.35417 0.75,-0.4375 0.22916,-0.375 0.5625,-0.6875 1,-0.9375 0.16666,-0.35417 0.47916,-0.63542 0.9375,-0.84375 l 0.375,-0.46875 0.8125,-0.28125 0.125,-0.0937 0.375,-0.4375 c 0.22916,-0.0625 0.44791,-0.19792 0.65625,-0.40625 0.33333,-0.0417 0.68749,-0.14583 1.0625,-0.3125 l 0,-0.0312 -0.1875,-0.25 c -0.0417,-0.33333 -0.20834,-0.625 -0.5,-0.875 l 0,0 c -1e-5,-0.0417 -0.0208,-0.0833 -0.0625,-0.125 l -0.0625,-0.125 -0.0625,-0.125 c -1e-5,-0.0417 -1e-5,-0.0833 0,-0.125 -1e-5,-0.125 -0.0208,-0.25 -0.0625,-0.375 -0.54167,-0.60416 -0.89584,-1.375 -1.0625,-2.3125 -0.50001,-0.93749 -0.75001,-2.01041 -0.75,-3.21875 -0.0833,-0.16666 -0.20834,-0.33333 -0.375,-0.5 0.0208,-0.12499 0.0312,-0.24999 0.0312,-0.375 -1e-5,-0.37499 -0.0625,-0.77082 -0.1875,-1.1875 0.0833,-0.24999 0.12499,-0.53124 0.125,-0.84375 -1e-5,-0.20832 -0.0208,-0.42707 -0.0625,-0.65625 0.0417,-0.20832 0.0625,-0.45832 0.0625,-0.75 0.16666,-0.29165 0.24999,-0.6354 0.25,-1.03125 -1e-5,-0.0833 -1e-5,-0.16665 0,-0.25 0.12499,-0.12499 0.22916,-0.31249 0.3125,-0.5625 0.0208,-0.20832 0.10416,-0.43749 0.25,-0.6875 l 0.125,-0.6875 c 0.24999,-0.33332 0.43749,-0.72915 0.5625,-1.1875 l 0.0625,-0.125 0.0625,-0.125 0.125,-0.125 0,-0.1875 0.0625,-0.25 0.625,-0.75 0.125,-0.0625 0.125,-0.125 c 0.0833,-0.20832 0.14583,-0.43748 0.1875,-0.6875 0.27083,-0.27081 0.58332,-0.64581 0.9375,-1.125 0.24999,-0.0625 0.54166,-0.18748 0.875,-0.375 l 0.25,0.125 c -0.12501,0.37502 -0.35418,0.77085 -0.6875,1.1875 -0.0625,0.12502 -0.12501,0.29169 -0.1875,0.5 l -0.6875,0.75 -0.0625,0.125 c -0.0833,0.20835 -0.12501,0.45835 -0.125,0.75 l -0.0625,0.125 c -0.33334,0.33335 -0.56251,0.75002 -0.6875,1.25 l -0.375,0.8125 0,0.125 c -1e-5,0.16668 0.0208,0.35418 0.0625,0.5625 -0.12501,0.33335 -0.18751,0.69793 -0.1875,1.09375 -1e-5,0.20835 0.0208,0.4271 0.0625,0.65625 -0.0417,0.0833 -0.0625,0.1771 -0.0625,0.28125 -1e-5,0.10418 0.0208,0.21876 0.0625,0.34375 -1e-5,0.0625 -1e-5,0.12501 0,0.1875 -1e-5,0.12501 -0.0208,0.27084 -0.0625,0.4375 l 0,0.5625 c 0.12499,0.25001 0.31249,0.52084 0.5625,0.8125 -1e-5,0.12501 -1e-5,0.25001 0,0.375 -1e-5,0.33334 0.0625,0.68751 0.1875,1.0625 -1e-5,0.70834 0.16666,1.37501 0.5,2 -1e-5,0.12501 0.0417,0.25001 0.125,0.375 l 0,0.75 0.0625,0.125 c 0.16666,0.25 0.39582,0.52084 0.6875,0.8125 0.0625,0.5625 0.33332,1.04167 0.8125,1.4375 0.12499,0.75 0.48957,1.41667 1.09375,2 0.10416,0.0417 0.21874,0.0625 0.34375,0.0625 0.24999,0.16667 0.54165,0.26042 0.875,0.28125 0.0417,0.0625 0.49999,0.15625 1.375,0.28125 l 0.3125,0 c 0.29165,0 0.52082,-0.0104 0.6875,-0.0312 0.0417,0 0.0625,0 0.0625,0 l 0,0 c 0.12499,-0.25 0.20832,-0.45833 0.25,-0.625 0.58332,-0.72917 0.8854,-1.5 0.90625,-2.3125 0.41665,-0.5625 0.6354,-1.15625 0.65625,-1.78125 0.29165,-0.58333 0.43748,-1.16666 0.4375,-1.75 -2e-5,-0.16666 -0.0208,-0.33333 -0.0625,-0.5 0.14582,-0.49999 0.21873,-0.96874 0.21875,-1.40625 -2e-5,-0.27082 -0.0208,-0.53124 -0.0625,-0.78125 0.12498,-0.14582 0.20832,-0.30207 0.25,-0.46875 l 0,-0.9375 c 0.10415,-0.24999 0.15623,-0.47916 0.15625,-0.6875 -2e-5,-0.0417 -2e-5,-0.0833 0,-0.125 l -0.0625,-0.28125 -0.0625,-0.1875 0.125,-0.1875 c -2e-5,-0.24999 -0.0417,-0.46874 -0.125,-0.65625 l 0.125,-0.5625 -0.125,-0.125 0.0625,-0.40625 c -0.0208,-0.12499 -0.0313,-0.24999 -0.0312,-0.375 -2e-5,-0.20832 0.0312,-0.39582 0.0937,-0.5625 l -0.125,-0.53125 0.125,-0.5 c -0.27085,-0.64582 -0.40627,-1.2604 -0.40625,-1.84375 l 0,-0.25 -0.5,-0.40625 c -0.0417,-0.24998 -0.14585,-0.43748 -0.3125,-0.5625 -0.0208,-0.41665 -0.1771,-0.72915 -0.46875,-0.9375 -0.12502,-0.41665 -0.27085,-0.74998 -0.4375,-1 -0.45835,-0.0417 -0.68751,-0.27081 -0.6875,-0.6875 l 0,-0.0937 c -0.45835,2e-5 -0.68751,-0.20831 -0.6875,-0.625 l 0,-0.0625 c 0.12499,-0.0208 0.23957,-0.0312 0.34375,-0.0312 0.10415,2e-5 0.1979,0.0104 0.28125,0.0312 0.22915,0.37502 0.54165,0.58335 0.9375,0.625 0.49998,0.87502 1.15623,1.50002 1.96875,1.875 0.29165,0.72919 0.6979,1.27085 1.21875,1.625 0.24998,0.70835 0.56248,1.25002 0.9375,1.625 -0.0417,0.20835 -0.0625,0.39585 -0.0625,0.5625 l 0,0.15625 c 0.16665,0.20835 0.33331,0.37502 0.5,0.5 l -0.0625,0.625 0.1875,0.34375 -0.125,0.625 c 0.0417,0.22918 0.0625,0.44793 0.0625,0.65625 -2e-5,0.20835 -0.0208,0.41668 -0.0625,0.625 z"
         style=""
         id="path3222" />
    </g>
  </g>
</svg>
