<?xml version="1.0" encoding="UTF-8" standalone="no"?>
<!-- Created with Inkscape (http://www.inkscape.org/) -->

<svg
   xmlns:dc="http://purl.org/dc/elements/1.1/"
   xmlns:cc="http://creativecommons.org/ns#"
   xmlns:rdf="http://www.w3.org/1999/02/22-rdf-syntax-ns#"
   xmlns:svg="http://www.w3.org/2000/svg"
   xmlns="http://www.w3.org/2000/svg"
   xmlns:sodipodi="http://sodipodi.sourceforge.net/DTD/sodipodi-0.dtd"
   xmlns:inkscape="http://www.inkscape.org/namespaces/inkscape"
   version="1.1"
   width="20"
   height="30"
   id="svg2"
   inkscape:version="0.48.2 r9819"
   sodipodi:docname="Daedric_Y.svg">
  <sodipodi:namedview
     pagecolor="#ffffff"
     bordercolor="#666666"
     borderopacity="1"
     objecttolerance="10"
     gridtolerance="10"
     guidetolerance="10"
     inkscape:pageopacity="0"
     inkscape:pageshadow="2"
     inkscape:window-width="1280"
     inkscape:window-height="972"
     id="namedview3230"
     showgrid="false"
     inkscape:zoom="7.8666667"
     inkscape:cx="10"
     inkscape:cy="15"
     inkscape:window-x="-8"
     inkscape:window-y="-8"
     inkscape:window-maximized="1"
     inkscape:current-layer="svg2" />
  <defs
     id="defs2992" />
  <metadata
     id="metadata7">
    <rdf:RDF>
      <cc:Work
         rdf:about="">
        <dc:format>image/svg+xml</dc:format>
        <dc:type
           rdf:resource="http://purl.org/dc/dcmitype/StillImage" />
        <dc:title />
      </cc:Work>
    </rdf:RDF>
  </metadata>
  <g
     transform="translate(-262.5,-531.07648)"
     id="layer1">
    <g
       style="font-size:32px;font-style:normal;font-variant:normal;font-weight:normal;font-stretch:normal;text-align:center;line-height:0%;letter-spacing:0px;word-spacing:0px;text-anchor:middle;fill:#d1d1d1;font-family:Daedric"
       id="text2985">
      <path
         d="m 278.51233,556.59711 c 0.0208,0.0625 0.0312,0.13541 0.0312,0.21875 -1e-5,0.0833 -1e-5,0.16666 0,0.25 -0.33335,0.0833 -0.72918,0.125 -1.1875,0.125 l -0.15625,0 c -0.27085,0.0833 -0.5521,0.125 -0.84375,0.125 -0.12501,0 -0.26043,-0.0104 -0.40625,-0.0312 -0.29168,0.0417 -0.43751,0.0625 -0.4375,0.0625 -1e-5,0 -0.0417,0.0104 -0.125,0.0312 -0.58334,0.10416 -0.94793,0.15625 -1.09375,0.15625 l -0.0625,0 -0.1875,-0.0312 -0.1875,-0.0312 c -0.0833,0 -0.22918,-0.0208 -0.4375,-0.0625 -0.16668,-0.0208 -0.30209,-0.0417 -0.40625,-0.0625 -0.12501,-0.0208 -0.29168,-0.0312 -0.5,-0.0312 -0.22918,0 -0.51042,0.0208 -0.84375,0.0625 -0.0417,-0.0208 -0.11459,-0.0312 -0.21875,-0.0312 -0.0833,0 -0.14584,-0.0104 -0.1875,-0.0312 -0.12501,0 -0.29167,-0.0417 -0.5,-0.125 -1e-5,0 -0.0625,-0.0208 -0.1875,-0.0625 -0.0208,0 -0.0417,0 -0.0625,0 -0.0208,0 -0.0521,0 -0.0937,0 -0.25001,-0.125 -0.58334,-0.27084 -1,-0.4375 -0.50001,-0.20834 -0.82292,-0.35417 -0.96875,-0.4375 -0.0208,-0.0208 -0.0521,-0.0937 -0.0937,-0.21875 0,-0.0417 -0.0208,-0.125 -0.0625,-0.25 -0.125,-0.0625 -0.27084,-0.0937 -0.4375,-0.0937 -0.0625,0 -0.13542,0 -0.21875,0 -0.14584,-0.27083 -0.38542,-0.45833 -0.71875,-0.5625 -0.0417,-0.0417 -0.0625,-0.0625 -0.0625,-0.0625 -0.0208,-0.0833 -0.13542,-0.28125 -0.34375,-0.59375 0.0417,-0.20833 0.0625,-0.40625 0.0625,-0.59375 0,-0.20833 -0.0208,-0.41667 -0.0625,-0.625 0.16666,-0.125 0.27083,-0.3125 0.3125,-0.5625 l 0.0937,-0.0625 0,0 0.125,-0.0312 c 0.0417,-0.29166 0.10416,-0.5 0.1875,-0.625 0.25,-0.0833 0.40625,-0.29166 0.46875,-0.625 0.20833,-0.0833 0.375,-0.3125 0.5,-0.6875 0.375,-0.0417 0.70833,-0.27083 1,-0.6875 l 0,0 c 0.0833,0 0.12499,0.0729 0.125,0.21875 -1e-5,0.0417 -1e-5,0.0937 0,0.15625 -0.0417,0.29167 -0.0625,0.54167 -0.0625,0.75 -1e-5,0.125 -1e-5,0.22917 0,0.3125 -0.0208,0.0417 -0.0729,0.1875 -0.15625,0.4375 -0.0625,0.22917 -0.11459,0.36459 -0.15625,0.40625 0.0208,0 0.12499,0.5 0.3125,1.5 0.18749,0.375 0.42708,0.625 0.71875,0.75 0.0833,0.375 0.28124,0.625 0.59375,0.75 0.0833,0.0417 0.22916,0.0833 0.4375,0.125 0.24999,0.0417 0.43749,0.0833 0.5625,0.125 0.0625,0.0208 0.21874,0.0521 0.46875,0.0937 0.0208,0 0.0417,0.0104 0.0625,0.0312 0.0417,0 0.0625,0 0.0625,0 0.24999,-1 0.37499,-1.58333 0.375,-1.75 l 0,-0.0625 c -1e-5,-0.0417 -0.0208,-0.0729 -0.0625,-0.0937 l 0.0625,-0.21875 c 0.0208,-0.0833 0.0312,-0.16667 0.0312,-0.25 -1e-5,-0.14583 -0.0313,-0.28125 -0.0937,-0.40625 l 0.125,-0.3125 -0.125,-1.5 0.0625,-0.125 c -1e-5,-0.0417 -1e-5,-0.0833 0,-0.125 -1e-5,-0.0417 -1e-5,-0.0833 0,-0.125 -0.0417,-0.25 -0.0625,-0.5625 -0.0625,-0.9375 l 0.125,-0.3125 -0.125,-0.3125 c 0.0833,-0.24999 0.12499,-0.52083 0.125,-0.8125 -1e-5,-0.16666 -0.0208,-0.35416 -0.0625,-0.5625 0.0417,-0.10416 0.0625,-0.23958 0.0625,-0.40625 0.0208,-0.20833 0.0312,-0.41666 0.0312,-0.625 -1e-5,-0.43749 -0.0521,-0.84374 -0.15625,-1.21875 l -0.34375,-0.9375 c 0.0833,-0.72916 0.12499,-1.14582 0.125,-1.25 l 0,0 -0.5625,-0.84375 c -1e-5,10e-6 -0.0625,-0.46874 -0.1875,-1.40625 l 0.21875,-1 0,0 c -1e-5,-0.12499 -0.0938,-0.56249 -0.28125,-1.3125 l -0.5,-0.625 -0.125,-0.125 0,-0.28125 c -0.0417,-0.70832 -0.18751,-1.27082 -0.4375,-1.6875 l 0.0625,-0.21875 c -1e-5,-0.0833 -1e-5,-0.16665 0,-0.25 -1e-5,-0.0833 -1e-5,-0.14581 0,-0.1875 l 0.0312,-0.1875 -0.0625,-0.15625 -0.0625,-0.125 -0.0312,-0.25 c -1e-5,-0.0833 -1e-5,-0.14581 0,-0.1875 -1e-5,-0.18748 -0.0417,-0.34373 -0.125,-0.46875 l -0.0625,-0.5625 c 0.0417,-0.16665 0.0625,-0.3229 0.0625,-0.46875 -1e-5,-0.14581 -0.0208,-0.28123 -0.0625,-0.40625 l 0.125,-0.1875 0.25,0.0625 0.125,0.15625 c 0.0417,0.0209 0.19791,0.0521 0.46875,0.0937 0.24999,0.0417 0.38541,0.0833 0.40625,0.125 0.12499,0.16669 0.27083,0.27085 0.4375,0.3125 l 0.53125,0.125 c 0.0417,0.0417 0.14582,0.0938 0.3125,0.15625 0.16666,0.0625 0.27082,0.10419 0.3125,0.125 l 0,0 c 0.0417,2e-5 0.0625,0.0313 0.0625,0.0937 -1e-5,0.12502 -0.0521,0.33335 -0.15625,0.625 -0.12501,0.33335 -0.18751,0.56252 -0.1875,0.6875 -1e-5,0.0833 0.0208,0.12502 0.0625,0.125 -0.0417,0.16669 -0.0625,0.3021 -0.0625,0.40625 -1e-5,0.10419 0.0208,0.18752 0.0625,0.25 0.29166,0.50002 0.43749,0.77085 0.4375,0.8125 l 0.15625,0 c 0.20832,2e-5 0.42707,-0.0208 0.65625,-0.0625 l 0.5,-0.34375 0.6875,-0.0625 c 0.29165,-0.0417 0.60415,-0.16665 0.9375,-0.375 0.14582,-0.0833 0.3229,-0.20831 0.53125,-0.375 0.14582,-0.12498 0.23957,-0.18748 0.28125,-0.1875 l 0.21875,0.25 c -0.0833,0.20835 -0.22918,0.41669 -0.4375,0.625 -0.0625,0.62502 -0.38543,1.1146 -0.96875,1.46875 -0.0833,0.29168 -0.12501,0.6146 -0.125,0.96875 l 0,0.125 c -0.0417,0.0417 -0.0625,0.22918 -0.0625,0.5625 -1e-5,0.41668 -0.0104,0.69793 -0.0312,0.84375 l 0,0.78125 -0.125,0.5 -0.375,0.90625 0,0.46875 c -1e-5,0.83334 -0.0729,1.37501 -0.21875,1.625 l 0,0 c -1e-5,0.0417 -0.0208,0.10418 -0.0625,0.1875 -0.0417,0.0833 -0.0625,0.15626 -0.0625,0.21875 l 0,0.0625 c -1e-5,0.0833 -1e-5,0.15626 0,0.21875 -1e-5,0.16668 -0.0208,0.31251 -0.0625,0.4375 -0.0833,0.39584 -0.12501,0.80209 -0.125,1.21875 l -0.3125,1.21875 0,0.1875 c -1e-5,0.0417 -1e-5,0.25001 0,0.625 -1e-5,0.35417 -0.0208,0.57292 -0.0625,0.65625 0.0417,0.14584 0.0625,0.28125 0.0625,0.40625 -1e-5,0.125 -0.0208,0.23959 -0.0625,0.34375 -0.0208,0.0417 -0.0729,0.15625 -0.15625,0.34375 -0.0625,0.16667 -0.11459,0.33334 -0.15625,0.5 -1e-5,0.0625 -1e-5,0.13542 0,0.21875 -1e-5,0.20834 0.0417,0.45834 0.125,0.75 l -0.0625,0.125 -0.0625,0.0937 0.0625,0.21875 0,0.25 c -0.16668,0.20834 -0.26043,0.47917 -0.28125,0.8125 l 0.25,1.25 -0.21875,0.5 -0.0625,0.90625 c -0.0417,0.0833 -0.0938,0.17708 -0.15625,0.28125 0.27082,0.0625 0.60416,0.0937 1,0.0937 0.33332,0 0.53124,0.0208 0.59375,0.0625 0.0208,0.0417 0.42707,0.0833 1.21875,0.125 0.77082,0.0417 1.16665,0.0729 1.1875,0.0937 0.70832,0.0833 1.12499,0.125 1.25,0.125 l 0.0312,0 0,0 0,0 0,-0.0312 z"
         style=""
         id="path3233" />
    </g>
  </g>
</svg>
