<?xml version="1.0" encoding="UTF-8" standalone="no"?>
<!-- Created with Inkscape (http://www.inkscape.org/) -->

<svg
   xmlns:dc="http://purl.org/dc/elements/1.1/"
   xmlns:cc="http://creativecommons.org/ns#"
   xmlns:rdf="http://www.w3.org/1999/02/22-rdf-syntax-ns#"
   xmlns:svg="http://www.w3.org/2000/svg"
   xmlns="http://www.w3.org/2000/svg"
   xmlns:sodipodi="http://sodipodi.sourceforge.net/DTD/sodipodi-0.dtd"
   xmlns:inkscape="http://www.inkscape.org/namespaces/inkscape"
   version="1.1"
   width="20"
   height="30"
   id="svg2"
   inkscape:version="0.48.2 r9819"
   sodipodi:docname="Daedric_Z.svg">
  <sodipodi:namedview
     pagecolor="#ffffff"
     bordercolor="#666666"
     borderopacity="1"
     objecttolerance="10"
     gridtolerance="10"
     guidetolerance="10"
     inkscape:pageopacity="0"
     inkscape:pageshadow="2"
     inkscape:window-width="1280"
     inkscape:window-height="972"
     id="namedview3241"
     showgrid="false"
     inkscape:zoom="7.8666667"
     inkscape:cx="10"
     inkscape:cy="15"
     inkscape:window-x="-8"
     inkscape:window-y="-8"
     inkscape:window-maximized="1"
     inkscape:current-layer="svg2" />
  <defs
     id="defs2992" />
  <metadata
     id="metadata7">
    <rdf:RDF>
      <cc:Work
         rdf:about="">
        <dc:format>image/svg+xml</dc:format>
        <dc:type
           rdf:resource="http://purl.org/dc/dcmitype/StillImage" />
        <dc:title />
      </cc:Work>
    </rdf:RDF>
  </metadata>
  <g
     transform="translate(-262.5,-531.07648)"
     id="layer1">
    <g
       style="font-size:32px;font-style:normal;font-variant:normal;font-weight:normal;font-stretch:normal;text-align:center;line-height:0%;letter-spacing:0px;word-spacing:0px;text-anchor:middle;fill:#d1d1d1;font-family:Daedric"
       id="text2985">
      <path
         d="m 271.19983,532.28461 c 0.18749,0.0209 0.38541,0.0729 0.59375,0.15625 l 0.375,-0.125 c 0.12499,0.0417 0.24999,0.0625 0.375,0.0625 0.12499,2e-5 0.26041,-0.0208 0.40625,-0.0625 l 0.5625,0 c 0.20833,0.16669 0.45833,0.30211 0.75,0.40625 l 0.375,0.125 0.4375,0.15625 0.1875,0.0625 c 0.12499,0.18752 0.31249,0.37502 0.5625,0.5625 l 0.0625,0.125 0.125,0.0625 0.25,0.28125 0.0625,0.375 -0.3125,0.1875 c -0.39584,-0.0625 -0.76043,-0.0937 -1.09375,-0.0937 -1.25001,2e-5 -2.21876,0.41669 -2.90625,1.25 l 0,0.0625 c -1e-5,0.12502 0.0417,0.25002 0.125,0.375 0.24999,2e-5 0.52083,-0.0417 0.8125,-0.125 0.33333,0.0833 0.70833,0.12502 1.125,0.125 0.18749,2e-5 0.38541,-0.0104 0.59375,-0.0312 l 1.25,0 c 0.20832,0.0833 0.43749,0.12502 0.6875,0.125 l 0.125,0.1875 c -0.62501,0.50002 -1.06251,1.20835 -1.3125,2.125 l -0.28125,0.28125 0,0.125 c -1e-5,0.45835 -0.12501,0.91668 -0.375,1.375 l -0.1875,0.78125 0,0.28125 -0.0625,0.21875 -0.125,0.1875 -0.0625,0.21875 0,0.75 -0.125,0.28125 -0.125,0.25 c -1e-5,0.16668 0.0521,0.32293 0.15625,0.46875 -0.0833,0.16668 -0.12501,0.36459 -0.125,0.59375 -1e-5,0.16668 0.0208,0.33334 0.0625,0.5 -0.0417,0.12501 -0.0625,0.25001 -0.0625,0.375 -1e-5,0.20834 0.0625,0.41668 0.1875,0.625 -0.18751,0.45834 -0.28126,0.95834 -0.28125,1.5 -1e-5,0.25001 0.0208,0.51042 0.0625,0.78125 l 0,0.5625 c -0.10417,0.25001 -0.19792,0.56251 -0.28125,0.9375 l -0.125,0.0625 -0.0625,0.3125 c 0.12499,0.29167 0.18749,0.60417 0.1875,0.9375 -1e-5,0.33334 -0.0625,0.6875 -0.1875,1.0625 0.16666,0.3125 0.24999,0.63542 0.25,0.96875 -1e-5,0.33333 -0.0833,0.67708 -0.25,1.03125 0.10416,0.20833 0.15624,0.41667 0.15625,0.625 -1e-5,0.20833 -0.0521,0.41667 -0.15625,0.625 0.12499,0.29167 0.18749,0.60417 0.1875,0.9375 -1e-5,0.375 -0.0729,0.76041 -0.21875,1.15625 -0.25001,-0.0417 -0.43751,-0.20834 -0.5625,-0.5 -0.0833,-0.20834 -0.12501,-0.42709 -0.125,-0.65625 -1e-5,-0.25 0.0417,-0.5 0.125,-0.75 l -0.25,-0.34375 c 0.0417,-0.125 0.0625,-0.25 0.0625,-0.375 -1e-5,-0.29167 -0.0729,-0.58333 -0.21875,-0.875 -1e-5,-0.0833 -1e-5,-0.16667 0,-0.25 -1e-5,-0.45833 -0.11459,-0.91667 -0.34375,-1.375 l 0,-1.375 -0.0625,-0.1875 -0.0625,-0.125 0,-0.5 c -0.12501,-0.16666 -0.23959,-0.39583 -0.34375,-0.6875 -1e-5,-0.0833 -1e-5,-0.16666 0,-0.25 -1e-5,-0.29166 -0.0833,-0.59374 -0.25,-0.90625 l 0,-0.1875 c -1e-5,-0.45833 -0.14584,-0.91666 -0.4375,-1.375 -1e-5,-0.10416 -1e-5,-0.20833 0,-0.3125 -1e-5,-0.35416 -0.0833,-0.71874 -0.25,-1.09375 -0.0833,-0.24999 -0.125,-0.53124 -0.125,-0.84375 l 0,-0.21875 -0.0625,-0.15625 -0.0625,-0.40625 -0.0625,-0.3125 c 0,-0.20832 -0.0208,-0.34374 -0.0625,-0.40625 l 0,-0.5 c 0,-0.0833 0,-0.16665 0,-0.25 0,-0.10415 0,-0.21874 0,-0.34375 0,-0.16665 -0.0625,-0.35415 -0.1875,-0.5625 l 0,-0.0937 c 0,-0.22915 -0.0729,-0.47915 -0.21875,-0.75 l -0.125,-0.4375 0,-0.1875 -0.125,-0.125 c -0.0417,-0.29165 -0.14584,-0.62498 -0.3125,-1 -0.0208,-0.14582 -0.0937,-0.30207 -0.21875,-0.46875 -0.0208,-0.33332 -0.16667,-0.64582 -0.4375,-0.9375 l -0.125,-0.3125 -0.0625,-0.5 c 0.16666,-0.14582 0.25,-0.36457 0.25,-0.65625 l 0.21875,-0.28125 c 0.22916,-0.0833 0.44791,-0.21873 0.65625,-0.40625 l 0.0937,0 c 0.125,2e-5 0.25,-0.0417 0.375,-0.125 l 0.375,-0.28125 0.21875,-0.0625 c 0.12499,-0.0625 0.22916,-0.15623 0.3125,-0.28125 l 0.0625,0 c 0.20833,2e-5 0.41666,-0.0833 0.625,-0.25 l 0.21875,-0.0625 0,-0.21875 c -0.64584,-0.41665 -1.38542,-0.62498 -2.21875,-0.625 -0.125,2e-5 -0.25,2e-5 -0.375,0 -0.20834,-0.0833 -0.45834,-0.12498 -0.75,-0.125 l -0.125,0 -0.3125,0.1875 -0.125,-0.28125 1.1875,-0.71875 0.125,-0.125 c 0.20833,0.0417 0.41666,0.0625 0.625,0.0625 0.25,2e-5 0.51041,-0.0416 0.78125,-0.125 l 0,0 0,0 0,-0.0312 z"
         style=""
         id="path3244" />
    </g>
  </g>
</svg>
